<svg id="Слой_1" data-name="Слой 1" xmlns="http://www.w3.org/2000/svg" viewBox="0 0 32.1 50"><defs><style>.cls-1{fill:#ee2a23;}</style></defs><path id="path134" class="cls-1" d="M16.05,0c3.41,0,4.47,2.44,5.37,4.88.38,1,9.22,25.25,9.49,26a.52.52,0,0,1-.29.66l-5.16,2a.5.5,0,0,1-.64-.3l-2.21-6.12H9.5c-.2.59-2.13,5.88-2.22,6.12a.49.49,0,0,1-.63.3l-5.16-2a.51.51,0,0,1-.29-.66c.32-.9,9-24.73,9.47-26,.87-2.4,2-4.88,5.38-4.88M.5,43.33a.5.5,0,0,0-.5.51V49.5a.5.5,0,0,0,.5.5H31.6a.5.5,0,0,0,.5-.5V43.84a.5.5,0,0,0-.5-.51H.5M16,7.91l-4.43,13.3h8.93L16.08,7.91Z"/></svg>