<svg _ngcontent-serverApp-c49="" width="20" height="15" viewBox="0 0 20 15" fill="none" xmlns="http://www.w3.org/2000/svg"><path _ngcontent-serverApp-c49="" fill-rule="evenodd" clip-rule="evenodd" d="M17.5 0H2.5C1.08333 0 0 1.08333 0 2.5V12.5C0 13.9167 1.08333 15 2.5 15H17.5C18.9167 15 20 13.9167 20 12.5V2.5C20 1.08333 18.9167 0 17.5 0ZM2.50004 1.66658H17.5C18 1.66658 18.3334 1.99991 18.3334 2.49991V4.99991H1.66671V2.49991C1.66671 1.99991 2.00004 1.66658 2.50004 1.66658ZM2.50004 13.3332H17.5C18 13.3332 18.3334 12.9999 18.3334 12.4999V6.66658H1.66671V12.4999C1.66671 12.9999 2.00004 13.3332 2.50004 13.3332Z" fill="white"></path></svg>