<svg _ngcontent-serverApp-c43="" width="20" height="21" viewBox="0 0 20 21" fill="none" xmlns="http://www.w3.org/2000/svg"><path _ngcontent-serverApp-c43="" fill-rule="evenodd" clip-rule="evenodd" d="M19.1287 10.4999V9.71735C19.1287 9.19566 18.7809 8.84787 18.2592 8.84787C17.7375 8.84787 17.3897 9.19566 17.3897 9.71735V10.4999C17.3897 14.8473 13.9118 18.3253 9.56434 18.3253C5.21691 18.3253 1.73897 14.8473 1.73897 10.4999C1.73897 6.15246 5.21691 2.67452 9.56434 2.67452C10.6947 2.67452 11.7381 2.93536 12.7814 3.37011C13.2162 3.544 13.7379 3.37011 13.9118 2.93536C14.0857 2.50062 13.9118 1.97893 13.477 1.80503C12.2597 1.19639 10.8686 0.935547 9.56434 0.935547C4.26048 0.935547 0 5.19603 0 10.4999C0 15.8038 4.26048 20.0642 9.56434 20.0642C14.8682 20.0642 19.1287 15.8038 19.1287 10.4999ZM18.52 2.06588C18.8678 1.71808 19.3895 1.71808 19.7373 2.06588C20.0851 2.41367 20.0851 2.93536 19.7373 3.28316L10.173 12.8475C9.99909 13.0214 9.73824 13.1083 9.56435 13.1083C9.39045 13.1083 9.1296 13.0214 8.95571 12.8475L6.34725 10.239C5.99946 9.89125 5.99946 9.36956 6.34725 9.02176C6.69504 8.67397 7.21674 8.67397 7.56453 9.02176L9.56435 11.0216L18.52 2.06588Z" fill="white"></path></svg>