<svg _ngcontent-serverApp-c7="" width="22" height="22" viewBox="0 0 22 22" fill="none" xmlns="http://www.w3.org/2000/svg"><path _ngcontent-serverApp-c7="" fill-rule="evenodd" clip-rule="evenodd" d="M11 0C4.9 0 0 4.9 0 11C0 17.1 4.9 22 11 22C17.1 22 22 17.1 22 11C22 4.9 17.1 0 11 0ZM11 20C5.99999 20 2 16 2 11C2 5.99998 5.99999 1.99998 11 1.99998C16 1.99998 20 5.99998 20 11C20 16 16 20 11 20ZM12.4 11L14.7 8.7C15.1 8.3 15.1 7.7 14.7 7.3C14.3 6.9 13.7 6.9 13.3 7.3L11 9.6L8.7 7.3C8.3 6.9 7.7 6.9 7.3 7.3C6.9 7.7 6.9 8.3 7.3 8.7L9.6 11L7.3 13.3C6.9 13.7 6.9 14.3 7.3 14.7C7.5 14.9 7.7 15 8 15C8.3 15 8.5 14.9 8.7 14.7L11 12.4L13.3 14.7C13.5 14.9 13.7 15 14 15C14.3 15 14.5 14.9 14.7 14.7C15.1 14.3 15.1 13.7 14.7 13.3L12.4 11Z" fill="#307BF6"></path></svg>