<svg width="18" height="18" viewBox="0 0 18 18" fill="none" xmlns="http://www.w3.org/2000/svg">
  <path d="M16.1207 3.49549C16.5533 4.05268 16.9205 4.65653 17.2151 5.29543L9.00336 11.3288L5.57421 9.16891V6.59859L9.00336 8.75852L16.1207 3.49549Z" fill="#21A038"/>
  <path d="M2.07939 8.99971C2.07939 8.88452 2.07939 8.76932 2.07939 8.63972L4.80404e-06 8.55333C4.80404e-06 8.70092 4.80404e-06 8.85212 4.80404e-06 9.00331C-0.00121664 10.1833 0.230492 11.3522 0.682188 12.4448C1.13266 13.5345 1.79721 14.5255 2.63754 15.3607L4.09675 13.892C2.79653 12.5877 2.0714 10.8292 2.07939 8.99971Z" fill="url(#paint0_linear_1806_51805)"/>
  <path d="M8.99971 2.07714C9.11645 2.07714 9.22954 2.07714 9.34628 2.07714L9.44842 4.53654e-06H8.99971C7.81511 0.000695824 6.64249 0.234047 5.55019 0.686458C4.4579 1.13887 3.46778 1.80129 2.63754 2.63512L4.09675 4.10747C4.73774 3.46691 5.50003 2.95687 6.34029 2.60632C7.18189 2.25591 8.08627 2.07596 8.99971 2.07714Z" fill="url(#paint1_linear_1806_51805)"/>
  <path d="M8.99971 15.9223C8.88298 15.9223 8.76989 15.9223 8.63491 15.9223L8.551 17.9994C8.69936 17.9994 8.84893 17.9994 8.99971 17.9994C10.1824 18.0004 11.3533 17.7678 12.4435 17.3154C13.5375 16.8619 14.5294 16.1988 15.3619 15.3643L13.9027 13.892C13.2627 14.5337 12.5001 15.0439 11.6591 15.3931C10.8175 15.7435 9.91316 15.9235 8.99971 15.9223Z" fill="url(#paint2_linear_1806_51805)"/>
  <path d="M12.8995 3.2867L14.6505 1.99794C13.0579 0.704313 11.0588 -0.00206545 8.99606 4.53654e-06V2.07714C10.3918 2.07766 11.754 2.49976 12.8995 3.2867Z" fill="url(#paint3_linear_1806_51805)"/>
  <path d="M17.9994 8.99971C18.0055 8.4596 17.964 7.91999 17.8754 7.38696L15.9383 8.82692V8.99971C15.9405 9.9642 15.7389 10.9186 15.3463 11.8018C14.9537 12.6851 14.3788 13.4779 13.6583 14.1295L15.0555 15.6739C15.9924 14.829 16.7383 13.7986 17.2443 12.65C17.7487 11.4977 18.0058 10.2549 17.9994 8.99971Z" fill="#21A038"/>
  <path d="M8.99971 15.9223C8.0301 15.9198 7.07196 15.7152 6.18805 15.3219C5.30415 14.9285 4.51441 14.3554 3.87057 13.64L2.32745 15.0367C3.16338 15.9689 4.19054 16.7151 5.34084 17.2258C6.49114 17.7366 7.73832 18.0003 8.99971 17.9994V15.9223Z" fill="url(#paint4_linear_1806_51805)"/>
  <path d="M4.37765 3.86988L2.96221 2.32553C2.02631 3.17134 1.28065 4.20149 0.773389 5.34943C0.262709 6.50037 -0.000626787 7.74328 4.80404e-06 8.99971H2.07939C2.07947 8.03388 2.28394 7.07871 2.6797 6.19536C3.07546 5.31201 3.65378 4.51995 4.37765 3.86988Z" fill="url(#paint5_linear_1806_51805)"/>
  <defs>
    <linearGradient id="paint0_linear_1806_51805" x1="13.512" y1="17.3046" x2="9.63047" y2="-1.33102" gradientUnits="userSpaceOnUse">
      <stop offset="0.14" stop-color="#F1E813"/>
      <stop offset="0.3" stop-color="#E6E418"/>
      <stop offset="0.58" stop-color="#C9DA26"/>
      <stop offset="0.89" stop-color="#A2CC39"/>
    </linearGradient>
    <linearGradient id="paint1_linear_1806_51805" x1="1.55222" y1="13.0934" x2="18.3699" y2="9.22861" gradientUnits="userSpaceOnUse">
      <stop offset="0.06" stop-color="#0FA7DF"/>
      <stop offset="0.54" stop-color="#0098F8"/>
      <stop offset="0.92" stop-color="#0290EA"/>
    </linearGradient>
    <linearGradient id="paint2_linear_1806_51805" x1="-0.376004" y1="12.3992" x2="17.6585" y2="9.93979" gradientUnits="userSpaceOnUse">
      <stop offset="0.12" stop-color="#A2CC39"/>
      <stop offset="0.28" stop-color="#86C239"/>
      <stop offset="0.87" stop-color="#219F38"/>
    </linearGradient>
    <linearGradient id="paint3_linear_1806_51805" x1="-1.40516" y1="3.96265" x2="17.6991" y2="7.38791" gradientUnits="userSpaceOnUse">
      <stop offset="0.06" stop-color="#0290EA"/>
      <stop offset="0.79" stop-color="#0C89CA"/>
    </linearGradient>
    <linearGradient id="paint4_linear_1806_51805" x1="1.38764" y1="4.80083" x2="19.2489" y2="9.1598" gradientUnits="userSpaceOnUse">
      <stop offset="0.13" stop-color="#F1E813"/>
      <stop offset="0.3" stop-color="#EAE616"/>
      <stop offset="0.53" stop-color="#D8DF1F"/>
      <stop offset="0.8" stop-color="#BAD52D"/>
      <stop offset="0.98" stop-color="#A2CC39"/>
    </linearGradient>
    <linearGradient id="paint5_linear_1806_51805" x1="0.733265" y1="9.23731" x2="3.20717" y2="2.80727" gradientUnits="userSpaceOnUse">
      <stop offset="0.07" stop-color="#A2CC39"/>
      <stop offset="0.26" stop-color="#81C45E"/>
      <stop offset="0.92" stop-color="#0FA7DF"/>
    </linearGradient>
  </defs>
</svg>
