<svg id="Слой_1" data-name="Слой 1" xmlns="http://www.w3.org/2000/svg" viewBox="0 0 57.48 50"><defs><style>.cls-1{fill:#50af95;}.cls-1,.cls-2{fill-rule:evenodd;}.cls-2{fill:#fff;}</style></defs><path class="cls-1" d="M10.52.25,0,22.26a.44.44,0,0,0,.09.5L28.44,49.88a.43.43,0,0,0,.6,0l28.3-27.12a.43.43,0,0,0,.09-.5L47,.25A.43.43,0,0,0,46.57,0H10.91a.42.42,0,0,0-.39.25Z"/><path class="cls-2" d="M32.37,24.52h0c-.2,0-1.25.08-3.59.08-1.86,0-3.19-.06-3.65-.08h0c-7.2-.32-12.57-1.57-12.57-3.07s5.37-2.75,12.57-3.07v4.89c.47,0,1.82.12,3.68.12,2.24,0,3.36-.1,3.56-.12V18.38c7.18.32,12.54,1.57,12.54,3.07s-5.36,2.75-12.54,3.07Zm0-6.65V13.49h10V6.81H15.11v6.68h10v4.38c-8.15.38-14.27,2-14.27,3.92S17,25.34,25.13,25.72v14h7.24v-14c8.13-.37,14.25-2,14.25-3.92s-6.11-3.54-14.25-3.92Zm0,0Z"/></svg>