<svg _ngcontent-serverApp-c59="" width="8" height="5" viewBox="0 0 8 5" fill="none" xmlns="http://www.w3.org/2000/svg" class=""><path _ngcontent-serverApp-c59="" d="M7.2528 0.686209C7.12838 0.566943 6.96008 0.5 6.78465 0.5C6.60922 0.5 6.44092 0.566943 6.31651 0.686209L3.93262 2.95305L1.58193 0.686209C1.45751 0.566943 1.28921 0.5 1.11378 0.5C0.938356 0.5 0.770055 0.566943 0.645639 0.686209C0.5834 0.745738 0.534 0.816561 0.500288 0.894593C0.466575 0.972626 0.449219 1.05632 0.449219 1.14086C0.449219 1.22539 0.466575 1.30909 0.500288 1.38712C0.534 1.46515 0.5834 1.53598 0.645639 1.5955L3.46115 4.31059C3.52288 4.3706 3.59633 4.41824 3.67724 4.45075C3.75816 4.48326 3.84496 4.5 3.93262 4.5C4.02028 4.5 4.10707 4.48326 4.18799 4.45075C4.26891 4.41824 4.34235 4.3706 4.40408 4.31059L7.2528 1.5955C7.31504 1.53598 7.36444 1.46515 7.39815 1.38712C7.43186 1.30909 7.44922 1.22539 7.44922 1.14086C7.44922 1.05632 7.43186 0.972626 7.39815 0.894593C7.36444 0.816561 7.31504 0.745738 7.2528 0.686209Z" fill="#307BF6"></path></svg>