<svg _ngcontent-serverApp-c17="" width="20" height="20" viewBox="0 0 18 18" fill="none" xmlns="http://www.w3.org/2000/svg"><path _ngcontent-serverApp-c17="" fill-rule="evenodd" clip-rule="evenodd" d="M0 9C0 4.00909 4.00909 0 9 0C13.9909 0 18 4.00909 18 9C18 13.9909 13.9909 18 9 18C4.00909 18 0 13.9909 0 9ZM1.63636 9C1.63636 13.0909 4.90909 16.3636 9 16.3636C13.0909 16.3636 16.3636 13.0909 16.3636 9C16.3636 4.90909 13.0909 1.63637 9 1.63637C4.90909 1.63637 1.63636 4.90909 1.63636 9ZM9.81819 9V12.2727C9.81819 12.7636 9.49091 13.0909 9 13.0909C8.5091 13.0909 8.18182 12.7636 8.18182 12.2727V9C8.18182 8.50909 8.5091 8.18182 9 8.18182C9.49091 8.18182 9.81819 8.50909 9.81819 9ZM9.81819 5.72727C9.81819 5.48182 9.73637 5.31818 9.57273 5.15455C9.4091 4.99091 9.08182 4.90909 8.83637 4.90909C8.78932 4.95614 8.76933 4.97613 8.74527 4.98463C8.72749 4.99091 8.7075 4.99091 8.67273 4.99091C8.63182 4.99091 8.61137 5.01136 8.59091 5.03182C8.57046 5.05227 8.55 5.07273 8.5091 5.07273L8.42728 5.15455C8.26364 5.31818 8.18182 5.48182 8.18182 5.72727C8.18182 5.97273 8.26364 6.13636 8.42728 6.3C8.42728 6.3 8.42728 6.38182 8.5091 6.38182C8.55 6.38182 8.57046 6.40227 8.59091 6.42273C8.61137 6.44318 8.63182 6.46364 8.67273 6.46364C8.71978 6.51069 8.73977 6.53068 8.76383 6.53918C8.78161 6.54545 8.8016 6.54545 8.83637 6.54545H9C9.24546 6.54545 9.4091 6.46364 9.57273 6.3C9.73637 6.13636 9.81819 5.97273 9.81819 5.72727Z"></path></svg>