<svg _ngcontent-serverApp-c16="" width="18" height="18" viewBox="0 0 18 18" fill="none" xmlns="http://www.w3.org/2000/svg"><path _ngcontent-serverApp-c16="" fill-rule="evenodd" clip-rule="evenodd" d="M9 18C13.9909 18 18 13.9909 18 9C18 4.00909 13.9909 0 9 0C4.00909 0 0 4.00909 0 9C0 13.9909 4.00909 18 9 18ZM9.16365 10.5545C9.49092 10.4727 12.1909 9.4909 12.1909 7.36362C12.1909 5.97271 11.2909 4.74544 9.98183 4.33635C8.26365 3.68181 6.38183 4.58181 5.8091 6.29999C5.72729 6.70908 5.89092 7.19999 6.30001 7.19999C6.7091 7.36362 7.20001 7.11817 7.36365 6.70908C7.69092 5.8909 8.67274 5.39999 9.49092 5.72726C10.1455 5.97271 10.5546 6.54544 10.5546 7.28181C10.5546 8.18181 9.16365 8.83635 8.67274 8.99999C8.26365 9.16362 8.01819 9.65453 8.18183 10.0636C8.26365 10.3909 8.59092 10.6364 8.91819 10.6364C9.00001 10.6364 9.08183 10.6364 9.16365 10.5545ZM16.3636 9C16.3636 4.90909 13.0909 1.63637 9 1.63637C4.90909 1.63637 1.63636 4.90909 1.63636 9C1.63636 13.0909 4.90909 16.3636 9 16.3636C13.0909 16.3636 16.3636 13.0909 16.3636 9ZM9.40911 12.4364C9.49092 12.4364 9.57274 12.5182 9.57274 12.5182C9.65456 12.6 9.73638 12.6818 9.65456 12.7636C9.73638 12.8455 9.73638 13.0091 9.73638 13.0909C9.73638 13.3364 9.65456 13.5 9.49092 13.6636C9.32729 13.8273 9.16365 13.9091 8.9182 13.9091C8.67274 13.9091 8.50911 13.8273 8.34547 13.6636C8.18183 13.5 8.10002 13.3364 8.10002 13.0909C8.10002 12.9951 8.12809 12.9273 8.15135 12.8711C8.1678 12.8314 8.18183 12.7975 8.18183 12.7636C8.18183 12.6818 8.26365 12.6 8.34547 12.5182C8.42729 12.4364 8.50911 12.3545 8.59093 12.3545C8.75456 12.2727 8.9182 12.2727 9.08183 12.2727C9.12888 12.3198 9.14888 12.3398 9.17293 12.3483C9.19071 12.3545 9.2107 12.3545 9.24547 12.3545C9.28638 12.3545 9.30683 12.375 9.32729 12.3955C9.34774 12.4159 9.3682 12.4364 9.40911 12.4364Z" fill="#848484"></path></svg>