<svg _ngcontent-serverApp-c59="" width="14" height="14" viewBox="0 0 14 14" fill="none" xmlns="http://www.w3.org/2000/svg"><path _ngcontent-serverApp-c59="" d="M0.26329 6.37427L6.38128 0.256282C6.72299 -0.0854272 7.27701 -0.0854272 7.61872 0.256282C7.96043 0.59799 7.96043 1.15201 7.61872 1.49372L2.98751 6.12492H13.125C13.6082 6.12492 14 6.51667 14 6.99992C14 7.48317 13.6082 7.87492 13.125 7.87492H2.98736L7.61872 12.5063C7.96043 12.848 7.96043 13.402 7.61872 13.7437C7.27701 14.0854 6.72299 14.0854 6.38128 13.7437L0.256282 7.61872C0.163688 7.52612 0.0961844 7.41794 0.0537714 7.30262C0.0189924 7.20829 0 7.10633 0 6.99992C0 6.79529 0.0702485 6.60706 0.187945 6.45803C0.211258 6.42852 0.236432 6.40054 0.26329 6.37427Z" fill="#307BF6"></path></svg>