<svg _ngcontent-serverApp-c16="" width="16" height="14" viewBox="0 0 16 14" fill="none" xmlns="http://www.w3.org/2000/svg"><path _ngcontent-serverApp-c16="" d="M6.53061 12.5514C6.53061 12.5786 6.53401 12.6466 6.54082 12.7554C6.54762 12.8643 6.54932 12.9544 6.54592 13.0259C6.54252 13.0973 6.53231 13.1772 6.51531 13.2656C6.4983 13.3541 6.46429 13.4204 6.41327 13.4646C6.36224 13.5088 6.29252 13.531 6.20408 13.531H2.93878C2.12925 13.531 1.43707 13.2435 0.862245 12.6687C0.287415 12.0939 0 11.4017 0 10.5922V3.4085C0 2.59898 0.287415 1.9068 0.862245 1.33197C1.43707 0.757142 2.12925 0.469727 2.93878 0.469727H6.20408C6.29252 0.469727 6.36905 0.502039 6.43367 0.566665C6.4983 0.631291 6.53061 0.707822 6.53061 0.796257C6.53061 0.823468 6.53401 0.891495 6.54082 1.00034C6.54762 1.10918 6.54932 1.19932 6.54592 1.27075C6.54252 1.34218 6.53231 1.42211 6.51531 1.51054C6.4983 1.59898 6.46429 1.6653 6.41327 1.70952C6.36224 1.75374 6.29252 1.77585 6.20408 1.77585H2.93878C2.4898 1.77585 2.10544 1.93571 1.78571 2.25544C1.46599 2.57517 1.30612 2.95952 1.30612 3.4085V10.5922C1.30612 11.0412 1.46599 11.4255 1.78571 11.7452C2.10544 12.065 2.4898 12.2248 2.93878 12.2248H6.12245L6.2398 12.235L6.35714 12.2656L6.43878 12.3218L6.5102 12.4136L6.53061 12.5514ZM16 7.00034C16 7.17721 15.9354 7.33027 15.8061 7.45952L10.2551 13.0105C10.1259 13.1398 9.97279 13.2044 9.79592 13.2044C9.61905 13.2044 9.46599 13.1398 9.33673 13.0105C9.20748 12.8813 9.14286 12.7282 9.14286 12.5514V9.61258H4.57143C4.39456 9.61258 4.2415 9.54796 4.11224 9.41871C3.98299 9.28946 3.91837 9.13639 3.91837 8.95952V5.04116C3.91837 4.86428 3.98299 4.71122 4.11224 4.58197C4.2415 4.45272 4.39456 4.38809 4.57143 4.38809H9.14286V1.44932C9.14286 1.27245 9.20748 1.11939 9.33673 0.990135C9.46599 0.860883 9.61905 0.796257 9.79592 0.796257C9.97279 0.796257 10.1259 0.860883 10.2551 0.990135L15.8061 6.54116C15.9354 6.67041 16 6.82347 16 7.00034Z" fill="#0A0A0A"></path></svg>