<svg width="86" height="41" viewBox="0 0 86 41" fill="none" xmlns="http://www.w3.org/2000/svg">
<path d="M34.525 4.05176H37.5264L39.864 13.1682H39.906V4.05176H42.0379V19.2832H39.5694L36.6989 8.16583H36.6569V19.2832H34.525V4.05176Z" fill="#168AFF"/>
<path d="M45.6611 4.05176H48.9056L51.3834 19.2832H48.9897L48.555 16.2771V16.3192H45.8387L45.4133 19.2832H43.1833L45.6611 4.05176ZM48.2745 14.2341L47.2085 6.7072H47.1665L46.1192 14.2341H48.2745Z" fill="#168AFF"/>
<path d="M52.9495 18.5117C52.3093 17.7082 51.9925 16.6944 52.0613 15.6693V14.7997H54.324V15.8422C54.324 16.8334 54.7354 17.3243 55.5629 17.3243C55.7357 17.3373 55.9092 17.3118 56.0709 17.2495C56.2326 17.1873 56.3785 17.0898 56.4979 16.9643C56.7374 16.6258 56.8484 16.2131 56.8111 15.8002C56.8232 15.2099 56.6728 14.6277 56.3764 14.1171C55.9281 13.4564 55.3846 12.8657 54.7634 12.364C53.9496 11.6959 53.2515 10.8982 52.6971 10.0031C52.2975 9.27274 52.0945 8.45115 52.108 7.61878C52.0487 6.59849 52.3834 5.59439 53.043 4.81373C53.3904 4.4705 53.8069 4.20506 54.2647 4.03499C54.7225 3.86493 55.2112 3.79413 55.6985 3.82729C56.1737 3.79617 56.65 3.86916 57.0941 4.04115C57.5382 4.21314 57.9394 4.48 58.2698 4.82308C58.9063 5.62835 59.2212 6.64129 59.1534 7.66553V8.29667H56.8906V7.51125C56.9242 7.10732 56.8168 6.70421 56.5867 6.37053C56.4766 6.24474 56.3396 6.14537 56.1858 6.07981C56.032 6.01425 55.8655 5.98419 55.6985 5.99185C54.899 5.99185 54.5016 6.45936 54.5016 7.45048C54.5007 7.9964 54.6547 8.53138 54.9458 8.99325C55.4018 9.64794 55.9479 10.235 56.568 10.7371C57.3909 11.3994 58.0905 12.2018 58.6344 13.1073C59.0274 13.8813 59.2218 14.7408 59.2001 15.6085C59.2682 16.6498 58.9335 17.6775 58.2651 18.479C57.9148 18.8272 57.4942 19.0966 57.0314 19.2691C56.5686 19.4416 56.0743 19.5133 55.5816 19.4795C55.0991 19.5162 54.6144 19.4488 54.1603 19.2819C53.7062 19.1149 53.2932 18.8522 52.9495 18.5117Z" fill="#168AFF"/>
<path d="M60.5652 4.05176H62.9589V10.2509H65.5161V4.05176H67.9098V19.2832H65.5161V12.4295H62.9495V19.2832H60.5559L60.5652 4.05176Z" fill="#168AFF"/>
<path d="M35.2637 37.0064C34.6005 36.2131 34.2659 35.1961 34.3287 34.164V26.1603C34.2669 25.1283 34.6013 24.1116 35.2637 23.3178C35.6142 22.9762 36.0338 22.7135 36.4942 22.5474C36.9546 22.3813 37.4452 22.3156 37.9332 22.3547C38.4204 22.3216 38.9091 22.3924 39.3669 22.5624C39.8247 22.7325 40.2412 22.998 40.5886 23.3412C41.2426 24.1384 41.5685 25.1547 41.5002 26.1836V27.488H39.2235V26.006C39.2235 25.0055 38.8121 24.5053 37.9846 24.5053C37.1571 24.5053 36.741 25.0055 36.741 26.006V34.3417C36.741 35.3281 37.1571 35.819 37.9846 35.819C38.8121 35.819 39.2235 35.3515 39.2235 34.3417V31.359H38.0267V29.185H41.4862V34.164C41.5555 35.193 41.2294 36.2097 40.5746 37.0064C40.2292 37.3487 39.8152 37.6139 39.36 37.7848C38.9047 37.9556 38.4184 38.0281 37.9332 37.9976C37.4432 38.0331 36.9513 37.963 36.4908 37.792C36.0302 37.621 35.6118 37.3531 35.2637 37.0064Z" fill="#168AFF"/>
<path d="M44.8803 22.5464H48.1202L50.6026 37.7825H48.2183L47.7836 34.7577V34.7998H45.0533L44.6185 37.7825H42.3979L44.8803 22.5464ZM47.489 32.7287L46.4231 25.2018H46.381L45.3385 32.7287H47.489Z" fill="#168AFF"/>
<path d="M51.7527 22.5464H55.3011C56.5353 22.5464 57.4329 22.8362 57.9986 23.4066C58.5643 23.977 58.8495 24.8606 58.8495 26.0527V26.9877C58.8495 28.5679 58.3274 29.5684 57.2833 29.9891V30.0312C57.5536 30.106 57.8036 30.2406 58.0148 30.4251C58.2261 30.6097 58.3931 30.8393 58.5035 31.0971C58.7674 31.7838 58.8883 32.5172 58.8588 33.2523V35.9124C58.8541 36.2652 58.8697 36.618 58.9056 36.969C58.9343 37.2437 59.0069 37.5121 59.1206 37.7638H56.6849C56.6019 37.5386 56.5439 37.305 56.5119 37.0672C56.472 36.6774 56.4564 36.2855 56.4652 35.8937V33.1074C56.5135 32.5976 56.3954 32.0859 56.1286 31.6488C55.9788 31.4959 55.796 31.3794 55.5942 31.3081C55.3925 31.2368 55.177 31.2126 54.9645 31.2374H54.137V37.7825H51.7433L51.7527 22.5464ZM55.0253 29.0915C55.2202 29.1067 55.4162 29.0818 55.6012 29.0182C55.7861 28.9547 55.9561 28.854 56.1005 28.7222C56.3745 28.3704 56.5033 27.9271 56.4605 27.4833V26.2911C56.4957 25.8707 56.3923 25.4504 56.166 25.0943C56.0503 24.9634 55.9053 24.8617 55.7428 24.7975C55.5803 24.7333 55.4049 24.7085 55.231 24.725H54.1417V29.0728L55.0253 29.0915Z" fill="#168AFF"/>
<path d="M62.3745 22.5464H65.6143L68.0968 37.7825H65.7031L65.2637 34.7577V34.7998H62.5475L62.1127 37.7825H59.906L62.3745 22.5464ZM64.9832 32.7287L63.9173 25.2018H63.8752L62.828 32.7287H64.9832Z" fill="#168AFF"/>
<path d="M69.2562 22.5464H72.2576L74.5952 31.6628H74.6419V22.5464H76.7364V37.7825H74.2773L71.4021 26.6651H71.36V37.7825H69.2562V22.5464Z" fill="#168AFF"/>
<path d="M80.4063 24.725H77.9051V22.5464H85.3058V24.725H82.814V37.7825H80.4203L80.4063 24.725Z" fill="#168AFF"/>
<path d="M24.9551 35.4449C24.5366 35.4416 24.1208 35.377 23.7209 35.2532L12.7392 31.9012C10.3736 31.1766 8.53158 28.6006 8.53158 26.034V4.7343C8.50831 4.11873 8.63036 3.50634 8.88783 2.94672C9.14531 2.3871 9.53097 1.89599 10.0136 1.51317C10.4824 1.18019 11.0239 0.96403 11.5932 0.88271C12.1624 0.80139 12.7429 0.857259 13.2861 1.04566L24.2679 4.3977C26.6335 5.12234 28.4755 7.69831 28.4755 10.2649V31.5646C28.4987 32.1802 28.3767 32.7926 28.1192 33.3522C27.8617 33.9118 27.4761 34.4029 26.9935 34.7857C26.4027 35.2191 25.6878 35.4503 24.9551 35.4449ZM13.2674 30.106L24.2492 33.4674C24.5156 33.5656 24.8014 33.5995 25.0833 33.5662C25.3653 33.5328 25.6353 33.4333 25.8715 33.2757C26.1196 33.0676 26.3147 32.8035 26.4407 32.5052C26.5667 32.2069 26.6199 31.8829 26.5961 31.5599V10.2649C26.5961 8.53515 25.2684 6.66511 23.7022 6.18825L12.7392 2.82687C12.4728 2.72861 12.187 2.69476 11.905 2.72807C11.6231 2.76139 11.353 2.86092 11.1169 3.01855C10.8688 3.22664 10.6737 3.49073 10.5477 3.78905C10.4217 4.08736 10.3684 4.41135 10.3923 4.7343V26.034C10.3923 27.7638 11.72 29.6338 13.2861 30.1107L13.2674 30.106Z" fill="#168AFF"/>
<path d="M21.1964 38.1659C20.7792 38.1648 20.3645 38.1002 19.9668 37.9742L8.98037 34.6175C6.61946 33.8928 4.7728 31.3169 4.7728 28.7502V7.45057C4.74861 6.83534 4.86977 6.22307 5.12644 5.66342C5.38312 5.10377 5.76809 4.61249 6.25013 4.22944C6.71909 3.8968 7.26064 3.68086 7.82982 3.59955C8.39899 3.51824 8.97935 3.57391 9.52268 3.76193L20.5091 7.11864C22.8467 7.84328 24.7167 10.4192 24.7167 12.9859V34.2809C24.7411 34.8966 24.6196 35.5094 24.362 36.0692C24.1044 36.629 23.7182 37.1199 23.2347 37.502C22.6448 37.9377 21.9297 38.1706 21.1964 38.1659ZM8.30716 5.44028C7.97205 5.4362 7.64442 5.53941 7.37215 5.73481C7.12576 5.94411 6.93217 6.20853 6.80708 6.50663C6.68199 6.80474 6.62892 7.12812 6.65218 7.45057V28.7502C6.65218 30.4847 7.97523 32.3501 9.54138 32.8269L20.5278 36.1883C20.7941 36.2857 21.0795 36.3196 21.3611 36.2871C21.6428 36.2546 21.913 36.1568 22.1501 36.0013C22.3963 35.7908 22.5896 35.5255 22.7147 35.2267C22.8397 34.9279 22.8929 34.604 22.87 34.2809V13.0046C22.87 11.2748 21.547 9.40475 19.9808 8.9279L8.98037 5.52444C8.76126 5.4638 8.53447 5.43545 8.30716 5.44028Z" fill="#A9ABAE"/>
<path d="M17.4283 40.8492C17.011 40.8482 16.5964 40.7836 16.1987 40.6576L5.20759 37.3149C2.87005 36.5949 1.00001 34.0423 1.00001 31.4523V10.1339C0.977857 9.52055 1.10048 8.91056 1.35795 8.35338C1.61543 7.79619 2.00051 7.30749 2.48202 6.92684C2.95048 6.59314 3.49208 6.37655 4.06146 6.29521C4.63084 6.21387 5.21142 6.27015 5.75457 6.45933L16.741 9.82071C19.0786 10.5407 20.9486 13.1166 20.9486 15.6833V36.9642C20.9728 37.5795 20.8516 38.1917 20.5949 38.7514C20.3383 39.311 19.9533 39.8023 19.4713 40.1854C18.8793 40.6205 18.1629 40.8533 17.4283 40.8492ZM5.74055 35.515L16.727 38.8717C16.993 38.9706 17.2786 39.0052 17.5605 38.9727C17.8425 38.9402 18.1127 38.8415 18.3492 38.6847C18.5957 38.4744 18.7893 38.2091 18.9144 37.9103C19.0394 37.6114 19.0925 37.2874 19.0692 36.9642V15.6646C19.0692 13.9348 17.7462 12.0694 16.18 11.5879L5.20759 8.23118C4.94173 8.1315 4.65597 8.09647 4.3739 8.12898C4.09183 8.1615 3.82154 8.26062 3.58534 8.41819C3.34009 8.62819 3.14759 8.89286 3.02335 9.19087C2.89911 9.48889 2.8466 9.81192 2.87005 10.1339V31.4383C2.87005 33.1681 4.1931 35.0334 5.75925 35.515H5.74055Z" fill="#168AFF"/>
<path fill-rule="evenodd" clip-rule="evenodd" d="M13.2908 30.1293L19.0926 31.9011V15.6786C19.0926 13.9395 17.7695 12.0694 16.2034 11.6019L10.4016 9.83008V26.0526C10.4016 27.7824 11.7247 29.6478 13.2908 30.1293Z" fill="#A9ABAE"/>
</svg>
