<svg width="20" height="21" viewBox="0 0 20 21" fill="none"
     xmlns="http://www.w3.org/2000/svg">
  <path
    d="M16.9128 3.38477C17.0806 3.41297 17.2498 3.4357 17.4161 3.47022C18.7949 3.75585 19.8578 4.92656 19.9846 6.33448C20.0819 7.41236 19.7156 8.32312 18.9287 9.06634C18.5878 9.38838 18.2602 9.72452 17.9266 10.0543C17.0183 10.9529 16.1156 11.8573 15.1983 12.7464C14.8873 13.0476 14.8838 13.4772 15.2018 13.7873C16.2588 14.814 17.3022 15.8548 18.347 16.8938C18.5798 17.1253 18.7991 17.3703 19.0205 17.6048C19.0128 17.6048 18.9805 17.6092 18.9482 17.6092C17.7775 17.6092 16.6071 17.6109 15.4365 17.6071C15.3725 17.6049 15.3113 17.58 15.2637 17.537C14.5017 16.7892 13.7483 16.0327 12.9822 15.2893C12.6563 14.9736 12.3619 14.6385 12.2091 14.2049C11.844 13.1697 12.0204 12.231 12.7872 11.4459C13.7184 10.4913 14.6797 9.56645 15.629 8.62959C16.1347 8.1306 16.6413 7.63246 17.1487 7.13516C17.3431 6.94425 17.4154 6.71419 17.3314 6.4534C17.2473 6.19261 17.0558 6.04422 16.7885 6.00234C16.6948 5.98611 16.5985 5.99236 16.5076 6.02056C16.4168 6.04876 16.3338 6.09812 16.2656 6.16462C16.0349 6.37994 15.8139 6.6039 15.5902 6.82554C14.857 7.55198 14.1237 8.27913 13.3902 9.00698C12.507 9.88119 11.6234 10.7549 10.7392 11.6281C9.86306 12.4942 8.98673 13.3603 8.11027 14.2265C7.28092 15.0456 6.45143 15.8645 5.6218 16.6831C4.34925 17.9351 2.23296 17.9218 0.971526 16.6566C-0.321148 15.3598 -0.325552 13.3324 0.96859 12.0407C1.92263 11.0876 2.88527 10.1436 3.84288 9.19642C4.17837 8.86428 4.51679 8.53382 4.85165 8.20041C5.12884 7.92405 5.13073 7.53907 4.85395 7.2646C3.67304 6.09404 2.49142 4.92424 1.30911 3.75522C1.18812 3.63524 1.07364 3.50853 0.95622 3.38498H4.68852C4.71808 3.41907 4.74534 3.45549 4.77721 3.48706C5.58657 4.2869 6.39971 5.08168 7.2053 5.88489C8.24049 6.91731 8.24112 8.54413 7.20803 9.57676C6.5272 10.257 5.83945 10.9306 5.15463 11.6069C4.80363 11.9536 4.45228 12.3001 4.10057 12.6465C3.67283 13.0702 3.24382 13.4926 2.82006 13.9203C2.63701 14.1049 2.60346 14.3987 2.72235 14.6343C2.78405 14.7511 2.87848 14.8472 2.994 14.9108C3.10951 14.9744 3.24104 15.0027 3.37236 14.9921C3.5921 14.971 3.74118 14.8399 3.88712 14.6957C4.75855 13.8347 5.63026 12.974 6.50224 12.1137L9.14022 9.50983C10.0168 8.64432 10.8936 7.77888 11.7704 6.91352C12.6148 6.07979 13.4615 5.24859 14.3017 4.41066C14.7886 3.92529 15.3585 3.59967 16.0318 3.46096C16.1846 3.4296 16.34 3.41023 16.4943 3.38519L16.9128 3.38477Z"
    fill="url(#paint0_linear_3321_1008)"/>
  <defs>
    <linearGradient id="paint0_linear_3321_1008" x1="17.6473" y1="2.69272"
                    x2="-0.931939" y2="14.41" gradientUnits="userSpaceOnUse">
      <stop stop-color="#00B2FF"/>
      <stop offset="1" stop-color="#7100F8"/>
    </linearGradient>
  </defs>
</svg>
