<svg width="121" height="26" viewBox="0 0 121 26" fill="none" xmlns="http://www.w3.org/2000/svg">
  <path d="M29.5765 0.414062C29.8673 0.462969 30.1608 0.502386 30.4491 0.562242C32.84 1.05751 34.683 3.08749 34.9029 5.5288C35.0716 7.39783 34.4365 8.97707 33.0719 10.2658C32.4808 10.8242 31.9128 11.4071 31.3344 11.979C29.7594 13.537 28.1942 15.1053 26.6035 16.647C26.0643 17.1693 26.0581 17.9142 26.6097 18.4518C28.4425 20.2321 30.2517 22.0369 32.0634 23.8384C32.4669 24.2399 32.8472 24.6647 33.2312 25.0713C33.2177 25.0713 33.1617 25.079 33.1058 25.079C31.0759 25.079 29.0464 25.0819 27.0165 25.0753C26.9055 25.0714 26.7995 25.0284 26.7169 24.9538C25.3957 23.657 24.0893 22.3453 22.7608 21.0562C22.1958 20.5088 21.6854 19.9277 21.4203 19.1759C20.7873 17.3809 21.0931 15.7532 22.4227 14.3918C24.0373 12.7367 25.7044 11.133 27.3503 9.50847C28.2272 8.64324 29.1056 7.77947 29.9855 6.91716C30.3225 6.58613 30.448 6.18721 30.3022 5.73501C30.1564 5.28281 29.8244 5.0255 29.3609 4.95287C29.1983 4.92474 29.0315 4.93557 28.8739 4.98447C28.7163 5.03337 28.5725 5.11896 28.4541 5.23427C28.0542 5.60763 27.671 5.99597 27.283 6.38028C26.0117 7.63993 24.7401 8.90079 23.4683 10.1629C21.9369 11.6787 20.4047 13.1937 18.8716 14.7079C17.3523 16.2096 15.8328 17.7115 14.313 19.2135C12.875 20.6337 11.4366 22.0536 9.99808 23.4731C7.79151 25.6439 4.1219 25.6209 1.93461 23.4271C-0.306864 21.1785 -0.3145 17.6631 1.92951 15.4232C3.5838 13.7706 5.253 12.1337 6.91347 10.4913C7.4952 9.91541 8.08201 9.34241 8.66265 8.76429C9.1433 8.28508 9.14657 7.61754 8.66665 7.14162C6.61897 5.11188 4.57007 3.08348 2.51997 1.05642C2.31018 0.848381 2.11167 0.628667 1.90806 0.414428H8.37978C8.43105 0.473553 8.47831 0.536694 8.53358 0.59144C9.937 1.97834 11.347 3.35648 12.7438 4.74922C14.5388 6.53941 14.5399 9.36029 12.7486 11.1508C11.568 12.3304 10.3755 13.4984 9.18802 14.671C8.57939 15.2722 7.97015 15.8731 7.3603 16.4736C6.6186 17.2083 5.87472 17.9408 5.13993 18.6824C4.82252 19.0025 4.76435 19.512 4.9705 19.9204C5.07748 20.123 5.24123 20.2898 5.44153 20.4C5.64182 20.5103 5.86989 20.5592 6.09759 20.5409C6.47863 20.5044 6.73713 20.277 6.99018 20.027C8.50122 18.534 10.0127 17.0416 11.5248 15.5499L16.0989 11.0348C17.619 9.53402 19.1392 8.03337 20.6597 6.53284C22.1238 5.08718 23.592 3.6459 25.0488 2.19294C25.8931 1.35131 26.8813 0.7867 28.0487 0.546183C28.3138 0.491802 28.5832 0.458224 28.8508 0.414792L29.5765 0.414062Z" fill="url(#paint0_linear_3321_17960)"/>
  <path d="M103.775 14.3136C103.741 16.8925 102.989 18.9258 101.398 20.6035C100.206 21.8612 98.7294 22.6609 97.0293 22.985C94.0934 23.546 91.4997 22.8142 89.3215 20.7539C88.1216 19.6199 87.3683 18.1958 87.0309 16.5826C86.3645 13.4103 87.1451 10.6266 89.4174 8.30977C90.7416 6.95937 92.3763 6.1995 94.2581 6.00387C96.0855 5.81372 97.8409 6.0619 99.4471 7.0028C101.715 8.33204 103.085 10.3215 103.603 12.8979C103.714 13.4486 103.74 14.0165 103.775 14.3136ZM100.597 14.5114C100.567 14.2453 100.549 13.8858 100.484 13.5351C100.277 12.4135 99.7489 11.4599 98.944 10.658C97.791 9.50908 96.3989 8.99191 94.7864 9.13644C93.3525 9.26491 92.1861 9.9361 91.2659 11.0379C90.2973 12.1989 89.8897 13.5417 90.0003 15.049C90.0981 16.3841 90.582 17.5575 91.5135 18.5163C92.6271 19.6604 94.0109 20.1444 95.5932 20.0678C96.584 20.0199 97.5024 19.7258 98.3095 19.1473C99.8565 18.037 100.532 16.4753 100.597 14.5114Z" fill="#0A0A0A"/>
  <path d="M69.3202 11.0912C69.3202 12.5325 69.3413 13.9745 69.3137 15.4147C69.2904 16.602 69.1628 17.7838 68.7548 18.909C68.0539 20.8433 66.7264 22.1601 64.7707 22.7839C62.8714 23.3897 60.9604 23.3646 59.0909 22.6503C57.1247 21.8996 55.8936 20.4535 55.318 18.4374C55.0417 17.4688 54.9323 16.4713 54.9057 15.4669C54.8814 14.5311 54.8774 13.5946 54.8752 12.6584C54.8712 10.6274 54.8752 8.59591 54.8701 6.56338C54.8701 6.38563 54.921 6.33819 55.0944 6.33965C56.0092 6.34768 56.9241 6.34768 57.8391 6.33965C58.0078 6.33965 58.0529 6.3922 58.0525 6.55863C58.0478 9.11928 58.0576 11.6796 58.0449 14.2399C58.0398 15.2271 58.0881 16.2071 58.255 17.1805C58.4164 18.1239 58.9233 18.8338 59.7024 19.3597C61.1462 20.3342 63.5011 20.278 64.8289 19.1239C65.5139 18.5276 65.9069 17.7805 66.0029 16.8724C66.1283 15.6848 66.1174 14.4939 66.1156 13.3022C66.112 11.0394 66.1156 8.77657 66.112 6.51374C66.112 6.39074 66.1483 6.34038 66.2763 6.34074C67.2398 6.34439 68.2033 6.34585 69.1664 6.34074C69.3304 6.34074 69.3351 6.42505 69.3347 6.54695C69.333 8.06135 69.333 9.57562 69.3347 11.0898L69.3202 11.0912Z" fill="#0A0A0A"/>
  <path d="M105.785 18.2648C105.785 16.86 105.767 15.4545 105.791 14.0501C105.811 12.8333 105.911 11.6186 106.295 10.4536C107.012 8.27985 108.494 6.89879 110.679 6.26519C111.694 5.97102 112.731 5.93891 113.775 6.00168C114.85 6.06025 115.897 6.36287 116.838 6.88674C118.394 7.75355 119.361 9.0879 119.82 10.8C120.119 11.9164 120.223 13.0603 120.229 14.2114C120.244 16.9783 120.244 19.7451 120.25 22.5123C120.25 22.7821 120.25 22.7824 119.986 22.7824C119.083 22.7824 118.18 22.7791 117.277 22.7857C117.122 22.7857 117.07 22.7492 117.07 22.5832C117.075 20.0528 117.064 17.5228 117.079 14.9917C117.084 13.9796 117.031 12.976 116.864 11.9781C116.714 11.0847 116.246 10.3919 115.521 9.87003C114.145 8.87658 111.999 8.86636 110.643 9.77368C109.768 10.3576 109.23 11.169 109.135 12.231C109.062 13.023 109.009 13.819 109.004 14.6136C108.988 17.2531 108.998 19.8929 108.998 22.5335C108.998 22.7817 108.998 22.7824 108.752 22.7824C107.831 22.7824 106.91 22.7788 105.989 22.7857C105.823 22.7857 105.773 22.7397 105.774 22.5711C105.78 21.1357 105.777 19.7002 105.777 18.2644L105.785 18.2648Z" fill="#0A0A0A"/>
  <path d="M87.0753 22.7824H86.8367C85.6857 22.7824 84.5346 22.7799 83.3827 22.7853C83.321 22.7896 83.2592 22.7768 83.2041 22.7485C83.1491 22.7201 83.1027 22.6772 83.0701 22.6244C81.7238 20.7509 80.375 18.8788 79.0234 17.0082C78.9871 16.9596 78.9507 16.9137 78.9016 16.8498C78.8485 16.9199 78.8045 16.9753 78.7635 17.0323C77.4442 18.8734 76.1261 20.7153 74.8092 22.558C74.6914 22.7233 74.5699 22.7894 74.3649 22.7875C73.2683 22.7769 72.1718 22.7824 71.0752 22.7824H70.8178C70.8803 22.6857 70.9189 22.6207 70.9632 22.5598C72.9239 19.8193 74.8861 17.0798 76.8499 14.3413C76.947 14.2059 76.9536 14.1242 76.8499 13.9836C75.0551 11.5052 73.2644 9.02342 71.478 6.53819C71.4417 6.49038 71.4137 6.43965 71.3621 6.35936C71.462 6.35315 71.5311 6.34476 71.6002 6.34476C72.7273 6.34476 73.8544 6.34731 74.9815 6.34074C75.1382 6.34074 75.2338 6.38819 75.3258 6.51629C76.4711 8.10831 77.62 9.69777 78.7726 11.2847C78.8089 11.3369 78.8507 11.3876 78.9038 11.4577C79.1849 11.0661 79.4535 10.6912 79.7215 10.3182C80.6338 9.04495 81.5455 7.77107 82.4563 6.49659C82.524 6.40242 82.5898 6.34111 82.7192 6.34147C83.8943 6.34622 85.0698 6.34403 86.2459 6.34476C86.2867 6.34476 86.3277 6.35242 86.3994 6.35972C86.3597 6.42578 86.3339 6.47651 86.3008 6.5225C84.5355 8.98437 82.7699 11.4466 81.0038 13.9092C80.7977 14.1972 80.8039 14.0961 81.0086 14.3796C82.9857 17.1157 84.9638 19.8518 86.9429 22.5879C86.9778 22.635 87.0098 22.6857 87.0753 22.7824Z" fill="#0A0A0A"/>
  <path d="M40.6294 22.8014V4.01367H43.8038V19.6199H53.2645C53.27 19.701 53.2787 19.7659 53.2787 19.8305C53.2787 20.755 53.2765 21.6798 53.282 22.6043C53.282 22.7572 53.2485 22.8145 53.0816 22.8142C48.9914 22.8096 44.9011 22.8082 40.8108 22.8102C40.7577 22.8102 40.7039 22.8069 40.6294 22.8014Z" fill="#0A0A0A"/>
  <defs>
    <linearGradient id="paint0_linear_3321_17960" x1="30.85" y1="-0.785938" x2="-1.36596" y2="19.5316" gradientUnits="userSpaceOnUse">
      <stop stop-color="#00B2FF"/>
      <stop offset="1" stop-color="#7100F8"/>
    </linearGradient>
  </defs>
</svg>
