<svg width="94" height="20" viewBox="0 0 94 20" fill="none" xmlns="http://www.w3.org/2000/svg">
<path d="M16.2585 10.0329C16.2587 9.35855 16.3244 8.68574 16.4548 8.02349H11.4184L8.35256 11.8902H13.22C13.3277 11.8942 13.435 11.9036 13.5417 11.9185C13.9877 11.967 14.3996 12.174 14.6988 12.4998C14.998 12.8257 15.1634 13.2477 15.1634 13.6849C15.1634 14.1222 14.998 14.5441 14.6988 14.87C14.3996 15.1959 13.9877 15.4029 13.5417 15.4514H10.6463C7.51933 15.4514 4.97623 13.0595 4.97623 10.0125C4.97637 9.61613 5.02059 9.22093 5.10813 8.83383C5.26885 8.1658 5.5382 7.52711 5.90597 6.94199C6.41631 6.17494 7.11652 5.54536 7.94211 5.11121C8.7677 4.67707 9.69213 4.45232 10.6302 4.45767H13.8892H16.2151L19.2906 0.5H10.4517C7.88834 0.533301 5.44162 1.54923 3.64146 3.32777C1.8413 5.1063 0.832625 7.50425 0.833894 10.0023C0.835163 12.5003 1.84627 14.8972 3.64824 16.674C5.4502 18.4508 7.89795 19.4644 10.4614 19.4952H17.0564C17.3215 19.4963 17.5843 19.4463 17.8296 19.3483C18.075 19.2503 18.2981 19.1061 18.4862 18.924C18.6743 18.7419 18.8237 18.5254 18.9258 18.287C19.028 18.0485 19.0809 17.7928 19.0815 17.5344V17.1927C17.2649 15.228 16.2592 12.6774 16.2585 10.0329Z" fill="black"/>
<path d="M33.6662 4.43886L36.732 0.5H27.3784C25.8406 0.501255 24.3252 0.85913 22.9574 1.54404C21.5897 2.22895 20.4089 3.22123 19.5126 4.43886H33.6662Z" fill="#CB171F"/>
<path d="M33.9766 8.02343H28.1666L25.1103 11.8949H30.1483C30.256 11.8988 30.3633 11.9082 30.47 11.9231C30.916 11.9716 31.3279 12.1786 31.6271 12.5045C31.9263 12.8304 32.0917 13.2523 32.0917 13.6896C32.0917 14.1268 31.9263 14.5487 31.6271 14.8746C31.3279 15.2005 30.916 15.4075 30.47 15.456H27.5746C24.4476 15.456 21.9045 13.0642 21.9045 10.0172C21.9046 9.62077 21.9489 9.22557 22.0364 8.83848C22.1083 8.5376 22.2024 8.24216 22.3179 7.95447H17.8992C17.5861 9.33994 17.5952 10.7762 17.9261 12.1577C18.257 13.5393 18.9011 14.8311 19.8113 15.9384C20.7215 17.0457 21.8746 17.9403 23.186 18.5566C24.4974 19.1729 25.9337 19.4952 27.3896 19.4999H33.9846C34.2505 19.502 34.5141 19.4528 34.7604 19.3552C35.0067 19.2577 35.2307 19.1136 35.4197 18.9314C35.6086 18.7492 35.7587 18.5324 35.8614 18.2934C35.964 18.0545 36.0172 17.7981 36.0178 17.5391V10.0156C36.017 9.48803 35.8018 8.98227 35.4192 8.60894C35.0367 8.23561 34.518 8.02509 33.9766 8.02343Z" fill="black"/>
<path d="M70.6964 14.0517C70.6993 15.2512 71.1888 16.401 72.0581 17.2504C72.9274 18.0998 74.106 18.5799 75.337 18.5861H80.9138V16.4984H75.337C74.8538 16.4988 74.3807 16.3637 73.9742 16.1091C73.5677 15.8545 73.2451 15.4912 73.0449 15.0626H80.9138V12.9749H73.0674C73.2809 12.5661 73.6055 12.2223 74.0056 11.9807C74.4058 11.7392 74.8663 11.6092 75.337 11.605H80.9138V9.51721H75.337C74.106 9.52341 72.9274 10.0035 72.0581 10.8529C71.1888 11.7023 70.6993 12.8521 70.6964 14.0517Z" fill="black"/>
<path d="M55.3863 9.22095C54.3682 9.22095 53.3731 9.51511 52.5266 10.0662C51.6801 10.6174 51.0204 11.4007 50.6308 12.3172C50.2412 13.2337 50.1392 14.2422 50.3379 15.2151C50.5365 16.1881 51.0267 17.0818 51.7466 17.7832C52.4664 18.4847 53.3836 18.9624 54.3821 19.1559C55.3806 19.3494 56.4155 19.2501 57.3561 18.8705C58.2966 18.4908 59.1005 17.848 59.6661 17.0232C60.2317 16.1983 60.5336 15.2286 60.5336 14.2366C60.5336 12.9064 59.9913 11.6306 59.026 10.69C58.0607 9.74938 56.7514 9.22095 55.3863 9.22095ZM55.3863 17.4592C54.7321 17.4592 54.0926 17.2701 53.5488 16.916C53.0049 16.5618 52.581 16.0584 52.3307 15.4695C52.0804 14.8805 52.0151 14.2325 52.1428 13.6073C52.2705 12.9822 52.5857 12.408 53.0483 11.9574C53.511 11.5067 54.1004 11.1999 54.7421 11.0758C55.3837 10.9516 56.0487 11.0157 56.653 11.2598C57.2573 11.5039 57.7737 11.9172 58.1369 12.4474C58.5001 12.9775 58.6938 13.6007 58.6934 14.2382C58.6922 15.0923 58.3433 15.9111 57.7233 16.5149C57.1033 17.1188 56.2629 17.4583 55.3863 17.4592Z" fill="black"/>
<path d="M92.6111 12.8338C92.6111 11.0235 91.1184 9.51721 89.2847 9.51721H82.0462V18.5861H83.9878V11.3448H89.2782C90.068 11.3448 90.7356 12.0611 90.7356 12.8761C90.7356 13.6912 90.0616 14.4106 89.2638 14.4106H86.0676C85.8815 14.4206 85.7064 14.4995 85.5781 14.6313C85.4498 14.763 85.3781 14.9375 85.3775 15.1191C85.3722 15.2292 85.3961 15.3388 85.4468 15.4373C85.4975 15.5359 85.5733 15.6201 85.6671 15.6818L89.9506 18.5799H93.0953L89.3957 16.1363C91.2471 16.1426 92.6111 14.6442 92.6111 12.8338Z" fill="black"/>
<path d="M46.1436 16.1739C47.9854 16.1739 49.3607 14.663 49.3607 12.8511C49.3607 11.0392 47.8744 9.51721 46.0358 9.51721H38.7974V18.5861H40.7389V11.3448H46.0294C46.8192 11.3448 47.4867 12.0611 47.4867 12.8761C47.4867 13.6912 46.8128 14.4106 46.0149 14.4106H41.6719V16.1739H46.1436Z" fill="black"/>
<path d="M63.5078 9.51721H61.5663V18.5846H63.5078V9.51721Z" fill="black"/>
<path d="M71.8079 18.525H68.9286L64.3829 14.8934C64.2511 14.7861 64.146 14.6511 64.0755 14.4985C64.005 14.3459 63.971 14.1797 63.9759 14.0125C63.9798 13.8399 64.019 13.6698 64.0911 13.5121C64.1631 13.3544 64.2667 13.2123 64.3957 13.094L68.8884 9.51721H71.8079L66.6316 13.6661C66.5364 13.76 66.4832 13.8868 66.4836 14.0188C66.4835 14.0827 66.4965 14.146 66.5219 14.205C66.5473 14.264 66.5846 14.3174 66.6316 14.362L71.8079 18.525Z" fill="black"/>
</svg>
