<svg width="150" height="21" viewBox="0 0 150 21" fill="none" xmlns="http://www.w3.org/2000/svg">
  <g clip-path="url(#clip0_5391_36720)">
    <path d="M118.116 0.00684627C120.11 0.00970197 122.059 0.605074 123.714 1.71738C125.369 2.82969 126.657 4.40879 127.413 6.25416C128.169 8.09953 128.36 10.1279 127.961 12.0819C127.562 14.0359 126.592 15.8273 125.173 17.2287C123.754 18.6301 121.95 19.5783 119.992 19.9529C118.033 20.3274 116.007 20.1116 114.171 19.3326C112.335 18.5536 110.772 17.2467 109.681 15.5778C108.589 13.9088 108.018 11.9531 108.04 9.95898C108.069 7.30701 109.144 4.77376 111.031 2.91009C112.918 1.04642 115.464 0.00304856 118.116 0.00684627ZM118.116 10.4421C117.275 11.3063 116.576 12.2987 116.046 13.3822C115.927 13.6763 115.873 13.9922 115.887 14.3089C115.9 14.6256 115.98 14.9359 116.122 15.2191C116.265 15.5024 116.466 15.7521 116.712 15.9518C116.958 16.1515 117.244 16.2966 117.55 16.3775C117.952 16.4714 118.372 16.4522 118.764 16.322C119.156 16.1919 119.504 15.9557 119.77 15.6399C120.036 15.324 120.209 14.9408 120.27 14.5325C120.332 14.1243 120.279 13.707 120.118 13.327C119.607 12.2656 118.932 11.2919 118.116 10.4421ZM118.116 9.73812C118.947 8.86915 119.632 7.8717 120.145 6.78425C120.336 6.3367 120.372 5.83813 120.247 5.36791C120.122 4.89768 119.843 4.4828 119.455 4.18923C119.081 3.87829 118.61 3.70805 118.123 3.70805C117.636 3.70805 117.165 3.87829 116.791 4.18923C116.406 4.48246 116.127 4.89253 115.995 5.35792C115.863 5.82332 115.886 6.31895 116.059 6.77043C116.582 7.85973 117.271 8.86095 118.102 9.73812H118.116ZM117.799 10.0832C116.953 9.16022 115.948 8.39794 114.831 7.83327C114.543 7.72034 114.229 7.68642 113.924 7.73495C113.618 7.78348 113.331 7.91271 113.092 8.10935C112.831 8.30939 112.612 8.55921 112.449 8.84429C112.285 9.12937 112.18 9.44405 112.139 9.77014C112.098 10.0962 112.122 10.4272 112.21 10.744C112.297 11.0607 112.447 11.3569 112.65 11.6154C112.902 11.9709 113.268 12.2292 113.688 12.3473C114.107 12.4654 114.555 12.436 114.955 12.2641C116.012 11.6857 116.976 10.9504 117.812 10.0832H117.799ZM118.42 10.0832C118.779 10.4007 119.082 10.7181 119.427 10.9804C119.983 11.4224 120.564 11.8325 121.167 12.2089C121.435 12.3781 121.746 12.4678 122.064 12.4678C122.381 12.4678 122.692 12.3781 122.961 12.2089C123.306 11.9845 123.589 11.6776 123.785 11.316C123.981 10.9545 124.083 10.5497 124.083 10.1384C124.083 9.72716 123.981 9.3224 123.785 8.96085C123.589 8.59929 123.306 8.29237 122.961 8.06794C122.728 7.90655 122.459 7.80456 122.177 7.77088C121.896 7.7372 121.611 7.77283 121.346 7.87468C120.246 8.43539 119.251 9.18264 118.406 10.0832H118.42ZM115.742 19.1105C117.29 19.5456 118.928 19.5456 120.476 19.1105L120.2 18.0615C118.842 18.4121 117.417 18.4121 116.059 18.0615L115.742 19.1105ZM111.601 3.38862C110.444 4.52022 109.631 5.95571 109.254 7.52959L110.234 7.79186C110.66 6.41235 111.386 5.14427 112.36 4.07878L111.601 3.38862ZM110.221 12.1813L109.241 12.4574C109.603 14.0307 110.407 15.4675 111.56 16.5983L112.332 15.8944C111.357 14.8356 110.623 13.5783 110.179 12.2089L110.221 12.1813ZM126.039 12.1813C125.674 13.5782 124.962 14.8601 123.969 15.9082L124.755 16.626C125.866 15.4663 126.66 14.0402 127.061 12.485L126.039 12.1813ZM124.01 4.14782C124.977 5.19238 125.674 6.45764 126.039 7.83327L127.061 7.55723C126.644 5.99939 125.836 4.5739 124.714 3.41625L124.01 4.14782ZM120.504 0.904049C118.96 0.475827 117.328 0.475827 115.783 0.904049L116.059 1.93929C117.417 1.58864 118.842 1.58864 120.2 1.93929L120.504 0.904049Z" fill="#0A0A0A"/>
    <path d="M14.9213 4.42408H4.62409V19.8147H0V0.393555H19.4074V19.8423H14.9213V4.42408Z" fill="#0A0A0A"/>
    <path d="M70.3709 8.16465H79.7433V11.9191H70.3709V16.0601H83.1665V19.7594H66.2852V0.407227H83.2079V4.00986H70.3709V8.16465Z" fill="#0A0A0A"/>
    <path d="M90.2058 4.34107V19.7731H85.8164V0.310547H90.4681C93.2287 0.310547 95.9894 0.310547 98.75 0.310547C100.588 0.393099 102.32 1.19477 103.572 2.54267C104.825 3.89057 105.497 5.6767 105.445 7.51585C105.48 8.44401 105.327 9.36972 104.996 10.2376C104.665 11.1054 104.163 11.8975 103.518 12.5665C102.874 13.2354 102.101 13.7673 101.246 14.1304C100.391 14.4936 99.4718 14.6804 98.543 14.6797H91.034V10.8286H98.1979C98.8032 10.9077 99.4178 10.7909 99.9519 10.4953C100.486 10.1997 100.911 9.7409 101.166 9.18603C101.494 8.60249 101.639 7.93389 101.582 7.26689C101.525 6.5999 101.27 5.96528 100.848 5.44536C100.428 4.87701 99.8051 4.49165 99.1089 4.36871C96.3207 4.28589 93.4082 4.34107 90.2058 4.34107Z" fill="#0A0A0A"/>
    <path d="M41.7272 10.0972C41.7217 12.0508 41.1374 13.9588 40.0482 15.5805C38.9589 17.2021 37.4134 18.4646 35.6071 19.2084C33.8007 19.9522 31.8144 20.1439 29.8991 19.7595C27.9837 19.375 26.2253 18.4316 24.8459 17.0483C23.4665 15.6651 22.5279 13.904 22.1488 11.9876C21.7697 10.0712 21.967 8.08547 22.7159 6.28118C23.4647 4.47688 24.7315 2.93497 26.3561 1.85022C27.9808 0.765462 29.8905 0.186531 31.844 0.186523C34.4655 0.201077 36.975 1.25077 38.8261 3.10704C40.6772 4.9633 41.7199 7.47576 41.7272 10.0972ZM38.0969 10.2077C38.1153 9.3786 37.9679 8.55424 37.6633 7.78295C37.3586 7.01166 36.903 6.30902 36.3231 5.71625C35.7432 5.12348 35.0507 4.65252 34.2863 4.33108C33.5218 4.00963 32.7009 3.84417 31.8716 3.84438C30.2579 3.88859 28.7234 4.55387 27.5881 5.70159C26.4528 6.84931 25.8042 8.39092 25.7775 10.0051C25.7508 11.6192 26.348 13.1814 27.4448 14.3661C28.5415 15.5507 30.0532 16.2664 31.6646 16.3639C32.4941 16.3935 33.321 16.2565 34.0967 15.961C34.8723 15.6656 35.5808 15.2177 36.1805 14.6438C36.7801 14.0699 37.2586 13.3817 37.5878 12.6197C37.9169 11.8578 38.0901 11.0376 38.0969 10.2077Z" fill="#0A0A0A"/>
    <path d="M63.3022 0.379883C63.3022 0.379883 58.0017 5.9702 55.2963 8.66184C54.2334 9.73849 54.2058 10.4839 55.2963 11.5191L63.5782 19.8011H58.4572L51.0863 12.444C50.7248 12.1612 50.4324 11.7998 50.2314 11.3873C50.0303 10.9747 49.9258 10.5218 49.9258 10.0629C49.9258 9.60394 50.0303 9.15101 50.2314 8.73846C50.4324 8.32591 50.7248 7.96457 51.0863 7.68182C53.35 5.43189 58.6367 0.379883 58.6367 0.379883H63.3022Z" fill="#0A0A0A"/>
    <path d="M48.6991 19.8285H44.4062V0.393555H48.6991V19.8285Z" fill="#0A0A0A"/>
    <path d="M149.695 0.379883C149.695 0.379883 144.395 5.9702 141.703 8.66184C140.626 9.73849 140.599 10.4839 141.703 11.5191L149.985 19.8011H144.809L137.438 12.444C137.076 12.1612 136.784 11.7998 136.583 11.3873C136.382 10.9747 136.277 10.5218 136.277 10.0629C136.277 9.60394 136.382 9.15101 136.583 8.73846C136.784 8.32591 137.076 7.96457 137.438 7.68182C139.688 5.43189 144.974 0.379883 144.974 0.379883H149.695Z" fill="#0A0A0A"/>
    <path d="M135.094 19.8285H130.801V0.393555H135.094V19.8285Z" fill="#0A0A0A"/>
  </g>
  <defs>
    <clipPath id="clip0_5391_36720">
      <rect width="150" height="20.1113" fill="white" transform="translate(0 0.00683594)"/>
    </clipPath>
  </defs>
</svg>
