<svg width="109" height="18" viewBox="0 0 109 18" fill="none" xmlns="http://www.w3.org/2000/svg">
<path fill-rule="evenodd" clip-rule="evenodd" d="M13.4179 6.3064C13.4179 8.92723 11.3066 10.2376 8.13981 10.2376H3.48055V13.6229H0.0953064V2.33875H8.13981C11.3066 2.33875 13.4179 3.72196 13.4179 6.3064ZM9.99623 6.3792C9.99623 5.21438 9.12262 4.85038 7.88501 4.85038H3.48055V7.87162H7.88501C9.12262 7.87162 9.99623 7.50761 9.99623 6.3792Z" fill="black"/>
<path fill-rule="evenodd" clip-rule="evenodd" d="M14.4735 9.18208C14.4735 6.16084 16.7667 4.34082 20.4796 4.34082C24.1924 4.34082 26.4856 6.16084 26.4856 9.18208C26.4856 12.2033 24.156 14.0597 20.4796 14.0597C16.8031 14.0597 14.4735 12.1669 14.4735 9.18208ZM23.3552 9.18208C23.3552 7.61686 22.154 6.81605 20.4796 6.81605C18.8051 6.81605 17.6039 7.58046 17.6039 9.18208C17.6039 10.7837 18.8051 11.5845 20.4796 11.5845C22.154 11.5845 23.3552 10.7473 23.3552 9.18208Z" fill="black"/>
<path d="M33.3289 10.0193L31.5453 11.6209V13.6593H28.2329V1.68359H31.5089V8.63608L35.7314 4.70483H39.4078L35.5858 8.30848L39.6262 13.6229H36.1318L33.3289 10.0193Z" fill="black"/>
<path fill-rule="evenodd" clip-rule="evenodd" d="M45.9963 11.7665C46.2875 11.7665 46.5787 11.7544 46.8699 11.7301C47.1611 11.6816 47.4402 11.6209 47.7071 11.5481C47.9983 11.451 48.2653 11.3418 48.5079 11.2205C48.7749 11.0749 49.0175 10.9172 49.2359 10.7473L50.9104 12.4217C49.6364 13.5501 47.9255 14.0233 45.8507 14.0233C41.9558 14.0233 39.6626 12.1669 39.6626 9.18208C39.6626 6.16084 41.8831 4.34082 45.5595 4.34082C48.9083 4.34082 51.238 5.94244 51.238 9.10928C51.238 9.18208 51.238 9.24275 51.238 9.29128C51.238 9.36408 51.238 9.42475 51.238 9.47329C51.238 9.54609 51.2258 9.61889 51.2016 9.69169C51.2016 9.74022 51.1894 9.80089 51.1652 9.87369H42.7567C43.0115 11.2205 44.1035 11.7665 45.9963 11.7665ZM42.8295 8.16287L48.2167 8.12647C47.8891 7.07086 46.9791 6.56125 45.5959 6.56125C44.2127 6.56125 43.1935 7.07086 42.8295 8.16287Z" fill="black"/>
<path d="M52.9488 13.6228V4.70473H56.2248V6.37915C56.9892 5.10514 58.4453 4.48633 60.0833 4.48633V7.14356C58.1177 7.14356 56.698 7.87157 56.2248 9.36399V13.6592L52.9488 13.6228Z" fill="black"/>
<path d="M73.2238 13.6229L69.329 8.78163L66.7446 11.0021V13.6229H63.3593V2.33875H66.7446V7.58041L72.6778 2.33875H76.9003L71.7314 6.8524L77.1915 13.6229H73.2238Z" fill="#ED1C24"/>
<path d="M79.8487 3.79478C78.7931 3.79478 77.9559 3.13957 77.9559 2.30236C77.9559 1.46514 78.7931 0.809937 79.8487 0.809937C80.868 0.809937 81.7416 1.46514 81.7416 2.30236C81.7416 3.13957 80.868 3.79478 79.8487 3.79478ZM81.5232 13.6593H78.2107V4.70479H81.5232V13.6229V13.6593Z" fill="#ED1C24"/>
<path d="M83.78 13.6229V4.7048H87.056V6.12442C87.8568 4.99601 89.2036 4.3772 90.8417 4.3772C93.5353 4.3772 94.9549 6.01522 94.9549 8.34485V13.6593H91.6789V8.59965C91.6789 7.43484 91.0237 6.74323 89.7861 6.74323C89.4949 6.74323 89.2158 6.77963 88.9488 6.85243C88.6819 6.92523 88.4271 7.03443 88.1844 7.18003C87.9418 7.32564 87.7234 7.4955 87.5292 7.68964C87.3351 7.88378 87.1774 8.10218 87.056 8.34485V13.6593H83.78V13.6229Z" fill="#ED1C24"/>
<path fill-rule="evenodd" clip-rule="evenodd" d="M108.569 12.0576C108.569 15.9889 105.329 17.1901 102.453 17.1901C100.779 17.1901 98.6678 16.7897 97.503 16.1709L98.3766 14.0597C98.6678 14.2053 98.959 14.3266 99.2502 14.4237C99.5414 14.545 99.8447 14.6421 100.16 14.7149C100.476 14.7877 100.791 14.8362 101.107 14.8605C101.422 14.8847 101.738 14.8969 102.053 14.8969C104.273 14.8969 105.293 14.0597 105.293 12.64V11.9484C105.05 12.2154 104.783 12.4459 104.492 12.64C104.201 12.8585 103.897 13.0405 103.582 13.1861C103.242 13.3317 102.902 13.4287 102.563 13.4773C102.199 13.5501 101.835 13.5743 101.471 13.5501C98.5586 13.5501 96.6294 11.8392 96.6294 8.9636C96.6294 6.12436 98.5222 4.37714 101.471 4.37714C101.835 4.35288 102.186 4.37714 102.526 4.44994C102.89 4.52274 103.242 4.61981 103.582 4.74115C103.897 4.88675 104.201 5.06875 104.492 5.28715C104.783 5.50556 105.038 5.74823 105.256 6.01516V4.70475H108.569V12.0576ZM105.293 9.83721V8.12639C105.147 7.90799 104.965 7.70172 104.747 7.50758C104.528 7.33771 104.298 7.19211 104.055 7.07078C103.788 6.94944 103.521 6.85237 103.254 6.77957C102.963 6.73104 102.684 6.70677 102.417 6.70677C100.67 6.70677 99.7598 7.58038 99.7598 8.9636C99.7598 10.3832 100.67 11.2568 102.417 11.2568C102.684 11.2568 102.963 11.2326 103.254 11.184C103.521 11.1112 103.788 11.0142 104.055 10.8928C104.298 10.7715 104.528 10.6138 104.747 10.4196C104.965 10.2498 105.147 10.0556 105.293 9.83721Z" fill="#ED1C24"/>
</svg>
