<svg width="100" height="52" viewBox="0 0 100 52" fill="none" xmlns="http://www.w3.org/2000/svg">
  <path d="M61.9395 26.6066H66.9283L62.1637 8.97917H55.157L50.3924 26.6066H55.157L55.8296 23.7231H61.2108L61.9395 26.6066ZM60.37 20.1867H56.6144L57.5673 16.2151L58.352 12.6243H58.5762L59.417 16.2151L60.37 20.1867ZM75.2803 8.27189C70.796 8.27189 67.8251 10.829 67.8251 14.5829V20.9484C67.8251 24.7024 70.796 27.2594 75.2803 27.2594C79.7646 27.2594 82.7354 24.8656 82.7354 21.2748V20.5131H77.9148C77.9709 21.3292 77.6906 22.1997 77.1301 22.7982C76.009 23.7775 74.2713 23.6687 73.2623 22.5805C72.8139 22.1453 72.5897 21.5468 72.5897 20.894V14.6373C72.6457 13.1684 73.935 12.0259 75.4484 12.0803C76.065 12.0803 76.6816 12.3523 77.1861 12.7331C77.7466 13.386 78.0269 14.2021 77.9709 15.0182H82.7915V14.2565C82.7354 10.7201 79.7646 8.27189 75.2803 8.27189ZM94.3946 26.6066H100L95.1794 19.7515V19.6426H95.2354C97.7018 19.0442 99.3834 16.9224 99.3834 14.4741C99.3834 11.2642 96.917 8.97917 93.5538 8.97917H84.8094V26.6066H89.4058V19.8059H90.1345V19.8603L94.3946 26.6066ZM92.6009 16.2695H89.4058V12.7331H92.6009C93.778 12.7331 94.6188 13.4404 94.6188 14.4741C94.6188 15.4534 93.8341 16.2695 92.8251 16.2695C92.7691 16.2695 92.713 16.2695 92.6009 16.2695ZM50.2803 42.2209H52.4103V37.5421H55.3251C57.3431 37.5965 59.0247 36.0187 59.0807 34.0601C59.1368 32.1015 57.5112 30.4693 55.4933 30.4149C55.4372 30.4149 55.3812 30.4149 55.3251 30.4149H50.2803V42.2209ZM54.8767 35.7467H52.4664V32.1015H54.8767C55.8857 32.0471 56.7265 32.7544 56.8386 33.6793C56.8386 33.7337 56.8386 33.7881 56.8386 33.8969C56.8946 34.8762 56.0538 35.6923 55.0448 35.6923C54.9888 35.8011 54.9327 35.8011 54.8767 35.7467ZM64.6301 30.0341C63.509 29.9797 62.3879 30.3605 61.491 31.0134C60.6502 31.7207 60.1457 32.7544 60.2018 33.8425V38.739C60.1457 39.8271 60.6502 40.8608 61.491 41.5681C62.3879 42.2209 63.509 42.6018 64.6301 42.5474C67.3206 42.5474 69.1144 41.024 69.1144 38.6846V33.7881C69.1144 31.5575 67.3206 30.0341 64.6301 30.0341ZM64.6301 40.8064C63.4529 40.8608 62.444 39.9903 62.3879 38.8478C62.3879 38.7934 62.3879 38.6846 62.3879 38.6302V33.9513C62.3879 32.7544 63.3969 31.7751 64.6301 31.7751C65.8632 31.7751 66.8722 32.7544 66.8722 33.9513V38.6302C66.9283 39.7727 66.0314 40.752 64.8543 40.8064C64.7982 40.8608 64.7422 40.8608 64.6301 40.8064ZM77.3543 42.2209H80.1009L75.4484 36.0731L79.8206 30.4693H77.2982L73.6547 35.3658H72.87V30.4693H70.7399V42.2753H72.87V37.1068H73.6547L77.3543 42.2209ZM81.222 42.2209H89.2377V40.48H83.352V36.7804H88.2287V35.0394H83.352V32.2103H89.2377V30.4693H81.222V42.2209ZM97.3094 42.2209H100.056L96.3005 37.27V37.2156H96.3565C98.1502 37.0524 99.4955 35.5835 99.4955 33.8425C99.4955 31.8839 97.926 30.4149 95.7399 30.4149H90.6951V42.2209H92.8251V37.2156H93.8341L97.3094 42.2209ZM95.2354 35.5291H92.8251V32.1559H95.2354C96.4126 32.1559 97.1973 32.8088 97.1973 33.8425C97.1413 34.8218 96.3565 35.5291 95.2354 35.5291ZM36.9395 44.8324L44.1704 49.2937L37.2758 31.4486L32.9596 34.4954L36.9395 44.8324ZM13.7332 29.218L4.65247 51.6875L46.5807 21.8733H0L8.0157 26.8786H30.9417L30.3812 27.2594L15.8632 37.5421L19.2265 29.218H13.7332ZM27.1861 19.4794H32.6794L25.3363 0.4375L17.657 19.4794H23.1502L25.1682 14.4197L27.1861 19.4794Z" fill="#0A0A0A"/>
</svg>
