<svg width="111" height="20" viewBox="0 0 111 20" fill="none" xmlns="http://www.w3.org/2000/svg">
<path fill-rule="evenodd" clip-rule="evenodd" d="M0.674576 15.336C2.75619 20.4207 9.45898 21.3228 15.3708 18.1654C21.2825 15.008 24.405 8.93917 22.4691 4.5516C22.2193 3.97753 21.8029 3.15742 21.2617 2.64485C18.514 -0.0819997 13.1018 -0.266523 8.14756 2.37832C2.23579 5.51523 -1.13643 10.8869 0.674576 15.336Z" fill="#962428"/>
<path fill-rule="evenodd" clip-rule="evenodd" d="M21.5948 9.86174L22.1985 11.1329C22.698 10.1488 23.0936 8.34454 23.0519 7.38092L22.4483 6.15076C22.4274 6.35578 22.2401 7.66795 22.1776 7.87298C22.0319 8.46756 21.803 9.32867 21.5948 9.86174ZM16.9736 15.2949L17.6397 16.7506C18.6181 16.074 19.763 15.0079 20.4499 14.0238L19.8254 12.6501C19.3467 13.3472 17.6814 14.8029 16.9736 15.2949ZM10.7704 19.785L10.3541 18.4729C11.9153 18.0833 12.8104 17.7143 14.2467 17.0787L14.6214 18.5549C13.7055 19.0469 11.6239 19.6825 10.7704 19.785ZM3.71375 18.8624L2.8811 17.6527C4.04681 18.1448 5.39985 18.6369 6.79453 18.7599L7.08596 19.9285C5.19169 19.6825 4.67129 19.334 3.71375 18.8624Z" fill="#DFE0DF"/>
<path fill-rule="evenodd" clip-rule="evenodd" d="M4.4423 7.40146L2.56885 6.1918C1.90273 6.99141 1.38233 7.83202 0.94519 8.77514L3.25578 9.2672C3.56802 8.59061 4.00516 8.03704 4.4423 7.40146ZM8.56389 3.99802L7.56472 2.05027C6.54473 2.52183 5.89943 2.95238 5.10841 3.71098L6.60717 5.31019C7.16921 4.79762 7.87696 4.40807 8.56389 3.99802ZM14.0593 2.43982L14.4757 0C13.1643 0.0205027 12.0194 0.266535 10.708 0.697091L11.2284 2.91138C12.1651 2.60384 13.1434 2.46032 14.0593 2.43982ZM18.9719 4.36707L21.3866 2.74736C20.6997 1.80423 19.5964 0.984128 18.4515 0.594577L17.0361 2.74736C17.7646 3.21892 18.4724 3.69048 18.9719 4.36707ZM18.8262 9.08268L21.8029 9.92329C22.365 8.95966 22.5523 7.21694 22.7189 6.08929L19.4715 6.64286C19.4507 6.84789 19.5132 6.9299 19.4507 7.13493C19.3258 7.7295 19.1177 8.57011 18.8262 9.08268Z" fill="#7F8082"/>
<path fill-rule="evenodd" clip-rule="evenodd" d="M15.4332 13.0807L17.2026 15.6435C18.1393 14.8644 19.3466 13.7368 20.0336 12.7732L17.4316 11.215C16.932 11.8916 16.0785 12.4861 15.4332 13.0807ZM10.4165 15.5205L10.3333 18.5959C11.8945 18.2064 12.9145 18.0218 14.33 17.2838L13.0394 14.5159C12.3108 14.9054 11.7696 15.131 10.9161 15.3975C10.6455 15.459 10.6871 15.4385 10.4165 15.5205ZM4.94189 15.377L2.86028 17.6528C3.94272 18.2269 5.3374 18.6984 6.79453 18.7804L7.64799 15.9101C6.64881 15.8281 5.77454 15.7256 4.94189 15.377ZM2.65212 11.666L0.0709189 11.625C-0.116426 12.8347 0.0709188 14.1058 0.591322 15.1925L3.23497 13.9828C2.90191 13.2652 2.6313 12.4861 2.65212 11.666Z" fill="#7F8082"/>
<path fill-rule="evenodd" clip-rule="evenodd" d="M0.570486 15.09C2.44394 19.211 8.75122 20.0106 14.6422 16.8737C20.5331 13.7368 23.7805 7.83204 21.907 3.711C20.0336 -0.430535 13.7263 -1.20964 7.83531 1.92727C1.94435 5.06418 -1.30296 10.9689 0.570486 15.09Z" fill="#CA262B"/>
<path fill-rule="evenodd" clip-rule="evenodd" d="M4.4423 7.40146L2.56885 6.1918C1.90273 6.99141 1.38233 7.83202 0.94519 8.77514L3.25578 9.2672C3.56802 8.59061 4.00516 8.03704 4.4423 7.40146ZM8.56389 3.99802L7.56472 2.05027C6.54473 2.52183 5.89943 2.95238 5.10841 3.71098L6.60717 5.31019C7.16921 4.79762 7.87696 4.40807 8.56389 3.99802ZM14.0593 2.43982L14.4757 0C13.1643 0.0205027 12.0194 0.266535 10.708 0.697091L11.2284 2.91138C12.1651 2.60384 13.1434 2.46032 14.0593 2.43982ZM18.9719 4.36707L21.3866 2.74736C20.6997 1.80423 19.5964 0.984128 18.4515 0.594577L17.0361 2.74736C17.7646 3.21892 18.4724 3.69048 18.9719 4.36707ZM18.8262 9.08268L21.8029 9.92329C22.365 8.95966 22.5523 7.21694 22.7189 6.08929L19.4715 6.64286C19.4507 6.84789 19.5132 6.9299 19.4507 7.13493C19.3258 7.7295 19.1177 8.57011 18.8262 9.08268Z" fill="white"/>
<path fill-rule="evenodd" clip-rule="evenodd" d="M15.4332 13.0807L17.2026 15.6435C18.1393 14.8644 19.3466 13.7368 20.0336 12.7732L17.4316 11.215C16.932 11.8916 16.0785 12.4861 15.4332 13.0807ZM10.4165 15.5205L10.3333 18.5959C11.8945 18.2064 12.9145 18.0218 14.33 17.2838L13.0394 14.5159C12.3108 14.9054 11.7696 15.131 10.9161 15.3975C10.6455 15.459 10.6871 15.4385 10.4165 15.5205ZM4.94189 15.377L2.86028 17.6528C3.94272 18.2269 5.3374 18.6984 6.79453 18.7804L7.64799 15.9101C6.64881 15.8281 5.77454 15.7256 4.94189 15.377ZM2.65212 11.666L0.0709189 11.625C-0.116426 12.8347 0.0709188 14.1058 0.591322 15.1925L3.23497 13.9828C2.90191 13.2652 2.6313 12.4861 2.65212 11.666Z" fill="white"/>
<path fill-rule="evenodd" clip-rule="evenodd" d="M2.94353 13.5522C4.25495 16.4021 8.95939 16.7711 13.4349 14.3518C17.9103 11.953 20.4707 7.68844 19.1593 4.81807C17.8479 1.9682 13.1434 1.59915 8.66797 3.99796C4.1925 6.41727 1.63212 10.6818 2.94353 13.5522Z" fill="white"/>
<path d="M2.86028 13.5727C2.63131 13.0602 2.50641 12.4861 2.50641 11.8915C2.50641 9.16466 4.92108 5.90474 8.62635 3.91598C10.6247 2.84984 12.6855 2.31677 14.4549 2.31677C16.6822 2.31677 18.4932 3.13688 19.2426 4.77709C19.4715 5.28966 19.5964 5.86373 19.5964 6.43781C19.5964 9.16466 17.1818 12.4246 13.4765 14.4133C11.4782 15.5 9.41736 16.0126 7.64799 16.0126C5.44148 16.0331 3.60966 15.2129 2.86028 13.5727ZM7.64799 15.8485C9.39654 15.8485 11.4157 15.336 13.3932 14.2698C17.0569 12.3016 19.4299 9.08265 19.4091 6.45831C19.4091 5.88424 19.305 5.35117 19.076 4.8591C18.3683 3.3214 16.6406 2.5013 14.4549 2.5013C12.7063 2.5013 10.6871 3.01386 8.70961 4.08C5.04598 6.04826 2.67294 9.26718 2.67294 11.8915C2.67294 12.4656 2.77702 12.9987 3.006 13.4907L2.94355 13.5522L3.02681 13.5112C3.73456 15.0489 5.48311 15.8485 7.64799 15.8485Z" fill="#962428"/>
<path d="M5.52474 4.16206C4.62964 5.04368 3.9219 5.94579 3.38068 6.72489L3.88026 7.05294C4.54638 6.43786 5.39984 5.72026 6.35738 5.06418L5.52474 4.16206ZM21.1993 2.87039L19.4924 4.01854C19.9711 4.63362 20.3042 5.43323 20.4499 6.47886L21.0536 6.37635C21.6989 4.98217 21.678 3.81352 21.1993 2.87039ZM10.7288 0.799624C9.6047 1.20968 8.60552 1.74275 7.71043 2.33732L8.45981 3.77251C9.29245 3.34195 10.1875 2.99341 11.1243 2.76788C11.1451 2.76788 11.1659 2.76788 11.1867 2.74738L10.7288 0.799624ZM14.8087 0.0820312H14.4757L14.0802 2.27582C14.3924 2.25531 14.7046 2.23481 15.0169 2.23481C15.7663 2.23481 16.4948 2.31682 17.1609 2.50135L18.3683 0.676608C17.3275 0.287058 16.0785 0.0820312 14.8087 0.0820312Z" fill="#CA262B"/>
<path d="M3.35987 6.70439C2.4856 7.95505 2.06927 8.89818 2.06927 8.89818C2.06927 8.89818 2.73539 8.07807 3.88028 7.03243L3.35987 6.70439ZM7.71044 2.35783C6.8778 2.9114 6.14923 3.54698 5.50393 4.16206L6.33658 5.04368C6.98188 4.59262 7.68963 4.16206 8.43901 3.79301L7.71044 2.35783ZM14.4757 0.0820312C13.4765 0.102534 12.4773 0.266555 11.5406 0.53309C11.27 0.6151 10.9994 0.697111 10.7496 0.799624L11.2076 2.76788C12.1235 2.54235 13.1226 2.35783 14.101 2.27582L14.4757 0.0820312ZM18.3891 0.676608L17.1818 2.50135C18.0977 2.76788 18.9095 3.23944 19.4924 4.01854L21.1993 2.87039C20.6997 1.86576 19.6589 1.12767 18.3891 0.676608ZM21.0536 6.37635L20.4499 6.47886C20.4915 6.7454 20.5124 7.03243 20.5332 7.31947C20.7413 7.01193 20.9079 6.68389 21.0536 6.37635Z" fill="white"/>
<path fill-rule="evenodd" clip-rule="evenodd" d="M17.265 3.99805L12.4981 5.9253L9.33406 4.26458L8.37652 8.05757L3.9635 10.8869L8.14754 11.297L8.58468 14.7004L12.1234 11.1535L16.8279 10.4359L14.8087 7.83204L17.265 3.99805Z" fill="#B8242A"/>
<path d="M9.22999 4.65409C7.5647 5.57671 6.04513 6.74536 5.29575 7.95502C3.23495 11.2559 3.1725 12.3016 4.04678 12.3016C4.67126 12.3016 5.7537 11.789 6.89859 11.1739L3.96351 10.8869L8.37653 8.05753L9.22999 4.65409ZM14.7879 2.87036C13.4348 2.87036 11.4573 3.48544 9.6255 4.42856L12.4773 5.92526L17.265 3.99801L14.8087 7.83201L14.8503 7.89351C15.1834 7.8115 15.454 7.7705 15.7038 7.7705C16.6405 7.7705 16.9111 8.42658 16.6197 10.1693L16.8071 10.4153L16.5781 10.4768C16.5364 10.7024 16.4948 10.9484 16.4324 11.2149C16.4324 11.2559 16.4324 11.2765 16.4532 11.2765C16.5781 11.2765 17.3691 10.2308 17.9728 8.83664C19.4507 5.43319 17.4315 3.40343 15.5581 2.93187C15.3291 2.89086 15.0793 2.87036 14.7879 2.87036Z" fill="white"/>
<path d="M16.6405 10.1899C16.6197 10.2924 16.5989 10.3744 16.5989 10.4769L16.8487 10.4359L16.6405 10.1899ZM17.265 3.99805L12.4773 5.9253L9.62548 4.4286C9.47977 4.49011 9.35488 4.57212 9.20916 4.65413L8.3557 8.05757L3.9635 10.8869L6.91939 11.174C8.04346 10.5794 9.22998 9.92332 10.1251 9.59527C12.2483 8.79567 13.8095 8.16009 14.892 7.91406L14.8503 7.85255L17.265 3.99805Z" fill="#CA262B"/>
<path d="M32.7314 10.8254L32.0445 13.9418C31.9196 14.5979 31.8363 15.1105 31.8363 15.5C31.8363 15.7256 31.8571 15.9511 31.9196 16.1971H27.2151C27.3609 15.9306 27.5066 15.623 27.6315 15.2745C27.7564 14.9465 27.8813 14.4954 27.9853 14.2699L29.7339 5.59725C29.7963 4.96166 29.838 4.69513 29.8588 4.4696C29.8796 4.24407 29.9004 4.03904 29.9004 3.83402C29.9004 3.52648 29.8588 3.23944 29.7755 2.99341H38.4975C39.2885 2.99341 39.8714 3.13693 40.246 3.40346C40.6207 3.67 40.7873 4.16206 40.7873 4.81814C40.7873 5.08468 40.7456 5.45373 40.6624 5.88428L40.1836 8.65214C39.9962 9.55426 39.7465 10.1283 39.4342 10.3949C39.1012 10.6614 38.664 10.7844 38.1436 10.7844L38.8305 14.1469C38.893 14.5364 38.9554 14.9055 39.0387 15.2745C39.1012 15.6436 39.2052 15.9511 39.3093 16.1561H35.1253L34.3551 10.7639H32.7314V10.8254ZM33.1894 8.63164H35.4791C35.7498 8.63164 35.9371 8.59063 36.0412 8.48812C36.1453 8.40611 36.2285 8.20108 36.291 7.87304L36.6032 5.92529C36.6449 5.78177 36.6449 5.65875 36.6449 5.55624C36.6449 5.31021 36.4575 5.18719 36.0828 5.18719H33.793L33.1894 8.63164ZM45.6166 12.4041L45.4293 13.3062C45.3876 13.4498 45.3876 13.5728 45.3876 13.6753C45.3876 14.0853 45.6374 14.2904 46.137 14.2904H49.9047C50.3419 14.2904 50.6541 14.2699 50.8831 14.2084C51.1121 14.1674 51.4035 14.0443 51.7574 13.8598L50.9872 16.1766H43.2019C42.5566 16.1766 42.0779 16.0536 41.8073 15.7871C41.5158 15.5205 41.3909 15.1105 41.3909 14.5569C41.3909 14.1879 41.4326 13.7573 41.5366 13.2652L42.3068 9.43124C42.515 8.36511 42.8272 7.62701 43.2436 7.17595C43.6599 6.72489 44.2844 6.49936 45.1586 6.49936H51.1121C51.7574 6.49936 52.2361 6.62238 52.5067 6.88891C52.7982 7.15545 52.9231 7.5655 52.9231 8.11907C52.9231 8.48812 52.8814 8.91868 52.7773 9.41074L52.1529 12.4041H45.6166ZM48.7182 10.5179L48.9888 9.20571C49.0304 9.0622 49.0304 8.93918 49.0304 8.83667C49.0304 8.57013 48.8847 8.42661 48.5725 8.42661H46.9696C46.5741 8.42661 46.3452 8.69315 46.2619 9.20571L45.9913 10.5179H48.7182ZM60.3544 16.1971L60.3336 15.172C59.9173 15.8691 59.5426 16.1971 59.2095 16.1971H55.9206C55.2545 16.1971 54.7549 16.0331 54.4218 15.6846C54.1096 15.336 53.943 14.8439 53.943 14.2289C53.943 14.0853 53.943 13.9418 53.9639 13.7778C53.9847 13.6138 54.0055 13.4293 54.0471 13.1832L54.7965 9.51325C54.9839 8.57013 55.3169 7.83204 55.8165 7.29897C56.3161 6.7659 56.9822 6.49936 57.8565 6.49936H60.9164C61.2287 6.49936 61.4369 6.60188 61.5409 6.82741C61.645 7.05294 61.7075 7.29897 61.7491 7.60651L62.3111 4.85915C62.3944 4.40809 62.436 4.03904 62.436 3.7315C62.436 3.60849 62.4152 3.46497 62.3944 3.34195C62.3736 3.19843 62.3528 3.09592 62.3319 2.99341H66.5784L64.2887 14.3724C64.2054 14.8029 64.1638 15.172 64.1638 15.459C64.1638 15.582 64.1846 15.7051 64.2054 15.8281C64.2262 15.9511 64.247 16.0741 64.2678 16.1766L60.3544 16.1971ZM61.4369 9.14421C61.4785 9.02119 61.4785 8.91868 61.4785 8.81616C61.4785 8.54963 61.3328 8.40611 61.0413 8.40611H59.4801C59.1263 8.40611 58.8973 8.65214 58.7932 9.14421L57.9189 13.5523C57.8773 13.6753 57.8773 13.7778 57.8773 13.8803C57.8773 14.1469 58.023 14.2904 58.3353 14.2904H59.8965C60.2503 14.2904 60.4793 14.0443 60.5834 13.5523L61.4369 9.14421ZM78.4228 5.61775C78.173 5.47423 77.944 5.35121 77.7359 5.28971C77.5069 5.2282 77.2363 5.18719 76.8824 5.18719H73.1147C72.8025 5.18719 72.5735 5.2282 72.4694 5.28971C72.3653 5.35121 72.282 5.51524 72.2196 5.76127L72.0739 6.49936C72.0531 6.64288 72.0323 6.72489 72.0323 6.74539C72.0323 6.88891 72.0739 6.97092 72.178 7.01193C72.2821 7.05293 72.4486 7.07344 72.74 7.07344H75.6126C77.0906 7.07344 77.84 7.66802 77.84 8.87767C77.84 9.1237 77.7983 9.41074 77.7359 9.73878L77.0906 12.9577C76.8616 14.0443 76.5285 14.8644 76.0289 15.3975C75.5502 15.9306 74.8424 16.1971 73.9057 16.1971H66.6201L66.8074 13.5113C67.0364 13.6548 67.2445 13.7778 67.4527 13.8803C67.6609 13.9623 67.9523 14.0238 68.2854 14.0238H72.1988C72.511 14.0238 72.7192 13.9828 72.8441 13.9213C72.969 13.8598 73.0314 13.6958 73.0939 13.4498L73.2812 12.5476C73.302 12.4041 73.3229 12.3221 73.3229 12.3016C73.3229 12.0761 73.0939 11.9736 72.6359 11.9736H69.347C68.7017 11.9736 68.2437 11.8506 67.9731 11.625C67.6817 11.3995 67.5568 10.9894 67.5568 10.4154C67.5568 10.0668 67.5984 9.63627 67.7025 9.1237L68.3062 6.17132C68.7225 4.08005 69.68 3.03441 71.1788 3.03441H78.5893L78.4228 5.61775ZM81.9199 4.53111L85.8542 4.40809L85.417 6.51987H88.5394L88.1647 8.42661H85.0423L84.0223 13.5318C83.9807 13.6958 83.9807 13.8188 83.9807 13.9213C83.9807 14.0648 84.0223 14.1674 84.1264 14.2289C84.2097 14.2904 84.397 14.3109 84.6676 14.3109H86.0415C86.3746 14.3109 86.6452 14.2699 86.8741 14.1879C87.1031 14.1059 87.3113 14.0238 87.5194 13.9213L86.8325 16.1971H81.9199C81.3579 16.1971 80.8999 16.0536 80.5877 15.7871C80.2546 15.5205 80.0881 15.0285 80.0881 14.3519C80.0881 14.1059 80.0881 13.9213 80.1089 13.7983C80.1297 13.6753 80.1505 13.4703 80.2338 13.1832L81.1705 8.42661H79.5052L79.8799 6.51987H81.5452L81.9199 4.53111ZM98.323 6.51987C99.0308 6.51987 99.572 6.68389 99.905 6.99143C100.238 7.29897 100.405 7.81153 100.405 8.54963C100.405 8.98019 100.342 9.53376 100.217 10.1693L99.3638 14.3929C99.2805 14.7824 99.2389 15.131 99.2389 15.418C99.2389 15.6846 99.2805 15.9511 99.3638 16.1971H95.4504L95.4712 15.131C95.263 15.5615 95.0341 15.8691 94.8051 15.9921C94.5761 16.1356 94.1806 16.1971 93.6186 16.1971H90.8708C90.2255 16.1971 89.7468 16.0741 89.4762 15.8076C89.1847 15.541 89.0598 15.131 89.0598 14.5569C89.0598 14.1879 89.1015 13.7573 89.2055 13.2447L89.3513 12.5476C89.5594 11.4815 89.8717 10.7229 90.288 10.2719C90.7043 9.82079 91.3288 9.59527 92.2031 9.59527H95.7626C96.0332 9.59527 96.2206 9.55426 96.3247 9.47225C96.4287 9.39024 96.4912 9.26722 96.5328 9.0827C96.5745 8.89817 96.5953 8.79566 96.5953 8.75466C96.5953 8.48812 96.4079 8.36511 96.0124 8.36511H92.1198C91.537 8.36511 90.9957 8.48812 90.4753 8.71365L91.2247 6.45836H98.323V6.51987ZM94.2847 11.5225C93.9724 11.5225 93.7435 11.584 93.6186 11.6865C93.4729 11.7891 93.3688 12.0146 93.2855 12.3631L93.0774 13.4703C93.0357 13.6138 93.0357 13.7368 93.0357 13.8393C93.0357 14.0238 93.0774 14.1469 93.1814 14.2084C93.2855 14.2699 93.4728 14.3109 93.7435 14.3109H94.6594C95.0341 14.3109 95.2839 14.2289 95.4088 14.0853C95.5336 13.9418 95.6586 13.5523 95.7834 12.9167L96.0541 11.543H94.2847V11.5225ZM106.92 6.51987L106.733 8.13958C107.066 7.50399 107.399 7.07344 107.711 6.84791C108.023 6.62238 108.481 6.49936 109.085 6.49936H111L110.376 9.67728C110.126 9.47225 109.918 9.34923 109.751 9.28773C109.585 9.22622 109.21 9.20571 108.669 9.20571C107.919 9.20571 107.399 9.30823 107.128 9.53376C106.837 9.75929 106.649 10.1898 106.504 10.8459L105.879 13.9623C105.775 14.5364 105.713 14.967 105.713 15.2745C105.713 15.418 105.734 15.5615 105.754 15.6641C105.775 15.7666 105.817 15.9511 105.879 16.1971H101.071C101.3 15.8486 101.466 15.541 101.591 15.295C101.716 15.0285 101.82 14.5979 101.945 13.9828L102.986 8.73415C103.09 8.16008 103.152 7.72952 103.152 7.42198C103.152 7.27846 103.132 7.13495 103.111 7.03243C103.09 6.92992 103.048 6.74539 102.986 6.49936H106.92V6.51987Z" fill="#CA262B"/>
</svg>
