<svg _ngcontent-serverApp-c13="" width="8" height="8" viewBox="0 0 8 8" fill="none" xmlns="http://www.w3.org/2000/svg"><path _ngcontent-serverApp-c13="" d="M4.18621 0.696421C4.06694 0.820837 4 0.989138 4 1.16457C4 1.34 4.06694 1.5083 4.18621 1.63271L6.45305 4.0166L4.18621 6.36729C4.06694 6.4917 4 6.66001 4 6.83543C4 7.01086 4.06694 7.17916 4.18621 7.30358C4.24574 7.36582 4.31656 7.41522 4.39459 7.44893C4.47263 7.48264 4.55632 7.5 4.64086 7.5C4.72539 7.5 4.80909 7.48264 4.88712 7.44893C4.96515 7.41522 5.03598 7.36582 5.0955 7.30358L7.81059 4.48807C7.8706 4.42634 7.91824 4.35289 7.95075 4.27197C7.98326 4.19106 8 4.10426 8 4.0166C8 3.92894 7.98326 3.84215 7.95075 3.76123C7.91824 3.68031 7.8706 3.60687 7.81059 3.54514L5.09551 0.696421C5.03598 0.634182 4.96515 0.584782 4.88712 0.55107C4.80909 0.517357 4.72539 0.5 4.64086 0.5C4.55632 0.5 4.47263 0.517357 4.39459 0.55107C4.31656 0.584782 4.24574 0.634182 4.18621 0.696421Z"></path><path _ngcontent-serverApp-c13="" d="M0.186209 0.696421C0.0669434 0.820837 2.84599e-07 0.989138 2.76931e-07 1.16457C2.69262e-07 1.34 0.0669433 1.5083 0.186209 1.63271L2.45305 4.0166L0.186209 6.36729C0.0669431 6.4917 3.67173e-08 6.66001 2.90491e-08 6.83543C2.13809e-08 7.01086 0.0669431 7.17916 0.186209 7.30358C0.245738 7.36582 0.316561 7.41522 0.394593 7.44893C0.472626 7.48264 0.556323 7.5 0.640857 7.5C0.72539 7.5 0.809088 7.48264 0.88712 7.44893C0.965153 7.41522 1.03598 7.36582 1.0955 7.30358L3.81059 4.48807C3.8706 4.42634 3.91824 4.35289 3.95075 4.27197C3.98326 4.19106 4 4.10426 4 4.0166C4 3.92894 3.98326 3.84215 3.95075 3.76123C3.91824 3.68031 3.8706 3.60687 3.81059 3.54514L1.09551 0.696421C1.03598 0.634182 0.965153 0.584782 0.887121 0.55107C0.809088 0.517357 0.725391 0.5 0.640857 0.5C0.556323 0.5 0.472626 0.517357 0.394594 0.55107C0.316561 0.584782 0.245738 0.634182 0.186209 0.696421Z"></path></svg>