<svg _ngcontent-serverApp-c59="" width="19" height="21" viewBox="0 0 19 21" fill="none" xmlns="http://www.w3.org/2000/svg"><path _ngcontent-serverApp-c59="" fill-rule="evenodd" clip-rule="evenodd" d="M0.75 7.875V9.625C0.75 10.15 1.1 10.5 1.625 10.5C2.15 10.5 2.5 10.15 2.5 9.625V7.875C2.5 6.3875 3.6375 5.25 5.125 5.25H15.275L13.2625 7.2625C12.9125 7.6125 12.9125 8.1375 13.2625 8.4875C13.4375 8.6625 13.6125 8.75 13.875 8.75C14.1375 8.75 14.3125 8.6625 14.4875 8.4875L17.9875 4.9875C18.0313 4.94375 18.0531 4.9 18.075 4.85625C18.0969 4.8125 18.1188 4.76875 18.1625 4.725C18.25 4.4625 18.25 4.2 18.1625 4.025C18.1625 3.9375 18.075 3.85 17.9875 3.7625L14.4875 0.2625C14.1375 -0.0875 13.6125 -0.0875 13.2625 0.2625C12.9125 0.6125 12.9125 1.1375 13.2625 1.4875L15.275 3.5H5.125C2.675 3.5 0.75 5.425 0.75 7.875ZM16.5 11.375C16.5 10.85 16.85 10.5 17.375 10.5C17.9 10.5 18.25 10.85 18.25 11.375V13.125C18.25 15.575 16.325 17.5 13.875 17.5H3.72502L5.73752 19.5125C6.08752 19.8625 6.08752 20.3875 5.73752 20.7375C5.56252 20.9125 5.38752 21 5.12502 21C4.86252 21 4.68752 20.9125 4.51252 20.7375L1.01252 17.2375C0.968773 17.1938 0.946898 17.15 0.925023 17.1063C0.903148 17.0625 0.881273 17.0187 0.837522 16.975C0.750022 16.7125 0.750022 16.45 0.837522 16.275C0.837522 16.1875 0.925022 16.1 1.01252 16.0125L4.51252 12.5125C4.86252 12.1625 5.38752 12.1625 5.73752 12.5125C6.08752 12.8625 6.08752 13.3875 5.73752 13.7375L3.72502 15.75H13.875C15.3625 15.75 16.5 14.6125 16.5 13.125V11.375Z" fill="#307BF6"></path></svg>