<svg _ngcontent-serverApp-c14="" width="21" height="15" viewBox="0 0 21 15" fill="none" xmlns="http://www.w3.org/2000/svg"><path _ngcontent-serverApp-c14="" d="M9.49783 14.1296C9.4619 14.2706 9.38023 14.3957 9.26561 14.4854C9.15098 14.575 9.00987 14.6241 8.86436 14.625C8.81198 14.6248 8.75994 14.6166 8.71005 14.6006L6.25739 13.9915C6.05845 13.9413 5.87457 13.8438 5.72137 13.7073L3.89406 12.1155C3.83007 12.06 3.77763 11.9925 3.73973 11.9168C3.70183 11.8411 3.67922 11.7586 3.67319 11.6741C3.66716 11.5897 3.67782 11.5049 3.70457 11.4245C3.73132 11.3442 3.77363 11.2699 3.82909 11.2059C3.88455 11.1419 3.95207 11.0895 4.02779 11.0516C4.10352 11.0137 4.18597 10.9911 4.27043 10.985C4.35489 10.979 4.43972 10.9896 4.52006 11.0164C4.60041 11.0431 4.67469 11.0855 4.73868 11.1409L6.57412 12.7327L9.01866 13.3418C9.18585 13.3841 9.32975 13.4904 9.41936 13.6377C9.50898 13.785 9.53716 13.9617 9.49783 14.1296ZM20.2668 6.39802C20.2134 6.56159 20.1276 6.71275 20.0146 6.8425C19.9016 6.97225 19.7637 7.07795 19.609 7.15331L17.7167 8.10351L16.5066 9.52476H16.4904C16.4904 9.53288 16.4822 9.53288 16.4822 9.541H16.4741L13.4854 12.5297C13.2378 12.7718 12.9059 12.9086 12.5596 12.9114C12.4555 12.9104 12.3518 12.8968 12.251 12.8708L7.54057 11.7094C7.36272 11.6679 7.19629 11.5875 7.05328 11.4739L2.66773 8.04666L0.718589 7.07209C0.40724 6.9143 0.170811 6.63993 0.0607551 6.30868C0.00872511 6.14456 -0.0101708 5.97174 0.00516545 5.80025C0.0205017 5.62876 0.0697641 5.46203 0.150091 5.30975L2.14796 1.48457C2.30584 1.18355 2.57474 0.955842 2.89766 0.849718C3.22059 0.743593 3.57214 0.767392 3.87782 0.91607L5.69701 1.82567L9.65213 0.672428C9.94862 0.591637 10.2638 0.61456 10.5455 0.737399L13.2256 1.95561H14.5575L16.4497 1.00541C16.7541 0.853987 17.1056 0.827854 17.429 0.932612C17.7524 1.03737 18.0219 1.26467 18.1796 1.56578L20.1775 5.39096C20.258 5.54464 20.3074 5.71273 20.3227 5.88557C20.3381 6.0584 20.3191 6.23256 20.2668 6.39802ZM15.0123 9.17554L12.4459 7.30762L11.7881 7.80302C11.2247 8.22227 10.5412 8.4487 9.83893 8.4487C9.13668 8.4487 8.45315 8.22227 7.88979 7.80302L7.45123 7.47004C7.30141 7.35908 7.17739 7.217 7.0877 7.05355C6.998 6.8901 6.94477 6.70917 6.93165 6.5232C6.91853 6.33722 6.94584 6.15061 7.0117 5.97619C7.07756 5.80177 7.18041 5.64368 7.31317 5.51278L10.4886 2.32919L10.6348 2.20737L10.0095 1.92312L6.05435 3.07636L3.84533 7.31574L7.8573 10.4506L12.5596 11.6282L15.0123 9.17554ZM16.531 7.49441L14.3219 3.25503H11.4064L8.23089 6.4305L8.66944 6.76348C9.00838 7.01283 9.41815 7.14732 9.83893 7.14732C10.2597 7.14732 10.6695 7.01283 11.0084 6.76348L12.0479 5.98383C12.1588 5.9002 12.2935 5.8543 12.4324 5.85284C12.5712 5.85137 12.7069 5.89444 12.8195 5.97571L15.9056 8.21721L16.531 7.49441Z" fill="#307BF6"></path></svg>