<svg width="17" height="18" viewBox="0 0 17 18" fill="none"
     xmlns="http://www.w3.org/2000/svg">
  <path d="M6.81021 11.7006H5.55028L6.33735 6.79144H7.59728L6.81021 11.7006Z"
        fill="#00579F"/>
  <path
    d="M11.3771 6.91056C11.017 6.77004 10.6339 6.6988 10.2478 6.70053C9.00342 6.70053 8.12614 7.37138 8.11992 8.3275C8.11992 9.03284 8.7421 9.4247 9.2243 9.65981C9.70649 9.89493 9.87759 10.0548 9.87759 10.2711C9.87759 10.6003 9.48562 10.7507 9.12164 10.7507C8.71247 10.7619 8.30676 10.6726 7.93948 10.4905L7.7746 10.4122L7.59728 11.5125C8.04526 11.6891 8.5224 11.7784 9.00342 11.7758C10.3256 11.7758 11.1811 11.1175 11.1966 10.0987C11.1966 9.53755 10.8638 9.11122 10.1389 8.76011C9.69716 8.53441 9.42651 8.38393 9.42651 8.15509C9.42651 7.92625 9.65672 7.73189 10.1545 7.73189C10.4758 7.72144 10.7951 7.78581 11.0877 7.91998L11.2029 7.97014L11.374 6.91056H11.3771Z"
    fill="#00579F"/>
  <path
    d="M13.0507 9.96076C13.1565 9.67862 13.5547 8.5877 13.5547 8.5877C13.5547 8.5877 13.6574 8.29929 13.7196 8.11747L13.8098 8.54068C13.8098 8.54068 14.0462 9.71624 14.0991 9.96076H13.0507ZM14.6062 6.79144H13.6325C13.4931 6.77437 13.352 6.80535 13.2322 6.87935C13.1125 6.95334 13.0211 7.06599 12.973 7.19896L11.1064 11.7006H12.4286L12.693 10.9639H14.3107C14.3449 11.1363 14.46 11.7006 14.46 11.7006H15.6235L14.6062 6.79144Z"
    fill="#00579F"/>
  <path
    d="M4.49568 6.79144L3.2513 10.1394L3.11442 9.45918C2.8067 8.57982 2.18586 7.84696 1.3723 7.40273L2.50468 11.6975H3.83616L5.83027 6.79144H4.49568Z"
    fill="#00579F"/>
  <path
    d="M2.11581 6.79144H0.0905921L0.0688157 6.89175C1.64917 7.29928 2.69756 8.28048 3.12687 9.45918L2.68822 7.20523C2.66185 7.07641 2.58831 6.96231 2.48225 6.88564C2.37618 6.80896 2.24536 6.77533 2.11581 6.79144Z"
    fill="#FAA61A"/>
  <path fill-rule="evenodd" clip-rule="evenodd"
        d="M4.58096 12.9247V12.9267C4.57886 12.9267 3.91693 12.9247 3.74042 13.5263C3.57862 14.078 3.12262 15.601 3.11001 15.6429H2.98393C2.98393 15.6429 2.51743 14.086 2.35352 13.5243C2.17701 12.9228 1.51298 12.9247 1.51298 12.9247H0V17.5017H1.51298V14.7835H1.63906L2.52163 17.5017H3.57231L4.45488 14.7855H4.58096V17.5017H6.09394V12.9247H4.58096Z"
        fill="#4DB45E"/>
  <path fill-rule="evenodd" clip-rule="evenodd"
        d="M10.1075 12.9247C10.1075 12.9247 9.66415 12.9627 9.45612 13.4044L8.38443 15.6429H8.25834V12.9247H6.74536V17.5017H8.17429C8.17429 17.5017 8.63869 17.4617 8.84672 17.022L9.8974 14.7835H10.0235V17.5017H11.5365V12.9247H10.1075Z"
        fill="#4DB45E"/>
  <path fill-rule="evenodd" clip-rule="evenodd"
        d="M12.2089 15.0034V17.5017H13.7219V16.0427H15.3609C16.0754 16.0427 16.6806 15.6089 16.9054 15.0034H12.2089Z"
        fill="#4DB45E"/>
  <path fill-rule="evenodd" clip-rule="evenodd"
        d="M15.3609 12.9247H11.9967C12.1648 13.7962 12.8519 14.4957 13.7408 14.7235C13.9425 14.7755 14.1548 14.8035 14.3733 14.8035H16.9664C16.9895 14.6996 17 14.5936 17 14.4837C17 13.6223 16.2666 12.9247 15.3609 12.9247Z"
        fill="url(#paint0_linear_2338_35863)"/>
  <path d="M9.65209 1.06989H7.34872V5.24056H9.65209V1.06989Z" fill="#FF5A00"/>
  <path
    d="M7.50068 3.15523C7.50021 2.75412 7.58992 2.35812 7.76306 1.99695C7.93621 1.63578 8.1883 1.31883 8.50041 1.06989C8.17038 0.808209 7.78303 0.629859 7.37068 0.549725C6.95833 0.469592 6.53295 0.489998 6.13002 0.609242C5.72709 0.728486 5.3583 0.943109 5.05444 1.2352C4.75057 1.52729 4.52044 1.88838 4.38325 2.28833C4.24605 2.68829 4.20577 3.1155 4.26577 3.53434C4.32577 3.95317 4.4843 4.35147 4.72815 4.69599C4.97199 5.04052 5.29407 5.32129 5.66751 5.51486C6.04094 5.70843 6.45491 5.80919 6.87485 5.80874C7.46476 5.80935 8.03758 5.60914 8.50041 5.24056C8.18786 4.99202 7.93545 4.67515 7.76226 4.31389C7.58907 3.95263 7.49962 3.55643 7.50068 3.15523Z"
    fill="#EB001B"/>
  <path
    d="M12.7612 3.15523C12.7621 3.65305 12.6237 4.14103 12.362 4.56326C12.1003 4.98549 11.7258 5.32488 11.2815 5.54253C10.8372 5.76019 10.3411 5.8473 9.84988 5.7939C9.35871 5.74049 8.8924 5.54872 8.50441 5.24056C8.81657 4.99157 9.06878 4.67464 9.24217 4.31351C9.41556 3.95238 9.50563 3.5564 9.50563 3.15523C9.50563 2.75405 9.41556 2.35807 9.24217 1.99694C9.06878 1.63581 8.81657 1.31888 8.50441 1.06989C8.96546 0.7009 9.53718 0.500575 10.126 0.501714C10.8244 0.502247 11.4941 0.781919 11.9881 1.27938C12.4821 1.77683 12.7602 2.45145 12.7612 3.15523Z"
    fill="#F79E1B"/>
  <defs>
    <linearGradient id="paint0_linear_2338_35863" x1="0.00138513" y1="9.00169"
                    x2="17" y2="9.00169" gradientUnits="userSpaceOnUse">
      <stop offset="0.3" stop-color="#00B4E6"/>
      <stop offset="1" stop-color="#088CCB"/>
    </linearGradient>
  </defs>
</svg>
