<svg _ngcontent-serverApp-c14="" width="19" height="19" viewBox="0 0 19 19" fill="none" xmlns="http://www.w3.org/2000/svg"><path _ngcontent-serverApp-c14="" fill-rule="evenodd" clip-rule="evenodd" d="M9.44828 0.790039C4.61819 0.790039 0.738281 4.66995 0.738281 9.50004C0.738281 14.3301 4.61819 18.21 9.44828 18.21C14.2784 18.21 18.1583 14.3301 18.1583 9.50004C18.1583 4.66995 14.2784 0.790039 9.44828 0.790039ZM9.44828 16.6264C5.48919 16.6264 2.32191 13.4591 2.32191 9.50004C2.32191 5.54095 5.48919 2.37368 9.44828 2.37368C13.4074 2.37368 16.5746 5.54095 16.5746 9.50004C16.5746 13.4591 13.4074 16.6264 9.44828 16.6264ZM12.6156 10.2919C13.0906 10.2919 13.4074 9.97513 13.4074 9.50004C13.4074 9.02495 13.0906 8.70822 12.6156 8.70822H10.2401V6.33277C10.2401 5.85768 9.92337 5.54095 9.44828 5.54095C8.97319 5.54095 8.65646 5.85768 8.65646 6.33277V8.70822H6.28101C5.80592 8.70822 5.48919 9.02495 5.48919 9.50004C5.48919 9.97513 5.80592 10.2919 6.28101 10.2919H8.65646V12.6673C8.65646 13.1424 8.97319 13.4591 9.44828 13.4591C9.92337 13.4591 10.2401 13.1424 10.2401 12.6673V10.2919H12.6156Z" fill="#307BF6"></path></svg>