<svg _ngcontent-serverApp-c13="" width="8" height="8" viewBox="0 0 8 8" fill="none" xmlns="http://www.w3.org/2000/svg"><path _ngcontent-serverApp-c13="" d="M3.81379 7.30358C3.93306 7.17916 4 7.01086 4 6.83543C4 6.66 3.93306 6.4917 3.81379 6.36729L1.54695 3.9834L3.81379 1.63271C3.93306 1.5083 4 1.33999 4 1.16457C4 0.989137 3.93306 0.820836 3.81379 0.696421C3.75426 0.634182 3.68344 0.584781 3.60541 0.551069C3.52737 0.517357 3.44368 0.5 3.35914 0.5C3.27461 0.5 3.19091 0.517357 3.11288 0.551069C3.03485 0.584781 2.96402 0.634182 2.9045 0.696421L0.189414 3.51193C0.129395 3.57366 0.0817569 3.64711 0.0492471 3.72803C0.0167376 3.80894 -1.48432e-07 3.89574 -1.52264e-07 3.9834C-1.56096e-07 4.07106 0.0167375 4.15785 0.0492471 4.23877C0.0817569 4.31969 0.129395 4.39313 0.189414 4.45486L2.90449 7.30358C2.96402 7.36582 3.03485 7.41522 3.11288 7.44893C3.19091 7.48264 3.27461 7.5 3.35914 7.5C3.44368 7.5 3.52737 7.48264 3.60541 7.44893C3.68344 7.41522 3.75426 7.36582 3.81379 7.30358Z"></path><path _ngcontent-serverApp-c13="" d="M7.81379 7.30358C7.93306 7.17916 8 7.01086 8 6.83543C8 6.66 7.93306 6.4917 7.81379 6.36729L5.54695 3.9834L7.81379 1.63271C7.93306 1.5083 8 1.33999 8 1.16457C8 0.989137 7.93306 0.820836 7.81379 0.696421C7.75426 0.634182 7.68344 0.584781 7.60541 0.551069C7.52737 0.517357 7.44368 0.5 7.35914 0.5C7.27461 0.5 7.19091 0.517357 7.11288 0.551069C7.03485 0.584781 6.96402 0.634182 6.9045 0.696421L4.18941 3.51193C4.1294 3.57366 4.08176 3.64711 4.04925 3.72803C4.01674 3.80894 4 3.89574 4 3.9834C4 4.07106 4.01674 4.15785 4.04925 4.23877C4.08176 4.31969 4.1294 4.39313 4.18941 4.45486L6.90449 7.30358C6.96402 7.36582 7.03485 7.41522 7.11288 7.44893C7.19091 7.48264 7.27461 7.5 7.35914 7.5C7.44368 7.5 7.52737 7.48264 7.60541 7.44893C7.68344 7.41522 7.75426 7.36582 7.81379 7.30358Z"></path></svg>