<svg _ngcontent-serverApp-c16="" width="13" height="16" viewBox="0 0 13 16" fill="none" xmlns="http://www.w3.org/2000/svg"><path _ngcontent-serverApp-c16="" d="M3.09802 3.28427C3.35686 2.41589 4.25484 1.38307 5.00981 1.08525C5.56759 0.86518 7.03329 0.859896 7.60897 1.07584C8.4294 1.3834 9.31031 2.39095 9.58655 3.33792C10.499 6.46459 6.84355 8.89788 4.22417 6.90753C3.16512 6.10271 2.70197 4.61276 3.09802 3.28427Z" fill="#0A0A0A"></path><path _ngcontent-serverApp-c16="" d="M0.0589861 11.3244C0.0367809 9.87224 0.955636 9.14798 3.21592 8.83596C4.59495 8.64544 9.14919 8.73509 10.3396 8.99297C12.8661 9.54008 13.4305 11.587 11.5672 13.4435C10.511 14.4958 8.71194 14.9597 6.71895 15.0602C5.49121 15.1222 4.40456 15.0703 3.48603 14.7923C1.40587 14.163 0.0816883 12.8229 0.0589861 11.3244Z" fill="#0A0A0A"></path></svg>