<svg width="20" height="20" viewBox="0 0 20 20" fill="none" xmlns="http://www.w3.org/2000/svg">
<path fill-rule="evenodd" clip-rule="evenodd" d="M19.9964 16.2201C19.9964 18.6499 18.6463 20 16.2164 20H3.77992C1.35612 20 0 18.6499 0 16.2201V3.77992C0 1.35006 1.35006 0 3.77992 0H16.2249C18.6487 0 20 1.35006 20 3.77992L19.9964 16.2201Z" fill="#FEE600"/>
<path fill-rule="evenodd" clip-rule="evenodd" d="M12.8595 9.02499V7.11503L13.5503 6.42546V8.07971L14.1562 8.67959L16.5703 6.26549L17.1654 6.86053C17.1564 5.79231 16.7251 4.77104 15.9656 4.01984C14.7755 2.86974 13.486 3.38965 13.0461 3.82957L10.6296 6.24004L11.2452 6.85568L9.99939 8.11L8.75477 6.86538L9.3692 6.24973L6.95994 3.84047C6.52002 3.40055 5.22935 2.87944 4.04047 4.02953C3.28095 4.78084 2.84925 5.80194 2.83948 6.87023L3.43452 6.27518L5.84984 8.6905L6.44973 8.08455V6.43516L7.1393 7.12473V9.03711L8.10882 10.0066L3.3303 14.7803L5.21965 16.6648L9.99939 11.8899L14.7852 16.6721L16.6758 14.7876L11.89 9.99936L12.8595 9.02499Z" fill="#2B2D33"/>
</svg>
