<svg id="Слой_1" data-name="Слой 1" xmlns="http://www.w3.org/2000/svg" viewBox="0 0 40.53 50"><defs><style>.cls-1{fill:#5b57a2;}.cls-2{fill:#d90751;}.cls-3{fill:#fab718;}.cls-4{fill:#ed6f26;}.cls-5{fill:#63b22f;}.cls-6{fill:#1487c9;}.cls-7{fill:#017f36;}.cls-8{fill:#984995;}</style></defs><path id="path66" class="cls-1" d="M0,10.88,6.05,21.71v6.6L0,39.11Z"/><path id="path68" class="cls-2" d="M23.25,17.77l5.67-3.48H40.53L23.25,24.87Z"/><path id="path70" class="cls-3" d="M23.22,10.82l0,14.33-6.07-3.73V0l6,10.82Z"/><path id="path72" class="cls-4" d="M40.53,14.28H28.92l-5.7-3.47L17.18,0,40.53,14.28Z"/><path id="path74" class="cls-5" d="M23.25,39.17v-7l-6.07-3.66V50Z"/><path id="path76" class="cls-6" d="M28.91,35.72l-22.86-14L0,10.88,40.51,35.71Z"/><path id="path78" class="cls-7" d="M17.18,50l6.07-10.83,5.66-3.45h11.6Z"/><path id="path80" class="cls-8" d="M0,39.11,17.23,28.56,11.44,25l-5.39,3.3Z"/></svg>