<svg _ngcontent-serverApp-c14="" width="16" height="16" viewBox="0 0 16 16" fill="none" xmlns="http://www.w3.org/2000/svg"><g _ngcontent-serverApp-c14="" opacity="0.5"><path _ngcontent-serverApp-c14="" d="M11.3332 9.1133C11.2083 8.98913 11.0393 8.91943 10.8632 8.91943C10.6871 8.91943 10.5181 8.98913 10.3932 9.1133L7.99988 11.4733L5.63988 9.1133C5.51498 8.98913 5.34601 8.91943 5.16988 8.91943C4.99376 8.91943 4.82479 8.98913 4.69988 9.1133C4.6374 9.17527 4.5878 9.249 4.55396 9.33024C4.52011 9.41148 4.50269 9.49862 4.50269 9.58663C4.50269 9.67464 4.52011 9.76177 4.55396 9.84301C4.5878 9.92425 4.6374 9.99799 4.69988 10.06L7.52655 12.8866C7.58853 12.9491 7.66226 12.9987 7.7435 13.0326C7.82474 13.0664 7.91188 13.0838 7.99988 13.0838C8.08789 13.0838 8.17503 13.0664 8.25627 13.0326C8.33751 12.9987 8.41124 12.9491 8.47322 12.8866L11.3332 10.06C11.3957 9.99799 11.4453 9.92425 11.4791 9.84301C11.513 9.76177 11.5304 9.67464 11.5304 9.58663C11.5304 9.49862 11.513 9.41148 11.4791 9.33024C11.4453 9.249 11.3957 9.17527 11.3332 9.1133Z" fill="#272727"></path><path _ngcontent-serverApp-c14="" d="M4.69999 6.97069C4.82489 7.09486 4.99386 7.16455 5.16999 7.16455C5.34611 7.16455 5.51508 7.09486 5.63999 6.97069L8.03332 4.61069L10.3933 6.97069C10.5182 7.09486 10.6872 7.16455 10.8633 7.16455C11.0394 7.16455 11.2084 7.09486 11.3333 6.97069C11.3958 6.90871 11.4454 6.83498 11.4792 6.75374C11.5131 6.6725 11.5305 6.58536 11.5305 6.49736C11.5305 6.40935 11.5131 6.32221 11.4792 6.24097C11.4454 6.15973 11.3958 6.086 11.3333 6.02402L8.50665 3.19736C8.44468 3.13487 8.37094 3.08527 8.2897 3.05143C8.20846 3.01758 8.12133 3.00016 8.03332 3.00016C7.94531 3.00016 7.85817 3.01758 7.77693 3.05143C7.69569 3.08527 7.62196 3.13487 7.55999 3.19736L4.69999 6.02402C4.6375 6.086 4.5879 6.15973 4.55406 6.24097C4.52021 6.32221 4.50279 6.40935 4.50279 6.49736C4.50279 6.58536 4.52021 6.6725 4.55406 6.75374C4.5879 6.83498 4.6375 6.90871 4.69999 6.97069Z" fill="#272727"></path></g></svg>