<svg id="Слой_1" data-name="Слой 1" xmlns="http://www.w3.org/2000/svg" viewBox="0 0 56.29 50"><defs><style>.cls-1{fill:#dee0e1;}.cls-1,.cls-3,.cls-4{fill-rule:evenodd;}.cls-2{fill:#fff;}.cls-3{fill:#fce527;}.cls-4{fill:#222220;}</style></defs><path class="cls-1" d="M15.89,36.25c.67-.55,1.29-.83,1.26-2.17-1.06.53-4,.51-5.29-1.21-.36-.49,0-.74.36-.35.86,1,2.44.53,3,.25a2.22,2.22,0,0,0-.53-1c.21-.21.82-.53,1-1.07A8.09,8.09,0,0,0,14,30.43a1.07,1.07,0,0,0,.31-1.19,3.68,3.68,0,0,1-3.26-.62c-.36-.48,0-.91.31-.6.68.67,3.83,1.45,5,.27a1.73,1.73,0,0,1-1-.74c1.09-.11,2-.75,2-1.56a4.86,4.86,0,0,1-2.13-.33,1.37,1.37,0,0,0,1-1c-2-.12-2.16-1.6-2.17-1.85,1.3.75,3.6.41,3-1.43-1.08-.06-2.17-1.82.81-3.43,2.69-1.47,5.79-3,5.52-5.65-.18-1.67-2.92-2.8-3.27-3.65-1.14.54-1.34,1.17-.86,2.24,0,0-2.55.25-2.76-1.35a2.43,2.43,0,0,1,.89-1.87c-.29,0-2.21-.51-2.79,1.06-1.08-.73-2-.71-2.73.07,1.16.67,1.88,3,3.79,3.74-1.34.74-3.56.43-4.85-1.84-1.21,1.83-1.91,3.65.67,5.58-4.75,2.17-4.7,6.29-8.84,8.26.42,1.12,1.3,1.12,2.43,1C3.32,27.83,4.85,30.26,2,31.25c.26,1,.79,1.7,1.84,1.42-.3.47-.49.45-1,1,1.55,1,3.36.27,3.8-2.85.07-.56.84-.21.58.33C5.52,34.76,10,37.5,8.39,40.17a5.57,5.57,0,0,0,3-.64,3,3,0,0,1,.39,1.67,1.21,1.21,0,0,0,1.11-1.13c.5,1.47,2.29,3,5.18,3-1.53-2.17-.11-4.38-2.27-6.87M13,38.92l-.62,1a13.16,13.16,0,0,0-.87-1.91,1.87,1.87,0,0,1-2,1c.22-2.42-2.85-4.88-1.5-7.66a1.12,1.12,0,0,0-.47-1.52h0c-2-1-1.1,3.29-3.16,3.41a5.17,5.17,0,0,0,.6-1.6c-.43.11-1.48.78-1.95-.08A3.36,3.36,0,0,0,4.71,29a10,10,0,0,1,.58-2.34,13.28,13.28,0,0,1,1.52-2.15c-.2,0-2.52.52-3,.28,4-2.45,3.09-5.58,9.18-8.35-1.6-1.19-3.23-2.13-2.06-4.4,1.67,2,4.84,1.34,6.55.37-1.69-.33-3.88-1.83-4.39-3.49.67-.1,1.46.6,1.94.92.23-.61.32-1.35,1.06-1.48-1,2.12,1,3.23,2.84,3.23.29,0,1.5-.12,1.5-.12-.2-.4-1-1.48-.41-1.92a18.61,18.61,0,0,0,1.5,1.15c3.63,2.81-1.73,5.41-3.92,6.59-3.44,1.86-2.52,4.07-1.08,4.63,0,.25-.16.36-.4.44-1,.33-1.94-.39-2.74-.84,0,1.38,0,2.69,1.48,3.48l-1.05.39a4,4,0,0,0,2.27,1.19,4.84,4.84,0,0,1-1.68.3,4.06,4.06,0,0,0,.53,1.25c-2.23.27-3.13-1-3.82-1-1.48.11-1.38,2.89,2.25,2.89L13,30.7a4,4,0,0,0,1.34.48,7.06,7.06,0,0,0-.67.67l.58.5c-1.49.27-1.91-1.34-2.87-.55-1.46,1.16,1.77,3.61,4.88,3.25a9.64,9.64,0,0,1-1.31,1.08c2.53,2.39,1.29,4.64,2.32,6.29a4.58,4.58,0,0,1-4.17-3.48"/><path class="cls-1" d="M9.07,30.24c.52.54,1.16.6,2.36.52-1.34-.16-2.07-.48-2.53-1.34A11.83,11.83,0,0,1,8.76,28a10.09,10.09,0,0,1,1.39-4.87,3.39,3.39,0,0,0,2.91,3.23A3.58,3.58,0,0,1,10.77,22c.37-.6.8-1.23,1.28-1.86.24-.31.47-.59.67-.87-.24.88.82,1.79,1.54,1.94-.39-.37-1.22-1.6.67-3.65a8.47,8.47,0,0,0-1.57,1c3.48-3.77,6.34-3.87,7.66-5.77-1.91,1.3-6.95,2-9.21,1.39,1.25.84,4.26.76,5,.61-2.46,2.39-7.83,4.86-8.74,7a6.31,6.31,0,0,1,3.29-2.07A22.22,22.22,0,0,0,9.11,23.6c-1.42,3.1-3.36,3.14-3.46,5.7.67-2,2-2.49,2.89-3.78a13.21,13.21,0,0,0-.21,2.81A9.11,9.11,0,0,0,9,31.42a6.13,6.13,0,0,0,1.48,4.85,6.57,6.57,0,0,1-1.11-4c1.13,2.19,4.37,5.21,5.93,7.24C13.7,36.87,9.89,33.81,9,30.29"/><path class="cls-1" d="M44.88,19.72a6.26,6.26,0,0,1,3.28,2.07c-.93-2.2-6.29-4.67-8.73-7.06.74.15,3.75.24,5-.6-2.26.61-7.31-.09-9.21-1.4,1.34,1.9,4.18,2,7.66,5.77a8.47,8.47,0,0,0-1.57-1c1.91,2.05,1.09,3.27.67,3.65.71-.15,1.78-1.06,1.54-1.94.23.28.46.57.67.88.48.63.9,1.25,1.28,1.86a3.6,3.6,0,0,1-2.3,4.31,3.42,3.42,0,0,0,2.91-3.24,10.08,10.08,0,0,1,1.38,4.87,11.82,11.82,0,0,1-.13,1.46c-.47.88-1.21,1.21-2.53,1.35,1.2.07,1.84,0,2.37-.53-.83,3.52-4.66,6.58-6.23,9.2,1.57-2,4.8-5.06,5.94-7.25a6.54,6.54,0,0,1-1.11,4,6.2,6.2,0,0,0,1.46-4.85,8.79,8.79,0,0,0,.64-3.08,13.3,13.3,0,0,0-.21-2.82c.91,1.31,2.24,1.8,2.89,3.79-.12-2.57-2-2.61-3.46-5.7a21.86,21.86,0,0,0-2.25-3.86"/><path class="cls-1" d="M51.09,25.54c1.12.17,2,.17,2.42-.95-4.13-2-4.1-6.1-8.84-8.26,2.6-1.94,1.91-3.76.67-5.58-1.28,2.27-3.49,2.58-4.85,1.84,1.91-.68,2.63-3.06,3.79-3.75-.69-.78-1.63-.82-2.7-.1-.59-1.57-2.5-1.06-2.79-1.06a2.38,2.38,0,0,1,.88,1.87c-.2,1.57-2.74,1.34-2.74,1.34.51-1.06.29-1.69-.86-2.23-.35.84-3.1,2-3.27,3.64-.28,2.61,2.81,4.19,5.52,5.66,3,1.61,1.89,3.36.8,3.42-.59,1.86,1.7,2.19,3,1.43,0,.25-.17,1.74-2.17,1.86a1.33,1.33,0,0,0,1,1,4.89,4.89,0,0,1-2.14.34,2.07,2.07,0,0,0,2,1.56,1.78,1.78,0,0,1-1,.76c1.19,1.17,4.36.4,5-.28.29-.31.67.14.31.6a3.72,3.72,0,0,1-3.26.63,1.11,1.11,0,0,0,.3,1.19,8.58,8.58,0,0,0-1.59.3c.12.55.74.86,1,1.08a2.35,2.35,0,0,0-.56,1c.58.29,2.16.72,3-.25.34-.38.72-.14.37.35-1.25,1.72-4.24,1.75-5.29,1.21,0,1.35.55,1.62,1.26,2.19-2.16,2.48-.74,4.7-2.26,6.87,2.87,0,4.7-1.57,5.18-3a1.21,1.21,0,0,0,1.1,1.13,3.09,3.09,0,0,1,.39-1.66,5.71,5.71,0,0,0,3,.64c-1.57-2.69,2.89-5.41,1.12-9.06-.26-.55.5-.9.58-.34.41,3.12,2.25,3.83,3.79,2.86-.46-.51-.67-.5-1-1,1,.27,1.57-.48,1.84-1.43-2.83-1-1.3-3.42-3.09-5.74m.23,6.21a5.47,5.47,0,0,0,.59,1.61c-2-.14-1.1-4.46-3.15-3.42a1.12,1.12,0,0,0-.49,1.52h0c1.35,2.78-1.72,5.23-1.54,7.67-.76,0-1.55,0-2-1A13.16,13.16,0,0,0,43.83,40l-.62-1A4.58,4.58,0,0,1,39,42.44c1-1.65-.21-3.89,2.31-6.29a9.55,9.55,0,0,1-1.3-1.08c3.11.37,6.34-2.09,4.87-3.25-1-.76-1.39.82-2.87.55l.58-.5c-.2-.2-.44-.46-.67-.67a4,4,0,0,0,1.34-.48l-.37-.62c3.63,0,3.72-2.78,2.25-2.89-.67-.05-1.59,1.22-3.83,1a4.09,4.09,0,0,0,.54-1.25,4.84,4.84,0,0,1-1.68-.3c1.09-.14,1.34-.51,2.27-1.19l-1-.39c1.53-.77,1.44-2.1,1.48-3.48-.8.46-1.75,1.17-2.74.84-.24-.08-.4-.19-.4-.44,1.44-.56,2.35-2.77-1.08-4.63-2.22-1.2-7.58-3.8-3.95-6.58A15.14,15.14,0,0,0,36.23,9.6c.58.44-.2,1.52-.4,1.92,0,0,1.21.13,1.49.13,1.87,0,3.83-1.12,2.85-3.24.74.16.83.87,1,1.48.48-.32,1.3-1,1.94-.91-.52,1.66-2.69,3.15-4.39,3.49,1.71.93,4.88,1.62,6.55-.38,1.17,2.26-.46,3.21-2.06,4.4,6.09,2.78,5.19,5.9,9.19,8.35-.52.25-2.84-.24-3-.27a12.51,12.51,0,0,1,1.53,2.15,10.45,10.45,0,0,1,.6,2.34,3.39,3.39,0,0,0,1.73,2.62c-.47.85-1.51.19-2,.07"/><path class="cls-1" d="M22.3,38.55l.87-.74L23,37.54c-.1-.18-.05-.2.05-.27l.46-.34a.34.34,0,0,1,.35,0l1.34.32H23.82a.57.57,0,0,0-.56.4l-.1.21-.37.76a.88.88,0,0,0,.14,1l.26.31L22.67,41h.45l.37-.75a2.4,2.4,0,0,0,.67-1c-.16-.13-.27-.22-.18-.4l.16-.36c.06-.12.08-.16.24-.13l1.44.32a.51.51,0,0,0,.64-.16c.2-.31.23-.27.68-.23l.73.08a3.81,3.81,0,0,0,2.41-.47,9.31,9.31,0,0,0,.54.8c0,.09,0,.22-.1.38l-.8,2H31.2l.73-1.81a.91.91,0,0,1,.24-.37L31.75,41H33l.33-2.16c.07-.48,0-.63-.2-.84-.52-.43-.51-1.34-.68-1.9a.44.44,0,0,1,.31-.06c.27,0,.47.71.8,1.15.63.9,1.49,1.88,2.49.49a3.43,3.43,0,0,0-.32-.43l-.28-.33c-.16-.18-.93-1-1.25-1.34a1.86,1.86,0,0,0-2.29-.27,3.39,3.39,0,0,0-2.33,0l-1.73-.11a.33.33,0,0,1-.28-.17l.32-.1a2.94,2.94,0,0,0-2.38-2.49s-.09-.4-.28-.48l-.4.47a1.26,1.26,0,0,0-.33.1l-1.7-.63,1.27,1.28a12.11,12.11,0,0,1-.84,1.1.37.37,0,0,0,0,.48l.25.32c.13.17.27.16.47.06l.28-.15c.12-.1.53.1.67-.06a4.86,4.86,0,0,0-.11,1l-1.15-.13a.56.56,0,0,0-.51.12l-1,.75a.84.84,0,0,0-.22,1.07Zm9.41.22-.77,1.9h-.48l.77-1.84c.08-.24-.07-.35-.26-.61a6.46,6.46,0,0,0,.84.4,1.19,1.19,0,0,0-.09.15m-7.45-4.13-.22.12c-.15.08-.23.12-.36,0l-.1-.13a.24.24,0,0,1,0-.3l.94-1.11-.87-.72,1.12.41.41-.51c.12.1.08.39.08.39A2.27,2.27,0,0,1,27.12,35a1,1,0,0,0,.67.46l1.93.12a2.47,2.47,0,0,1,2.14,0,2.23,2.23,0,0,1,.82-.32,2.5,2.5,0,0,1,2.07,1.2c.36.46.86,1.16.86,1.16-.22.26-.42.34-.6.28a.9.9,0,0,1-.44-.67,2,2,0,0,0-.67-.88,4.43,4.43,0,0,1,.3,1c-.75-.74-.9-1.66-1.43-1.78a.8.8,0,0,0-.76.34c.27.62.26,1.34.53,1.81a1.6,1.6,0,0,0,.34.47c.22.16.09.44.06.67l-.29,1.79h-.48l.31-1.76c.1-.53-1.4-.53-2.17-1.55-.67.77-2.48.57-3.28.45a.66.66,0,0,0-.8.29c-.1.18-.28.13-.39.1L24.4,37.9a.34.34,0,0,0-.46.18l0,0-.29.6a.28.28,0,0,0,.06.36l.14.14a1.27,1.27,0,0,1-.34.51l-.32-.36a.63.63,0,0,1,0-.67l.47-1A.38.38,0,0,1,24,37.5h1.79l-.55-.89c-.41-.67.27-1.86.16-2.43-.05.76-1,.41-1.1.52m-1.93,2.19.85-.67a.52.52,0,0,1,.42-.17l1.2.16a1.83,1.83,0,0,0,.26.57l-1.27-.27a.44.44,0,0,0-.41.11l-.6.45a.31.31,0,0,0-.06.39l.1.21-.42.32-.16-.3c-.16-.33-.18-.62.09-.83"/><path class="cls-1" d="M26,13.92a8.81,8.81,0,0,0,1.29.68v-.55l-1.81-.67s0,.22.52.58"/><path class="cls-1" d="M27.3,13.27v-.55L25.25,12a5,5,0,0,0,.76.62,8.76,8.76,0,0,0,1.29.67"/><path class="cls-1" d="M27.3,12v-.55l-2.25-.83s.44.36,1,.71A8.81,8.81,0,0,0,27.3,12"/><path class="cls-1" d="M33.61,19.49H35.9a1,1,0,0,0-1.12-.67,1.26,1.26,0,0,0-1.17.67"/><path class="cls-1" d="M31.2,10.66,29,11.48V12a9.24,9.24,0,0,0,1.28-.68c.52-.35,1-.71,1-.71"/><path class="cls-1" d="M30.76,13.35,29,14v.55a9.18,9.18,0,0,0,1.28-.67c.52-.36.52-.58.52-.58"/><path class="cls-1" d="M31,12l-2,.73v.55a9.24,9.24,0,0,0,1.28-.68,4.55,4.55,0,0,0,.77-.62"/><path class="cls-1" d="M21.47,18.82a1.05,1.05,0,0,0-1.12.67h2.3a1.29,1.29,0,0,0-1.18-.67"/><path class="cls-1" d="M32.69,9.19c0-1.29-2.17-2.45-4.57-2.45S23.56,7.9,23.56,9.19l.05.31,1,5.49-4.5,2.64a2.7,2.7,0,0,0-1.19,1.86h.83a1.83,1.83,0,0,1,1.91-1.6,2.87,2.87,0,0,1,2.28,1.6l.16.24.23.36H17.63a7.15,7.15,0,0,1,1,3.15V37.05c0,3.57,2.73,5.26,5.7,5.26,2.28,0,2.59-.1,3.85,1.15,1.26-1.26,1.57-1.15,3.86-1.15,3,0,5.69-1.69,5.69-5.26V23.22a7.14,7.14,0,0,1,1-3.15H32l.23-.36.16-.24a2.9,2.9,0,0,1,2.28-1.6,1.83,1.83,0,0,1,1.89,1.62h.83a2.67,2.67,0,0,0-1.17-1.86L31.68,15l1-5.48Zm-8.2.63L27.85,11v5.28l-2.49-1.31ZM25.31,21a3.35,3.35,0,0,0,2,1.23,1.74,1.74,0,0,0,.58,1,1.71,1.71,0,0,0,1.26,2.05h0a1.35,1.35,0,0,0,.91,1l-.71.81a1,1,0,0,1-.91.38l-3.15-.36c.13-.35-.23-.76-1.23-.58l1.24-3.46-.76-1.62-1.43,1.23L23,26.32l-.6-.3c-.8-.34-1,1.1-.28,1.11h.3a.34.34,0,0,0,.15.36.25.25,0,0,0-.09.34.23.23,0,0,0,.09.08.3.3,0,0,0-.12.41.19.19,0,0,0,.06.07.68.68,0,0,0,.21.93l.16.07c.45.12.73-.37.82-.68l4.91,1.52a1.67,1.67,0,0,0,1.76-.41l1.28-1.13a1.36,1.36,0,0,0,.67,1.62,6,6,0,0,0,0,1H19.54V23.2a6.38,6.38,0,0,0-.48-2.2Zm5.28,3.06a1.68,1.68,0,0,0,.07,1.65l-.21.21c-.92-.12-1.28-1.49-1.28-1.49a2.16,2.16,0,0,0,0,.36,1.28,1.28,0,0,1-.85-1.34,2.28,2.28,0,0,0,.68.23l.06-.4a1.41,1.41,0,0,1-1.17-1h.26a4.17,4.17,0,0,0,1.06-.14,1.78,1.78,0,0,0,1.22.7,1.91,1.91,0,0,0,.16,1.2m1.34,3.63a1.28,1.28,0,0,0-.21.42l-.51.47a2.52,2.52,0,0,0-.86-2l.54-.53.11.1a1.26,1.26,0,0,0,.92,1.53h0m-2.45-.21.42-.41a2.28,2.28,0,0,1,.82,2l-.45.43a2,2,0,0,1-.29.22,2.54,2.54,0,0,0-.49-2.25m-.91.35h0a.89.89,0,0,0,.46-.06,2.3,2.3,0,0,1,.19,2.16,2.28,2.28,0,0,1-.63-.09l-.16-.05a2.82,2.82,0,0,0,.13-2M27.5,27.7l.6.07a2.94,2.94,0,0,1-.29,1.84l-.67-.2a2.8,2.8,0,0,0,.38-1.72m-1.26-.14.72.09a2.84,2.84,0,0,1-.34,1.64l-.73-.22a2.36,2.36,0,0,0,.35-1.51m-2.92-.19a.33.33,0,0,1-.44-.15.34.34,0,0,1,0-.2,1.16,1.16,0,0,1,1.14,0c.18.12.32.43.56.63a4.93,4.93,0,0,1-.22.92.67.67,0,0,1-.63-.71.69.69,0,0,1,.18-.42.46.46,0,0,0-.57-.12m-.47,1.34a1.47,1.47,0,0,0,.46.11A.26.26,0,0,1,23,29h0a.26.26,0,0,1-.16-.32v0m-.67-1.92a.19.19,0,0,1,.09-.36c.2,0,.47.23.74.35a2.89,2.89,0,0,1-.83,0m.67,1.4c.14.14.58.09.58.09v.09c-.19.25-.72.14-.6-.18m.59-.29c-.32.13-.64,0-.54-.24.15.13.56.06.56.06Zm.45-3.62-.6,2.17.21-3.51.92-.79.47,1-1.19,3.41L24,24.27c0-.17-.1-.19-.13,0m.1,2.61a3.46,3.46,0,0,1,.85,0c.14.06.05.29-.13.27a3.82,3.82,0,0,1-.72-.31m1,.53.72.09a2.37,2.37,0,0,1-.29,1.4l-.67-.21a4.71,4.71,0,0,0,.28-1.34M36.76,37a4,4,0,0,1-2.07,3.67l.46-.94H34.7L34.11,41a5.75,5.75,0,0,1-2.09.36c-2.36,0-3,.1-3.86,1-.88-.86-1.5-1-3.85-1A6,6,0,0,1,22.22,41h0l.59-1.21h-.45l-.53,1.06-.36-.19.43-.86h-.44l-.33.67a4,4,0,0,1-1.6-3.36v-5.3H36.72Zm.48-16a6.12,6.12,0,0,0-.49,2.19v8.07h-.94A5.63,5.63,0,0,1,35,29.46a2.26,2.26,0,0,0,.29,1.79H34.1a7,7,0,0,1-.56-1.84,2,2,0,0,0,.09,1.84h-.8a4,4,0,0,1,.12-1.2c-.42-.08-.87-.3-.87-.76a.62.62,0,0,0,.59.19l.35-.27c-1.14,0-1.19-1.2-.29-1.79-.9,0-1.57-.5-1.24-1.45a1.35,1.35,0,0,1-.41-1.86l0,0a1.59,1.59,0,0,1-.18-1.59A1.74,1.74,0,0,1,29.68,22H29.6A3.12,3.12,0,0,0,31,21ZM33.81,17.1c-.93.16-1.73,1.31-2.39,2.33l-.07.13h-.67v.12a2.28,2.28,0,0,1-2.49,1.86A2.72,2.72,0,0,1,26.45,21a2,2,0,0,1-.67-1,2,2,0,0,1-.08-.35v-.12H25l-.17-.07c-.67-1-1.45-2.17-2.38-2.33L25,15.68l3.13,1.68,3.11-1.69Zm-2.9-2.2-2.49,1.31V11l3.36-1.15Zm-2.77-4.52-3.7-1.45c.31-.74,1.76-1.34,3.69-1.34s3.36.63,3.69,1.34Z"/><path class="cls-1" d="M36.33,26.21V25.8c-1.24,0-1.53-1.49-1.53-1.49a1.49,1.49,0,0,0,1,1.84,1.4,1.4,0,0,0,.5.06"/><path class="cls-1" d="M34.76,28.72l-.13-.38c-1.05.27-1.59-1.41-1.59-1.41a1.42,1.42,0,0,0,1.72,1.79"/><path class="cls-1" d="M35.53,27.16c-1.26.2-1.78-1.27-1.78-1.27a1.43,1.43,0,0,0,1.12,1.69H35a1.12,1.12,0,0,0,.84,1.33,1.09,1.09,0,0,0,.79-.12l-.12-.36a.82.82,0,0,1-.93-1.28"/><path class="cls-1" d="M34.74,23v-.4c-1.66-.34-1.52-1.49-1.52-1.49a1.48,1.48,0,0,0,1,1.84,1.6,1.6,0,0,0,.49.05"/><polygon class="cls-1" points="24.16 39.78 23.57 40.99 24.02 40.99 24.61 39.78 24.16 39.78"/><polygon class="cls-1" points="25.07 39.78 24.47 40.99 24.92 40.99 25.52 39.78 25.07 39.78"/><polygon class="cls-1" points="28.68 39.78 28.08 40.99 28.53 40.99 29.13 39.78 28.68 39.78"/><polygon class="cls-1" points="29.59 39.78 28.99 40.99 29.44 40.99 30.03 39.78 29.59 39.78"/><polygon class="cls-1" points="27.78 39.78 27.18 40.99 27.63 40.99 28.23 39.78 27.78 39.78"/><polygon class="cls-1" points="33.05 40.99 33.51 40.99 34.1 39.78 33.65 39.78 33.05 40.99"/><polygon class="cls-1" points="25.97 39.78 25.38 40.99 25.82 40.99 26.42 39.78 25.97 39.78"/><polygon class="cls-1" points="26.87 39.78 26.27 40.99 26.73 40.99 27.32 39.78 26.87 39.78"/><path class="cls-1" d="M24.83,33.26a.2.2,0,0,0-.22.16.18.18,0,0,0,.15.21.19.19,0,0,0,.22-.15v0a.18.18,0,0,0-.15-.19"/><path class="cls-1" d="M28.14,5.92A6.8,6.8,0,0,1,32.29,7.2a8.22,8.22,0,0,1,1.07-2.76l-1.49.16-.78-1.66-1.5.78L28.14,2.28,26.68,3.72l-1.51-.78L24.39,4.6,22.9,4.44A8.24,8.24,0,0,1,24,7.2a6.81,6.81,0,0,1,4.16-1.28m-3.48-.67.71-1.51,1.34.68L28.14,3l1.45,1.44,1.35-.68.67,1.51.87-.14a7.9,7.9,0,0,0-.55,1.31,7.79,7.79,0,0,0-7.6,0,7.9,7.9,0,0,0-.55-1.31Z"/><path class="cls-1" d="M29.66,3a.39.39,0,0,0,.42-.36h0a2.86,2.86,0,0,0-.3-.8s-.48.51-.49.73a.39.39,0,0,0,.36.42"/><path class="cls-1" d="M32.09,3.84a.41.41,0,0,0,.54-.17,2.38,2.38,0,0,0,0-.84s-.63.28-.73.48a.41.41,0,0,0,.16.53"/><path class="cls-1" d="M26.6,3A.41.41,0,0,0,27,2.53c0-.23-.49-.73-.49-.73a2.31,2.31,0,0,0-.3.79A.41.41,0,0,0,26.6,3"/><path class="cls-1" d="M24.16,3.84a.4.4,0,0,0,.16-.53c-.1-.2-.73-.48-.73-.48a2.38,2.38,0,0,0,0,.84.38.38,0,0,0,.52.17h0"/><path class="cls-1" d="M53.48,17.28a2.12,2.12,0,0,0,1.13-1.15c-1.35-.19-4.85-1.66-7.75-.46C48,14.64,48.92,14.51,49,13a1,1,0,0,0,1.48,0,1.77,1.77,0,0,0,.16-.22c-.3-.88-1.06-.17-1.16-.41s1,.11,1.19-1c-.85-.3-1.11.4-1.26.24s.54-.45,0-1.34c-.89.52-.43,1.11-.62,1.17s0-.63-1-.59c-.09,1.05.93,1.08.75,1.25s-.46-.6-1.21-.19A1.09,1.09,0,0,0,48.78,13c-.11,1.62-1.6,1.34-2.69,3.14,2.35,1.21,3.4,3.3,4.85,4.75A8.46,8.46,0,0,0,52.23,19a1.9,1.9,0,0,0,2.68,0h0c-.54-.55-.56-1-1.38-1.72m-2.27.29A2.66,2.66,0,0,1,51,20.15a10.52,10.52,0,0,0-3-3.87c-.21-.14.12-.39.72-.46,1.8-.34,3.91.42,4.92.67a2.64,2.64,0,0,1-1.34.57,8.26,8.26,0,0,1,1.64,1.7c-.72.18-1.11-.27-2.64-1.19"/><path class="cls-1" d="M36.16,44.59v-2a18.07,18.07,0,0,1-6,1.5l-.11.71c.21,0,.48,0,.84.08a20.78,20.78,0,0,1-5.57,0,5.3,5.3,0,0,0,.84-.08L26,44.11a18.15,18.15,0,0,1-6-1.5v2l-2,.85a25.64,25.64,0,0,0,5.37,2l-.24.82a18.46,18.46,0,0,0,10,0L33,47.42a25.64,25.64,0,0,0,5.37-2Zm-17,.9,1.4-.57V43.31a23.38,23.38,0,0,0,3.77,1l-.79,2.59a22.56,22.56,0,0,1-4.38-1.47m9,3a19.09,19.09,0,0,1-4.45-.55l.84-2.69a21.75,21.75,0,0,0,7.2,0l.84,2.69a18.94,18.94,0,0,1-4.44.55M32.75,47l-.8-2.6a23.13,23.13,0,0,0,3.77-1.05v1.61l1.4.56a22.47,22.47,0,0,1-4.37,1.47"/><path class="cls-1" d="M4.05,19a8.46,8.46,0,0,0,1.29,1.84c1.45-1.44,2.51-3.54,4.85-4.74-1.11-1.82-2.6-1.52-2.69-3.15a1.11,1.11,0,0,0,1.37-.74,1.23,1.23,0,0,0,0-.38c-.75-.41-1,.4-1.21.2s.85-.21.75-1.26c-1,0-.8.67-1,.59s.27-.67-.61-1.17c-.51.93.18,1.22,0,1.34s-.41-.53-1.27-.24c.23,1.15,1.35.67,1.19,1s-.86-.47-1.16.41A1,1,0,0,0,7,13.16.69.69,0,0,0,7.24,13c.1,1.49,1.07,1.61,2.15,2.64-2.89-1.2-6.41.28-7.74.47a2.09,2.09,0,0,0,1.13,1.13A14.54,14.54,0,0,0,1.43,19a1.92,1.92,0,0,0,2.69,0m-1.64-.22A7.88,7.88,0,0,1,4.13,17a2.67,2.67,0,0,1-1.35-.57c1-.27,3.13-1,4.93-.67.59.08.93.32.71.45a10.73,10.73,0,0,0-3,3.87,2.64,2.64,0,0,1-.28-2.55c-1.52.92-1.92,1.34-2.63,1.19"/><path class="cls-1" d="M26.86,17.89v.87a1.1,1.1,0,0,1,.88-.29v1.26a1.75,1.75,0,0,1-.24.89h1.26a2,2,0,0,1-.24-.89V18.47a1.07,1.07,0,0,1,.88.29v-.88H26.86Z"/><path class="cls-2" d="M55.61,18.26a3.08,3.08,0,0,1-.37-.5L55,17.44a3.25,3.25,0,0,0,.54-.87l.57-1.28-1.38-.2a9.74,9.74,0,0,1-1-.25,20.53,20.53,0,0,0-3.12-.63,2.11,2.11,0,0,0,1-.92l.23-.41s-.06-.58-.28-.76a2.32,2.32,0,0,0,.19-.58l.19-.92-.88-.3a2.73,2.73,0,0,0-.41-.1,2.7,2.7,0,0,0-.22-.53l-.54-.95-1,.55a2.4,2.4,0,0,0-.59.47,2.28,2.28,0,0,0-.45,0,2.72,2.72,0,0,0-1.13.15L46,9.09l-.9-1a2.79,2.79,0,0,0-3.16-.73,3,3,0,0,0-2.22-.81,5.1,5.1,0,0,0-.87.07,5.2,5.2,0,0,0-2.31,1.06l-1-.49a3.63,3.63,0,0,1-1.84,1.41,2.57,2.57,0,0,0-.41-.87l.07-.37A7.45,7.45,0,0,1,34.25,5l1.2-1.88-1.7.22q0-.3,0-.6L33.59,1.3l-1.34.6-.39.2-.26-.57L31,1.85c-.08-.18-.16-.35-.25-.52L30,0,29,1.08l-.27.31-.61-.6-.61.61-.26-.31L26.25,0l-.71,1.3a3.54,3.54,0,0,0-.25.52l-.61-.31-.27.56L24,1.87l-1.35-.6-.14,1.47a3,3,0,0,0,0,.6l-1.72-.2L22,5a7.2,7.2,0,0,1,.91,2.37l.06.38a2.57,2.57,0,0,0-.41.87,5.21,5.21,0,0,1-1.84-1.42l-1,.49a5.23,5.23,0,0,0-3.18-1.14,2.92,2.92,0,0,0-2.2.82,2.78,2.78,0,0,0-3.14.73,12.62,12.62,0,0,1-.9,1,4.38,4.38,0,0,1-.87.67,4.09,4.09,0,0,0-1.48,0,3,3,0,0,0-.64-.47l-.91-.53-.52,1a2.74,2.74,0,0,0-.23.53,2.22,2.22,0,0,0-.41.1l-.87.3.18.91a2.57,2.57,0,0,0,.2.59,1.73,1.73,0,0,0-.14.31l-.14.44.22.41a2.2,2.2,0,0,0,1,.94,21,21,0,0,0-3.12.63c-.43.11-.81.21-1,.25l-1.39.2L.44,16l.25.56a3.56,3.56,0,0,0,.57.89,8.13,8.13,0,0,1-.59.82L0,19l.67.74a2.86,2.86,0,0,0,2.06.88,3,3,0,0,0,1-.17,5.21,5.21,0,0,0,1.06,1.28,7.22,7.22,0,0,1-2.43,1.92l-.89.41.38,1a2.46,2.46,0,0,0,1.65,1.52,10.3,10.3,0,0,0-.43,1.63c-.2,1.19-.28,1.68-1.34,2l-.94.33.27.95a3.47,3.47,0,0,0,.88,1.67l-.63.67a7,7,0,0,0,2.93,1.25,2.43,2.43,0,0,0,1.82-.63,13.72,13.72,0,0,0,.89,2.22c.67,1.38,1,2.2.57,2.94l-1,1.68,2-.08A11.75,11.75,0,0,0,10.83,41v.11l-.17,1.45,1.71-.36a2.28,2.28,0,0,0,.51-.21,6.77,6.77,0,0,0,5.28,2.2h.14l-2.79,1.15,2,1.05A25.23,25.23,0,0,0,22,48.16L21.8,49l1,.29a19.29,19.29,0,0,0,10.6,0l1-.29-.25-.81a25.36,25.36,0,0,0,4.54-1.79l2-1.06L38,44.17h.14A6.77,6.77,0,0,0,43.36,42a2.85,2.85,0,0,0,.51.2l1.7.37-.15-1.45V41a11.39,11.39,0,0,0,2.33.26l1.94.08-1-1.67c-.44-.75-.08-1.57.57-2.95a13.61,13.61,0,0,0,.89-2.21,3,3,0,0,0,1.18.54,2.59,2.59,0,0,0,.62.1,2.91,2.91,0,0,0,1.88-.59l1.08-.67-.63-.67a3.59,3.59,0,0,0,.89-1.62l.27-1-.94-.33c-1.05-.37-1.13-.86-1.35-2a10.48,10.48,0,0,0-.37-1.66,2.48,2.48,0,0,0,1.65-1.52l.37-1-.88-.42a7.13,7.13,0,0,1-2.44-1.92,4.87,4.87,0,0,0,1.07-1.28,2.8,2.8,0,0,0,1,.18h0a2.94,2.94,0,0,0,2-.88l.68-.74Z"/><path class="cls-3" d="M19.53,31.29V23.23A6.14,6.14,0,0,0,19.06,21h6.25a3.66,3.66,0,0,0,5.15.47,3.48,3.48,0,0,0,.47-.47h6.26a6.14,6.14,0,0,0-.47,2.19v8.06Zm8.61,11.05c-.88-.88-1.5-1-3.86-1-2.82,0-4.7-1.66-4.7-4.3v-5.3H36.76v5.28c0,2.64-1.91,4.3-4.71,4.3-2.35,0-3,.09-3.85,1"/><path class="cls-2" d="M20.53,43.32v1.61l-1.4.56A22.56,22.56,0,0,0,23.51,47l.79-2.61a24.49,24.49,0,0,1-3.77-1.05"/><path class="cls-2" d="M28.14,45.49a18.21,18.21,0,0,1-3.61-.3l-.84,2.69a17.8,17.8,0,0,0,8.88,0l-.84-2.69a18,18,0,0,1-3.59.3"/><path class="cls-2" d="M35.72,43.32a24.13,24.13,0,0,1-3.77,1l.8,2.58a23,23,0,0,0,4.36-1.46l-1.39-.57Z"/><path class="cls-2" d="M17.61,17.33c2.19-1.2,7.54-3.78,3.91-6.58A18.61,18.61,0,0,1,20,9.6c-.57.44.21,1.52.41,1.92,0,0-1.21.12-1.5.12-1.87,0-3.82-1.12-2.83-3.23-.74.15-.83.86-1.06,1.48-.48-.33-1.3-1-1.94-.92.51,1.66,2.69,3.15,4.39,3.49-1.71.93-4.88,1.63-6.55-.38-1.17,2.26.46,3.21,2.06,4.4-6.09,2.77-5.2,5.89-9.19,8.35a10.12,10.12,0,0,0,3-.28,13.62,13.62,0,0,0-1.56,2.14A10,10,0,0,0,4.7,29,3.35,3.35,0,0,1,3,31.65c.47.85,1.52.19,2,.07a5.28,5.28,0,0,1-.6,1.62c2.05-.14,1.11-4.46,3.16-3.42A1.13,1.13,0,0,1,8,31.44H8c-1.35,2.78,1.71,5.23,1.55,7.67a1.82,1.82,0,0,0,2-1A13.21,13.21,0,0,1,12.42,40L13,39a4.58,4.58,0,0,0,4.17,3.47c-1-1.65.21-3.89-2.32-6.28a9.06,9.06,0,0,0,1.31-1.08c-3.1.37-6.34-2.09-4.87-3.25,1-.76,1.38.82,2.87.55l-.58-.49c.2-.21.43-.47.67-.68a4.19,4.19,0,0,1-1.34-.47l.37-.62c-3.63,0-3.72-2.78-2.25-2.89.67-.05,1.59,1.22,3.82,1a4.06,4.06,0,0,1-.53-1.25,4.84,4.84,0,0,0,1.68-.3c-1.08-.14-1.34-.5-2.27-1.19L14.81,25c-1.46-.76-1.38-2.1-1.46-3.48.8.46,1.74,1.17,2.75.84.24-.08.39-.19.4-.44-1.44-.56-2.35-2.77,1.08-4.63M15,17.55c-1.92,2.05-1.09,3.28-.67,3.65-.72-.15-1.78-1.06-1.54-1.94a10,10,0,0,0-.67.87c-.48.63-.9,1.26-1.28,1.86a3.58,3.58,0,0,0,2.3,4.31,3.4,3.4,0,0,1-2.92-3.23A10.08,10.08,0,0,0,8.8,27.94a14.15,14.15,0,0,0,.14,1.46c.46.88,1.21,1.2,2.53,1.34-1.2.08-1.84,0-2.36-.53.82,3.52,4.65,6.58,6.21,9.2-1.56-2-4.8-5.06-5.93-7.25a6.54,6.54,0,0,0,1.11,4A6.2,6.2,0,0,1,9,31.35a8.83,8.83,0,0,1-.63-3.09,12.63,12.63,0,0,1,.21-2.81c-.92,1.3-2.24,1.8-2.89,3.78.13-2.55,2-2.59,3.46-5.7a21.73,21.73,0,0,1,2.24-3.85,6.24,6.24,0,0,0-3.28,2.06c.93-2.2,6.29-4.66,8.74-7-.74.15-3.75.24-5-.6,2.27.61,7.31-.09,9.21-1.4-1.34,1.89-4.17,2-7.66,5.76a9.38,9.38,0,0,1,1.58-1"/><path class="cls-2" d="M51.53,29a10.43,10.43,0,0,0-.59-2.34,13.08,13.08,0,0,0-1.53-2.15c.2,0,2.52.52,3,.28-4-2.46-3.1-5.57-9.18-8.36,1.6-1.19,3.23-2.13,2.06-4.4-1.67,2-4.85,1.35-6.55.39,1.69-.34,3.87-1.84,4.39-3.49-.67-.1-1.46.59-1.94.91-.23-.61-.32-1.34-1-1.48,1,2.13-1,3.23-2.84,3.24-.29,0-1.49-.13-1.49-.13.19-.39,1-1.47.4-1.91a18.46,18.46,0,0,1-1.49,1.15c-3.63,2.81,1.73,5.41,3.92,6.59,3.43,1.86,2.52,4,1.08,4.63,0,.25.16.36.4.44,1,.33,1.94-.39,2.74-.84,0,1.38,0,2.69-1.48,3.48l1.05.39a4,4,0,0,1-2.27,1.19,4.85,4.85,0,0,0,1.69.3,4.09,4.09,0,0,1-.54,1.25c2.24.27,3.14-1,3.82-1,1.48.11,1.39,2.89-2.25,2.89l.38.62a4.28,4.28,0,0,1-1.34.47,7.15,7.15,0,0,1,.67.68l-.58.49c1.48.27,1.9-1.34,2.86-.55C46.37,33,43.14,35.43,40,35.06a9.55,9.55,0,0,0,1.3,1.08c-2.53,2.39-1.28,4.64-2.32,6.28A4.6,4.6,0,0,0,43.2,39l.61,1a13.67,13.67,0,0,1,.87-1.91,1.87,1.87,0,0,0,2,1c-.17-2.44,2.89-4.89,1.54-7.67a1.13,1.13,0,0,1,.49-1.53h0c2.05-1,1.1,3.28,3.15,3.42a5.43,5.43,0,0,1-.59-1.62c.43.12,1.48.78,2-.07A3.41,3.41,0,0,1,51.5,29M47.66,25.5a13.21,13.21,0,0,1,.21,2.81,8.89,8.89,0,0,1-.64,3.09,6.11,6.11,0,0,1-1.46,4.84,6.56,6.56,0,0,0,1.11-4c-1.14,2.19-4.37,5.21-5.94,7.24,1.57-2.61,5.38-5.66,6.22-9.19-.53.55-1.16.6-2.36.53,1.34-.16,2.06-.48,2.52-1.34A14.42,14.42,0,0,0,47.46,28a10.06,10.06,0,0,0-1.39-4.87,3.39,3.39,0,0,1-2.91,3.23A3.59,3.59,0,0,0,45.45,22c-.37-.6-.8-1.22-1.27-1.86l-.68-.87c.25.88-.81,1.78-1.53,1.94.39-.38,1.21-1.61-.68-3.66a9.38,9.38,0,0,1,1.58,1c-3.48-3.76-6.34-3.86-7.66-5.76,1.91,1.31,6.95,2,9.22,1.4-1.25.83-4.27.76-5,.6,2.45,2.39,7.82,4.86,8.73,7.05a6.2,6.2,0,0,0-3.28-2.06,21.77,21.77,0,0,1,2.25,3.85c1.43,3.1,3.36,3.14,3.46,5.7-.67-2-2-2.48-2.89-3.78"/><path class="cls-2" d="M30.94,21a3.46,3.46,0,0,1-2.81,1.35,4.26,4.26,0,0,1-.8-.08,1.69,1.69,0,0,0,.58.94,1.71,1.71,0,0,0,1.26,2.06h0a1.35,1.35,0,0,0,.91,1l-.67.81a1,1,0,0,1-.92.37l-3.15-.35c.14-.35-.23-.75-1.22-.58l1.23-3.47-.78-1.6-1.43,1.23-.11,3.63-.62-.3c-.79-.34-1,1.1-.27,1.11h.3a.36.36,0,0,0,.15.37.24.24,0,0,0-.09.33.2.2,0,0,0,.09.09.32.32,0,0,0-.11.42l.05.06a.67.67,0,0,0,.22.92.51.51,0,0,0,.15.07c.46.12.74-.37.84-.67l4.9,1.52a1.67,1.67,0,0,0,1.77-.42l1.27-1.12a1.35,1.35,0,0,0,.68,1.61,5.06,5.06,0,0,0-.06.95h4.42V23.24a6,6,0,0,1,.48-2.2H30.94Z"/><path class="cls-2" d="M23.59,34.61l.1.12c.13.16.21.13.36,0l.22-.12c.14-.11,1.06.24,1.1-.52.11.57-.57,1.76-.16,2.43l.54.9H24a.38.38,0,0,0-.35.23l-.47,1a.72.72,0,0,0,0,.68l.32.35a1.18,1.18,0,0,0,.34-.51L23.7,39a.27.27,0,0,1-.05-.36l.29-.59a.35.35,0,0,1,.43-.25l0,0,1.45.31c.11,0,.27.08.38-.1a.67.67,0,0,1,.81-.29c.79.12,2.63.31,3.28-.46.76,1,2.26,1,2.17,1.55l-.33,1.81h.48l.28-1.79c0-.21.17-.5-.06-.67s-.14-.11-.35-.47-.25-1.19-.52-1.81a.78.78,0,0,1,.75-.34c.53.13.68,1,1.43,1.79a4.36,4.36,0,0,0-.3-1,2.13,2.13,0,0,1,.67.87.88.88,0,0,0,.43.67c.18.07.39,0,.6-.27l-.86-1.16a2.46,2.46,0,0,0-2.06-1.2,2.05,2.05,0,0,0-.82.31,2.59,2.59,0,0,0-2.14,0l-1.93-.12A1.08,1.08,0,0,1,27.1,35a2.26,2.26,0,0,0-1.81-2.28s0-.29-.07-.39l-.4.5-1.12-.41.87.72-.94,1.12a.26.26,0,0,0,0,.31"/><path class="cls-2" d="M22.33,36.89c-.27.21-.25.5-.09.83l.16.3.42-.32-.09-.21a.31.31,0,0,1,.05-.39l.61-.46a.41.41,0,0,1,.4-.1l1.27.27a2.09,2.09,0,0,1-.26-.57l-1.19-.15a.5.5,0,0,0-.43.16Z"/><path class="cls-2" d="M30.47,40.67H31l.77-1.9.09-.15a6.46,6.46,0,0,1-.84-.4c.2.26.34.37.26.61Z"/><path class="cls-2" d="M30.87,15l.89-5.12L28.4,11v5.28ZM29,11.5l2.24-.83s-.44.36-.95.71a8.81,8.81,0,0,1-1.29.68Zm0,1.23L31,12a5,5,0,0,1-.76.62,8.76,8.76,0,0,1-1.29.67Zm0,1.35,1.8-.67s0,.22-.52.57a9.18,9.18,0,0,1-1.28.67Z"/><path class="cls-2" d="M24.86,19.49l.08.12h.67v.12a2.29,2.29,0,0,0,.07.36,2.07,2.07,0,0,0,.68.95,2.71,2.71,0,0,0,1.74.56,2.27,2.27,0,0,0,2.48-1.87v-.12h.67l.08-.12c.67-1,1.46-2.17,2.38-2.33l-2.54-1.48-3,1.69L25,15.68l-2.54,1.47c.93.16,1.73,1.3,2.39,2.33"/><path class="cls-2" d="M27.87,16.26V11L24.51,9.82,25.39,15ZM27.3,14.6A9.24,9.24,0,0,1,26,13.92c-.52-.35-.52-.57-.52-.57l1.8.67Zm0-3.11V12A9.24,9.24,0,0,1,26,11.36c-.52-.35-1-.71-1-.71Zm0,1.24v.54A9.18,9.18,0,0,1,26,12.6a5.1,5.1,0,0,1-.77-.62Z"/><path class="cls-2" d="M28.14,7.57c-1.93,0-3.36.63-3.69,1.34l3.69,1.49,3.68-1.46c-.32-.74-1.75-1.35-3.68-1.35"/><path class="cls-2" d="M28.14,5.46a7.88,7.88,0,0,1,3.8,1,6.76,6.76,0,0,1,.55-1.3l-.87.14L31,3.77l-1.35.67L28.14,3,26.68,4.47,25.34,3.8l-.69,1.48-.87-.14a7.46,7.46,0,0,1,.55,1.3,7.89,7.89,0,0,1,3.81-1"/><path class="cls-2" d="M52.19,17.06a2.67,2.67,0,0,0,1.35-.57c-1-.27-3.12-1-4.92-.67-.6.08-.93.32-.71.46a10.69,10.69,0,0,1,3,3.88,2.65,2.65,0,0,0,.28-2.55c1.52.92,1.92,1.34,2.63,1.19a7.83,7.83,0,0,0-1.64-1.71"/><path class="cls-2" d="M5.34,20.16a10.6,10.6,0,0,1,3-3.87c.22-.14-.12-.38-.71-.46-1.8-.34-3.92.43-4.92.67a2.57,2.57,0,0,0,1.34.58,7.78,7.78,0,0,0-1.64,1.7c.71.18,1.11-.27,2.63-1.19a2.69,2.69,0,0,0,.28,2.56"/><path class="cls-4" d="M15.89,36.29c.67-.56,1.29-.84,1.26-2.18-1.06.54-4,.51-5.29-1.21-.36-.49,0-.73.36-.35.86,1,2.44.53,3,.25a2.29,2.29,0,0,0-.53-1c.21-.22.82-.53,1-1.08a7.44,7.44,0,0,0-1.63-.3,1.09,1.09,0,0,0,.31-1.19,3.7,3.7,0,0,1-3.26-.62c-.37-.48,0-.92.31-.6.67.67,3.82,1.45,5,.27a1.7,1.7,0,0,1-1-.75c1.09-.11,2-.75,2-1.56a4.86,4.86,0,0,1-2.13-.33,1.37,1.37,0,0,0,1-1c-2-.12-2.16-1.6-2.17-1.85,1.3.75,3.6.41,3-1.43-1.08-.06-2.17-1.82.81-3.42,2.69-1.47,5.79-3.05,5.52-5.66-.18-1.66-2.93-2.8-3.27-3.64-1.14.54-1.34,1.17-.86,2.23,0,0-2.55.26-2.76-1.34a2.42,2.42,0,0,1,.89-1.87c-.29,0-2.21-.52-2.79,1-1.07-.73-2-.71-2.72.07,1.16.67,1.88,3,3.79,3.74-1.34.74-3.56.43-4.85-1.84-1.22,1.83-1.92,3.65.67,5.58-4.75,2.17-4.7,6.29-8.84,8.26.41,1.12,1.3,1.12,2.42,1C3.33,27.83,4.85,30.26,2,31.25c.27,1,.8,1.7,1.84,1.42-.29.47-.49.45-.95,1,1.55,1,3.36.27,3.79-2.85.07-.56.84-.21.58.33C5.52,34.76,10,37.5,8.39,40.17a5.66,5.66,0,0,0,3-.64,3,3,0,0,1,.39,1.66,1.21,1.21,0,0,0,1.1-1.13c.5,1.47,2.3,3,5.17,3-1.45-2.15,0-4.36-2.19-6.81M13.05,39l-.61,1a14.33,14.33,0,0,0-.87-1.91,1.87,1.87,0,0,1-2,1c.15-2.47-2.92-4.92-1.57-7.7a1.13,1.13,0,0,0-.49-1.53h0c-2-1-1.1,3.28-3.16,3.42a5.28,5.28,0,0,0,.6-1.62c-.43.12-1.48.78-1.95-.07A3.35,3.35,0,0,0,4.72,29a10,10,0,0,1,.57-2.34,13.93,13.93,0,0,1,1.52-2.15c-.2,0-2.51.52-3,.28,4-2.46,3.09-5.57,9.18-8.36-1.6-1.19-3.23-2.13-2.05-4.4,1.66,2,4.83,1.35,6.55.39-1.69-.34-3.87-1.84-4.39-3.49.64-.1,1.47.59,1.94.91.23-.61.32-1.34,1.06-1.48-1,2.12,1,3.23,2.83,3.24.29,0,1.5-.13,1.5-.13-.19-.39-1-1.47-.41-1.91a18.61,18.61,0,0,0,1.5,1.15c3.63,2.81-1.73,5.41-3.92,6.59-3.43,1.86-2.51,4.07-1.08,4.63,0,.25-.16.36-.4.44-1,.33-1.94-.39-2.74-.84,0,1.38,0,2.69,1.48,3.48l-1.05.38c.9.67,1.18,1.06,2.27,1.2a5.07,5.07,0,0,1-1.68.29,4,4,0,0,0,.53,1.25c-2.23.27-3.13-1-3.82-1-1.48.11-1.38,2.89,2.25,2.89l-.37.62a4,4,0,0,0,1.34.48,6.06,6.06,0,0,0-.67.67l.58.5c-1.49.27-1.91-1.35-2.87-.55-1.46,1.16,1.77,3.61,4.87,3.25a9.7,9.7,0,0,1-1.31,1.07c2.53,2.39,1.28,4.64,2.32,6.29a4.58,4.58,0,0,1-4.16-3.48"/><path class="cls-4" d="M9.07,30.24c.53.55,1.16.6,2.37.53-1.35-.16-2.07-.48-2.54-1.34A12,12,0,0,1,8.78,28a10,10,0,0,1,1.37-4.87,3.42,3.42,0,0,0,2.92,3.23A3.59,3.59,0,0,1,10.77,22c.38-.6.81-1.22,1.28-1.86.24-.3.47-.6.67-.87-.24.88.82,1.78,1.53,1.94-.38-.38-1.21-1.61.68-3.66a9.38,9.38,0,0,0-1.58,1c3.48-3.76,6.35-3.86,7.66-5.76-1.84,1.28-6.88,2-9.16,1.34,1.25.84,4.27.76,5,.61-2.46,2.38-7.82,4.86-8.73,7A6.26,6.26,0,0,1,11.4,19.7a22.17,22.17,0,0,0-2.24,3.86c-1.43,3.1-3.36,3.14-3.46,5.7.67-2,2-2.49,2.89-3.78a13.21,13.21,0,0,0-.21,2.81A8.87,8.87,0,0,0,9,31.38a6.13,6.13,0,0,0,1.47,4.84,6.49,6.49,0,0,1-1.11-4c1.13,2.19,4.37,5.21,5.93,7.24-1.56-2.61-5.37-5.66-6.21-9.19"/><path class="cls-4" d="M44.87,19.73a6.3,6.3,0,0,1,3.28,2.06c-.93-2.19-6.3-4.66-8.74-7,.74.16,3.75.24,5-.6-2.26.62-7.3-.09-9.21-1.39,1.34,1.89,4.18,2,7.66,5.76a8.23,8.23,0,0,0-1.58-1c1.92,2.05,1.09,3.28.67,3.65.71-.15,1.78-1.06,1.54-1.94a8.35,8.35,0,0,1,.67.87c.48.63.9,1.26,1.28,1.86a3.59,3.59,0,0,1-2.3,4.31,3.39,3.39,0,0,0,2.91-3.23,10.09,10.09,0,0,1,1.39,4.87,14.15,14.15,0,0,1-.14,1.46c-.46.88-1.21,1.2-2.53,1.34,1.21.08,1.84,0,2.36-.53-.82,3.52-4.65,6.58-6.21,9.2,1.56-2,4.8-5.06,5.93-7.25a6.54,6.54,0,0,1-1.11,4,6.21,6.21,0,0,0,1.47-4.85,9,9,0,0,0,.63-3.08,12.06,12.06,0,0,0-.21-2.81c.91,1.3,2.24,1.8,2.89,3.78-.13-2.55-2-2.59-3.47-5.7a21.13,21.13,0,0,0-2.24-3.85"/><path class="cls-4" d="M51.08,25.54c1.12.17,2,.17,2.42-.95-4.13-2-4.09-6.1-8.84-8.26,2.61-1.94,1.91-3.75.67-5.58-1.28,2.27-3.49,2.58-4.85,1.84,1.91-.68,2.64-3.06,3.79-3.75-.68-.78-1.63-.78-2.69-.1-.59-1.57-2.5-1-2.79-1a2.36,2.36,0,0,1,.88,1.87c-.2,1.57-2.74,1.34-2.74,1.34.51-1.06.29-1.69-.86-2.24-.35.85-3.1,2-3.27,3.65-.28,2.61,2.81,4.19,5.52,5.65,3,1.62,1.89,3.36.8,3.42-.59,1.86,1.7,2.19,3,1.43,0,.25-.18,1.74-2.17,1.86a1.34,1.34,0,0,0,1,1,4.89,4.89,0,0,1-2.14.33,2.07,2.07,0,0,0,2,1.56,1.75,1.75,0,0,1-1,.76c1.18,1.18,4.36.4,5-.27.29-.31.67.12.3.59a3.7,3.7,0,0,1-3.26.63,1.08,1.08,0,0,0,.35,1.2,7.7,7.7,0,0,0-1.59.3c.12.55.73.86,1,1.08a2.24,2.24,0,0,0-.56,1c.57.29,2.16.72,3-.25.34-.38.72-.14.37.35-1.25,1.72-4.24,1.75-5.29,1.21,0,1.35.55,1.62,1.25,2.18-2.15,2.49-.73,4.7-2.25,6.87,2.87,0,4.7-1.57,5.17-3a1.21,1.21,0,0,0,1.1,1.13,3.11,3.11,0,0,1,.39-1.66,5.54,5.54,0,0,0,3,.63c-1.57-2.69,2.89-5.41,1.12-9-.26-.54.5-.89.58-.34.41,3.13,2.24,3.83,3.79,2.86-.46-.51-.67-.5-1-1,1,.27,1.57-.48,1.84-1.43-2.82-1-1.3-3.42-3.09-5.73m.23,6.2a5.49,5.49,0,0,0,.6,1.61c-2.05-.13-1.1-4.46-3.16-3.42a1.13,1.13,0,0,0-.49,1.52c1.34,2.78-1.72,5.23-1.55,7.67-.76,0-1.54,0-2-1A14.93,14.93,0,0,0,43.86,40l-.61-1a4.58,4.58,0,0,1-4.17,3.47c1-1.64-.21-3.89,2.32-6.28a9.55,9.55,0,0,1-1.3-1.08c3.1.37,6.33-2.09,4.86-3.25-1-.76-1.38.82-2.86.55l.58-.49c-.2-.21-.44-.47-.67-.68a4.28,4.28,0,0,0,1.34-.47L43,30.1c3.63,0,3.73-2.78,2.26-2.89-.68-.05-1.59,1.22-3.83,1a4.09,4.09,0,0,0,.54-1.25,4.85,4.85,0,0,1-1.69-.3c1.1-.14,1.35-.5,2.28-1.19L41.48,25c1.53-.77,1.43-2.1,1.47-3.48-.8.46-1.74,1.17-2.74.84-.24-.08-.39-.19-.39-.44,1.43-.56,2.35-2.77-1.09-4.63-2.19-1.18-7.54-3.78-3.91-6.59.49-.38,1-.73,1.49-1.15.57.44-.21,1.52-.41,1.91,0,0,1.21.13,1.5.13,1.86,0,3.83-1.12,2.83-3.24.75.16.84.87,1.06,1.48.47-.32,1.3-1,1.94-.91-.52,1.66-2.69,3.15-4.4,3.49,1.72.93,4.89,1.62,6.56-.39,1.17,2.27-.47,3.21-2.07,4.4,6.1,2.78,5.2,5.9,9.19,8.36-.52.24-2.83-.25-3-.28A12,12,0,0,1,51,26.69,10.45,10.45,0,0,1,51.6,29a3.39,3.39,0,0,0,1.73,2.62c-.47.85-1.51.19-1.95.07"/><path class="cls-4" d="M22.3,38.55l.87-.74L23,37.55c-.1-.19-.05-.2.05-.27l.46-.35a.36.36,0,0,1,.35,0l1.34.32H23.82a.57.57,0,0,0-.56.4l-.1.2-.37.77a.86.86,0,0,0,.14,1l.26.32L22.67,41h.45l.37-.75a2.56,2.56,0,0,0,.67-1c-.16-.13-.27-.22-.18-.4l.16-.36c.06-.12.08-.16.24-.13l1.44.31a.5.5,0,0,0,.64-.16c.2-.3.22-.27.68-.22l.73.08a4,4,0,0,0,2.41-.47,7.72,7.72,0,0,0,.54.79c0,.09,0,.21-.1.38l-.8,2H31.2l.72-1.81a1,1,0,0,1,.24-.37L31.75,41H33l.33-2.16c.07-.48,0-.64-.2-.84-.52-.43-.51-1.34-.68-1.9a.44.44,0,0,1,.31-.06c.27,0,.47.71.8,1.15.63.9,1.49,1.88,2.49.49a3.43,3.43,0,0,0-.32-.43l-.28-.33c-.16-.18-.93-1-1.25-1.34a1.85,1.85,0,0,0-2.28-.27,3.29,3.29,0,0,0-2.32,0l-1.74-.11a.34.34,0,0,1-.28-.17l.32-.1a2.94,2.94,0,0,0-2.38-2.49s-.08-.4-.28-.47l-.4.46a1.33,1.33,0,0,0-.34.1l-1.69-.63,1.3,1.27a12.43,12.43,0,0,1-.88,1.11.34.34,0,0,0,0,.48h0l.25.32c.13.17.27.16.47.06l.28-.15c.12-.1.53.1.67-.06a4.86,4.86,0,0,0-.11,1l-1.15-.13a.59.59,0,0,0-.51.12l-1,.75a.84.84,0,0,0-.22,1.07Zm9.41.22-.77,1.9h-.48l.77-1.84c.08-.24-.07-.35-.26-.61a6.46,6.46,0,0,0,.84.4l-.09.15m-7.45-4.13-.22.12c-.15.08-.23.12-.36,0l-.1-.13a.24.24,0,0,1,0-.3l.94-1.11-.87-.72,1.11.41.41-.51c.12.1.08.4.08.4A2.26,2.26,0,0,1,27.11,35a1.08,1.08,0,0,0,.67.45l1.93.12a2.48,2.48,0,0,1,2.14,0,2.23,2.23,0,0,1,.82-.32,2.53,2.53,0,0,1,2.07,1.2c.36.46.86,1.16.86,1.16-.22.26-.43.34-.6.28a.89.89,0,0,1-.44-.67,2.08,2.08,0,0,0-.67-.88,4.36,4.36,0,0,1,.3,1c-.75-.75-.89-1.65-1.42-1.78A.76.76,0,0,0,32,36c.27.61.25,1.34.52,1.8a1.45,1.45,0,0,0,.34.47c.23.16.1.45.06.68l-.28,1.78h-.48l.31-1.75c.1-.53-1.39-.53-2.17-1.55-.67.76-2.48.57-3.28.45a.66.66,0,0,0-.8.29c-.1.18-.28.12-.39.1l-1.44-.31a.36.36,0,0,0-.46.18l0,0-.29.59a.28.28,0,0,0,.06.36l.13.15a1.15,1.15,0,0,1-.34.5l-.32-.35a.64.64,0,0,1,0-.68l.47-1a.38.38,0,0,1,.35-.23h1.79l-.54-.89c-.41-.67.27-1.86.16-2.43-.05.75-1,.41-1.1.51m-1.92,2.19.85-.67a.52.52,0,0,1,.42-.17l1.2.16a1.88,1.88,0,0,0,.25.56l-1.27-.27a.46.46,0,0,0-.4.11l-.61.46a.3.3,0,0,0-.05.39l.09.21-.42.31-.16-.3c-.16-.32-.18-.62.09-.83"/><path class="cls-4" d="M26,13.94a8.76,8.76,0,0,0,1.29.67v-.55l-1.81-.67s0,.22.52.58"/><path class="cls-4" d="M27.3,13.28v-.55l-2-.73a4.65,4.65,0,0,0,.77.62,8.65,8.65,0,0,0,1.28.67"/><path class="cls-4" d="M27.3,12v-.55l-2.25-.83s.44.36,1,.72a8.76,8.76,0,0,0,1.29.67"/><path class="cls-4" d="M33.6,19.49h2.3a1.06,1.06,0,0,0-1.12-.67,1.28,1.28,0,0,0-1.18.67"/><path class="cls-4" d="M31.2,10.66,29,11.49V12a9.24,9.24,0,0,0,1.28-.68c.52-.35,1-.71,1-.71"/><path class="cls-4" d="M30.76,13.36,29,14v.55a9.24,9.24,0,0,0,1.28-.68c.52-.35.52-.57.52-.57"/><path class="cls-4" d="M31,12l-2,.73v.55a9.18,9.18,0,0,0,1.28-.67,5.65,5.65,0,0,0,.77-.62"/><path class="cls-4" d="M21.48,18.82a1.06,1.06,0,0,0-1.13.67h2.3a1.27,1.27,0,0,0-1.17-.67"/><path class="cls-4" d="M32.69,9.2c0-1.29-2.17-2.45-4.57-2.45S23.56,7.91,23.56,9.2l.05.32L24.56,15l-4.49,2.63a2.73,2.73,0,0,0-1.19,1.86h.83a1.83,1.83,0,0,1,1.91-1.6,2.87,2.87,0,0,1,2.28,1.6l.15.24.23.36H17.63a7.27,7.27,0,0,1,.95,3.15V37.05c0,3.56,2.74,5.26,5.69,5.26,2.29,0,2.6-.1,3.86,1.15,1.26-1.26,1.57-1.15,3.86-1.15,2.95,0,5.69-1.69,5.69-5.26V23.22a7.14,7.14,0,0,1,1-3.15H32l.23-.35.16-.25a2.89,2.89,0,0,1,2.28-1.59,1.83,1.83,0,0,1,1.89,1.61h.82a2.68,2.68,0,0,0-1.16-1.86L31.68,15l1-5.48Zm-8.2.63L27.85,11v5.28L25.36,15ZM25.32,21a3.26,3.26,0,0,0,2,1.23,1.74,1.74,0,0,0,.58,1,1.7,1.7,0,0,0,1.26,2.05h0a1.34,1.34,0,0,0,.9,1l-.67.81a1.08,1.08,0,0,1-.92.38l-3.15-.36c.14-.35-.23-.75-1.22-.58l1.23-3.46L24.6,21.5l-1.44,1.23-.1,3.63-.62-.3c-.8-.34-1,1.1-.27,1.11h.3a.34.34,0,0,0,.14.36.26.26,0,0,0-.08.34.34.34,0,0,0,.08.09.3.3,0,0,0-.12.4l.06.07a.68.68,0,0,0,.22.93l.15.07c.45.12.73-.37.83-.68l4.9,1.52a1.66,1.66,0,0,0,1.77-.41l1.28-1.13a1.35,1.35,0,0,0,.67,1.62,6,6,0,0,0,0,.95H19.55V23.24a6.38,6.38,0,0,0-.48-2.2Zm5.28,3.06a1.65,1.65,0,0,0,.07,1.65l-.21.21c-.92-.12-1.28-1.49-1.28-1.49a2.29,2.29,0,0,0,0,.37,1.28,1.28,0,0,1-.85-1.34,2.31,2.31,0,0,0,.67.23l.06-.4a1.4,1.4,0,0,1-1.16-1h.26a3.75,3.75,0,0,0,1.05-.15,1.79,1.79,0,0,0,1.22.67A2,2,0,0,0,30.6,24m1.34,3.63a1.35,1.35,0,0,0-.22.43l-.51.47a2.44,2.44,0,0,0-.86-2L30.9,26l.11.11a1.26,1.26,0,0,0,.91,1.53h0m-2.46-.17.42-.41a2.28,2.28,0,0,1,.82,2l-.46.43a1.66,1.66,0,0,1-.3.22,2.48,2.48,0,0,0-.48-2.25m-.91.35h0a.94.94,0,0,0,.47-.06,2.28,2.28,0,0,1,.19,2.15,2.3,2.3,0,0,1-.64-.09l-.16,0a2.74,2.74,0,0,0,.13-2m-1.07-.14.6.08a2.9,2.9,0,0,1-.28,1.83l-.67-.2a2.84,2.84,0,0,0,.37-1.71m-1.25-.14.72.09a2.84,2.84,0,0,1-.34,1.64l-.73-.22a2.3,2.3,0,0,0,.35-1.51m-2.92-.19a.33.33,0,0,1-.44-.15.34.34,0,0,1,0-.2,1.16,1.16,0,0,1,1.14,0c.18.12.32.43.56.63a4.25,4.25,0,0,1-.22.92.67.67,0,0,1-.63-.71.69.69,0,0,1,.18-.42.46.46,0,0,0-.57-.12m-.47,1.34a1.82,1.82,0,0,0,.46.11A.25.25,0,0,1,23,29h0a.24.24,0,0,1-.16-.3s0,0,0,0m-.67-1.93a.19.19,0,0,1,.09-.36c.2,0,.48.24.74.35a2.31,2.31,0,0,1-.83,0m.67,1.41c.15.14.59.08.59.08v.09c-.19.26-.72.14-.6-.17m.59-.29c-.31.12-.63-.05-.53-.25.15.13.55.07.55.07Zm.46-3.63-.6,2.18.2-3.52.93-.79.47,1-1.15,3.4.31-2.29c0-.17-.1-.18-.12,0m0,2.63a4,4,0,0,1,.85,0c.14.06.05.29-.13.26a3.23,3.23,0,0,1-.72-.3m1,.53.72.09a2.33,2.33,0,0,1-.3,1.44l-.68-.2a4.13,4.13,0,0,0,.29-1.34m11.7,9.66a4,4,0,0,1-2.07,3.67l.47-.94H34.7L34.1,41a5.68,5.68,0,0,1-2.09.36c-2.35,0-3,.1-3.85,1-.88-.87-1.5-1-3.86-1A5.77,5.77,0,0,1,22.2,41h0l.59-1.21h-.43l-.53,1.06-.36-.18.43-.87h-.44l-.32.67a4,4,0,0,1-1.61-3.36V31.77H36.72Zm.48-16a6.38,6.38,0,0,0-.48,2.2V31.3h-.94A5.53,5.53,0,0,1,35,29.51a2.26,2.26,0,0,0,.29,1.79H34.1a6.92,6.92,0,0,1-.56-1.83,2,2,0,0,0,.09,1.83h-.8A4,4,0,0,1,33,30.11c-.43-.09-.87-.3-.87-.77a.65.65,0,0,0,.59.19l.35-.27c-1.13,0-1.19-1.2-.29-1.79-.9,0-1.57-.5-1.25-1.46a1.34,1.34,0,0,1-.4-1.85v0a1.6,1.6,0,0,1-.18-1.59,1.78,1.78,0,0,1-1.24-.49h-.08a3.22,3.22,0,0,0,1.35-1Zm-3.42-3.88c-.94.16-1.74,1.3-2.39,2.33l-.07.12h-.67v.12a2.29,2.29,0,0,1-2.49,1.87A2.73,2.73,0,0,1,26.45,21a2,2,0,0,1-.67-.95,2.33,2.33,0,0,1-.08-.36v-.12H25l-.17-.12c-.67-1-1.45-2.17-2.38-2.33L25,15.68l3.13,1.69,3.11-1.69ZM30.91,15l-2.49,1.31V11l3.36-1.15ZM28.14,10.4l-3.7-1.46c.32-.74,1.76-1.35,3.69-1.35s3.36.64,3.68,1.35Z"/><path class="cls-4" d="M36.33,26.24v-.4c-1.25,0-1.53-1.49-1.53-1.49a1.49,1.49,0,0,0,1,1.84,1.67,1.67,0,0,0,.5,0"/><path class="cls-4" d="M34.76,28.72l-.12-.38c-1,.27-1.6-1.41-1.6-1.41a1.43,1.43,0,0,0,1,1.78,1.47,1.47,0,0,0,.75,0"/><path class="cls-4" d="M35.53,27.17c-1.26.2-1.78-1.27-1.78-1.27a1.42,1.42,0,0,0,1.12,1.68l.09,0a1.11,1.11,0,0,0,.85,1.32,1.08,1.08,0,0,0,.77-.11l-.12-.36a.82.82,0,0,1-.93-1.28"/><path class="cls-4" d="M34.74,23v-.4c-1.66-.35-1.53-1.5-1.53-1.5a1.49,1.49,0,0,0,1,1.84,1.35,1.35,0,0,0,.49.06"/><polygon class="cls-4" points="24.16 39.78 23.57 41 24.02 41 24.61 39.78 24.16 39.78"/><polygon class="cls-4" points="25.07 39.78 24.47 41 24.92 41 25.52 39.78 25.07 39.78"/><polygon class="cls-4" points="28.68 39.78 28.08 41 28.53 41 29.13 39.78 28.68 39.78"/><polygon class="cls-4" points="29.59 39.78 28.99 41 29.44 41 30.03 39.78 29.59 39.78"/><polygon class="cls-4" points="27.78 39.78 27.18 41 27.63 41 28.23 39.78 27.78 39.78"/><polygon class="cls-4" points="33.05 41 33.51 41 34.1 39.78 33.65 39.78 33.05 41"/><polygon class="cls-4" points="25.97 39.78 25.38 41 25.82 41 26.42 39.78 25.97 39.78"/><polygon class="cls-4" points="26.87 39.78 26.27 41 26.73 41 27.32 39.78 26.87 39.78"/><path class="cls-4" d="M24.83,33.27a.19.19,0,0,0-.21.15.2.2,0,0,0,.16.21.17.17,0,0,0,.2-.15v0a.17.17,0,0,0-.15-.18"/><path class="cls-4" d="M28.14,5.93A6.86,6.86,0,0,1,32.29,7.2a8.39,8.39,0,0,1,1.07-2.76l-1.49.17L31.09,3l-1.5.78L28.14,2.29,26.68,3.74,25.17,3l-.78,1.66L22.9,4.44A8.41,8.41,0,0,1,24,7.2a6.87,6.87,0,0,1,4.16-1.27m-3.48-.67.69-1.5,1.35.68L28.14,3l1.45,1.44,1.35-.67.67,1.5.87-.13a6.76,6.76,0,0,0-.55,1.3,7.79,7.79,0,0,0-7.6,0,7.46,7.46,0,0,0-.55-1.3Z"/><path class="cls-4" d="M29.66,3a.41.41,0,0,0,.43-.35,2.86,2.86,0,0,0-.3-.8s-.48.52-.49.73a.39.39,0,0,0,.36.42"/><path class="cls-4" d="M32.09,3.85a.39.39,0,0,0,.53-.16h0a2.38,2.38,0,0,0,0-.84s-.63.28-.73.47a.39.39,0,0,0,.16.53"/><path class="cls-4" d="M26.6,3A.39.39,0,0,0,27,2.54c0-.21-.49-.73-.49-.73a2.36,2.36,0,0,0-.3.8A.39.39,0,0,0,26.6,3"/><path class="cls-4" d="M24.16,3.85a.39.39,0,0,0,.16-.53c-.1-.2-.73-.48-.73-.48a2.22,2.22,0,0,0,0,.85.38.38,0,0,0,.52.17h0"/><path class="cls-4" d="M53.48,17.28a2.09,2.09,0,0,0,1.12-1.14c-1.34-.19-4.85-1.67-7.74-.46,1.08-1,2-1.16,2.15-2.64A1.05,1.05,0,0,0,50.49,13a1,1,0,0,0,.15-.21c-.29-.88-1-.17-1.15-.41s.94.1,1.18-1c-.85-.3-1.11.4-1.26.24s.54-.45,0-1.35c-.89.52-.43,1.11-.62,1.17s0-.62-1-.59c-.1,1.06.92,1.09.75,1.26s-.47-.61-1.21-.2A1.11,1.11,0,0,0,48.77,13c-.12,1.62-1.6,1.34-2.69,3.14,2.34,1.2,3.4,3.3,4.84,4.75A8.09,8.09,0,0,0,52.21,19a1.89,1.89,0,0,0,2.68,0h0a18.41,18.41,0,0,0-1.38-1.72m-2.27.3A2.62,2.62,0,0,1,51,20.15a10.6,10.6,0,0,0-3-3.87c-.21-.13.11-.37.71-.45,1.8-.35,3.91.42,4.92.67a2.54,2.54,0,0,1-1.34.56,8.31,8.31,0,0,1,1.64,1.71c-.71.17-1.11-.28-2.64-1.19"/><path class="cls-4" d="M36.16,44.59v-2a18.07,18.07,0,0,1-6,1.5l-.11.71c.21,0,.48,0,.84.08a20.78,20.78,0,0,1-5.57,0,5.3,5.3,0,0,0,.84-.08L26,44.11a17.91,17.91,0,0,1-6-1.5v2l-2,.85a25.64,25.64,0,0,0,5.37,2l-.24.82a18.27,18.27,0,0,0,10,0L33,47.42a25.64,25.64,0,0,0,5.37-2Zm-17,.9,1.4-.57V43.31a23.67,23.67,0,0,0,3.77,1l-.79,2.58a23.22,23.22,0,0,1-4.38-1.46m9,3a18.94,18.94,0,0,1-4.44-.55l.84-2.69a21.75,21.75,0,0,0,7.2,0l.84,2.69a19.07,19.07,0,0,1-4.44.55M32.75,47l-.8-2.6a24.18,24.18,0,0,0,3.77-1.05v1.61l1.4.56a22.47,22.47,0,0,1-4.37,1.47"/><path class="cls-4" d="M4.06,19a8.3,8.3,0,0,0,1.29,1.83c1.44-1.44,2.51-3.54,4.84-4.74-1.1-1.82-2.59-1.52-2.68-3.15a1.08,1.08,0,0,0,1.36-.73,1,1,0,0,0,.05-.39c-.75-.41-1,.4-1.21.2s.85-.21.75-1.26c-1,0-.8.67-1,.59s.27-.67-.62-1.17c-.5.93.19,1.22,0,1.34s-.41-.53-1.26-.24c.23,1.15,1.34.67,1.18,1s-.86-.47-1.15.41A1,1,0,0,0,7,13.16.82.82,0,0,0,7.25,13c.09,1.49,1.07,1.61,2.15,2.64-2.9-1.2-6.41.28-7.74.47a2.09,2.09,0,0,0,1.13,1.13C1.93,18,1.93,18.45,1.4,19a1.92,1.92,0,0,0,2.69,0m-1.64-.22A7.88,7.88,0,0,1,4.1,17.07a2.64,2.64,0,0,1-1.34-.57c1-.27,3.12-1,4.92-.67.59.08.93.32.71.45a10.8,10.8,0,0,0-3.05,3.88,2.67,2.67,0,0,1-.29-2.55C3.53,18.53,3.13,19,2.42,18.8"/><path class="cls-4" d="M26.86,17.9v.87a1.1,1.1,0,0,1,.88-.29v1.26a1.93,1.93,0,0,1-.24.88h1.25a1.93,1.93,0,0,1-.24-.88V18.47a1.09,1.09,0,0,1,.88.29v-.87H26.86Z"/></svg>