<svg _ngcontent-serverApp-c16="" width="16" height="15" viewBox="0 0 16 15" fill="none" xmlns="http://www.w3.org/2000/svg"><path _ngcontent-serverApp-c16="" d="M14.8369 5.58333L10.6702 9.75C10.5036 9.91667 10.3369 10 10.0869 10C9.83692 10 9.67025 9.91667 9.50358 9.75C9.17025 9.41667 9.17025 8.91667 9.50358 8.58333L12.2536 5.83333H4.25358C2.83691 5.83333 1.75358 6.91667 1.75358 8.33333V14.1667C1.75358 14.6667 1.42025 15 0.920247 15C0.420247 15 0.0869141 14.6667 0.0869141 14.1667V8.33333C0.0869141 6 1.92025 4.16667 4.25358 4.16667H12.2536L9.50358 1.41667C9.17025 1.08333 9.17025 0.583333 9.50358 0.25C9.83692 -0.0833333 10.3369 -0.0833333 10.6702 0.25L14.8369 4.41667C14.9202 4.5 15.0036 4.58333 15.0036 4.66667C15.0869 4.83333 15.0869 5.08333 15.0036 5.33333C15.0036 5.41667 14.9202 5.5 14.8369 5.58333Z" fill="white"></path></svg>