<svg _ngcontent-serverApp-c43="" width="18" height="18" viewBox="0 0 18 18" fill="none" xmlns="http://www.w3.org/2000/svg"><path _ngcontent-serverApp-c43="" fill-rule="evenodd" clip-rule="evenodd" d="M5.64545 18H12.3545C12.6 18 12.8455 17.9182 12.9273 17.8364L17.7545 13.0091C17.9182 12.8455 18 12.6818 18 12.4364V5.64545C18 5.4 17.9182 5.15454 17.8364 5.07273L13.0091 0.245455C12.8455 0.0818182 12.6818 0 12.4364 0H5.64545C5.4 0 5.15455 0.0818182 5.07273 0.245455L0.245455 5.07273C0.0818182 5.23636 0 5.4 0 5.64545V12.3545C0 12.6 0.0818182 12.8455 0.245455 12.9273L5.07273 17.7545C5.23636 17.9182 5.4 18 5.64545 18ZM12.1091 16.3637H5.97272L1.63636 12.1091V5.97277L5.97272 1.63641H12.0273L16.4454 5.97277V12.0273L12.1091 16.3637Z"></path><path _ngcontent-serverApp-c43="" d="M9.81819 9V5.72727C9.81819 5.23636 9.49091 4.90909 9.00001 4.90909C8.5091 4.90909 8.18182 5.23636 8.18182 5.72727V9C8.18182 9.49091 8.5091 9.81818 9.00001 9.81818C9.49091 9.81818 9.81819 9.49091 9.81819 9Z"></path><path _ngcontent-serverApp-c43="" d="M9.57274 12.8454C9.65456 12.7636 9.73638 12.6818 9.73638 12.6C9.73638 12.5181 9.8182 12.3545 9.8182 12.2727C9.8182 12.1909 9.8182 12.0272 9.73638 11.9454C9.65456 11.8636 9.65456 11.7818 9.57274 11.7C9.57274 11.7 9.49093 11.6181 9.40911 11.6181C9.32729 11.6181 9.32729 11.5363 9.24547 11.5363C8.9182 11.3727 8.59093 11.4545 8.34547 11.7C8.26365 11.7818 8.18184 11.8636 8.18184 11.9454C8.18184 12.0272 8.10002 12.109 8.10002 12.2727C8.10002 12.5181 8.18184 12.6818 8.34547 12.8454C8.50911 13.009 8.67274 13.0909 8.9182 13.0909C9.24547 13.0909 9.40911 13.009 9.57274 12.8454Z"></path></svg>