<svg _ngcontent-serverApp-c17="" width="21" height="20" viewBox="0 0 21 20" fill="none" xmlns="http://www.w3.org/2000/svg"><path _ngcontent-serverApp-c17="" fill-rule="evenodd" clip-rule="evenodd" d="M6.77273 20H14.2273C14.5 20 14.7727 19.9091 14.8636 19.8182L20.2273 14.4545C20.4091 14.2727 20.5 14.0909 20.5 13.8182V6.27273C20.5 6 20.4091 5.72727 20.3182 5.63636L14.9545 0.272727C14.7727 0.0909091 14.5909 0 14.3182 0L6.77273 0C6.5 0 6.22727 0.0909091 6.13636 0.272727L0.772727 5.63636C0.590909 5.81818 0.5 6 0.5 6.27273V13.7273C0.5 14 0.590909 14.2727 0.772727 14.3636L6.13636 19.7273C6.31818 19.9091 6.5 20 6.77273 20ZM13.9545 18.1819H7.13636L2.31818 13.4546V6.63641L7.13636 1.81823H13.8636L18.7727 6.63641V13.3637L13.9545 18.1819Z" fill="#307BF6"></path><path _ngcontent-serverApp-c17="" d="M11.4091 10V6.36364C11.4091 5.81818 11.0455 5.45455 10.5 5.45455C9.95455 5.45455 9.59091 5.81818 9.59091 6.36364V10C9.59091 10.5455 9.95455 10.9091 10.5 10.9091C11.0455 10.9091 11.4091 10.5455 11.4091 10Z" fill="#307BF6"></path><path _ngcontent-serverApp-c17="" d="M11.1364 14.2727C11.2273 14.1818 11.3182 14.0909 11.3182 13.9999C11.3182 13.909 11.4091 13.7272 11.4091 13.6363C11.4091 13.5454 11.4091 13.3636 11.3182 13.2727C11.2273 13.1818 11.2273 13.0909 11.1364 12.9999C11.1364 12.9999 11.0455 12.909 10.9546 12.909C10.8637 12.909 10.8637 12.8181 10.7727 12.8181C10.4091 12.6363 10.0455 12.7272 9.77275 12.9999C9.68184 13.0909 9.59093 13.1818 9.59093 13.2727C9.59093 13.3636 9.50002 13.4545 9.50002 13.6363C9.50002 13.909 9.59093 14.0909 9.77275 14.2727C9.95457 14.4545 10.1364 14.5454 10.4091 14.5454C10.7727 14.5454 10.9546 14.4545 11.1364 14.2727Z" fill="#307BF6"></path></svg>